<svg width="31" height="22" viewBox="0 0 31 22" fill="none" xmlns="http://www.w3.org/2000/svg">
<path d="M30.5005 19.2178C30.3247 19.6353 30.2148 20.0967 29.9731 20.4629C29.4751 21.21 28.7134 21.5323 27.8198 21.5542C27.7685 21.5542 27.7246 21.5542 27.6733 21.5542C19.5727 21.5542 11.4722 21.5542 3.37889 21.5542C2.23631 21.5542 1.34276 21.1074 0.844712 20.0601C0.668931 19.6939 0.573716 19.2544 0.573716 18.8516C0.551744 13.6367 0.551744 8.4219 0.559068 3.20706C0.559068 1.61038 1.71629 0.504422 3.34227 0.504422C10.1391 0.504422 16.9287 0.504422 23.7256 0.504422C25.0146 0.504422 26.2964 0.533719 27.5854 0.497098C29.0869 0.453153 30.2588 1.38333 30.4712 2.78958C30.4712 2.81155 30.4858 2.8262 30.4931 2.84085C30.5005 8.29739 30.5005 13.7613 30.5005 19.2178ZM3.62059 2.26956C3.68651 2.3428 3.70848 2.3721 3.73778 2.40139C7.40721 6.08548 11.084 9.76956 14.7607 13.4536C15.2441 13.937 15.8301 13.9297 16.3281 13.4317C19.9756 9.77688 23.623 6.11477 27.2705 2.45999C27.3218 2.40872 27.3657 2.35013 27.4316 2.26956C19.4848 2.26956 11.5747 2.26956 3.62059 2.26956ZM3.60594 19.7744C11.5747 19.7744 19.4848 19.7744 27.4536 19.7744C24.9194 17.2696 22.4292 14.8013 19.9243 12.3184C19.873 12.3697 19.7925 12.4429 19.7192 12.5161C18.9941 13.2412 18.2764 13.9737 17.5513 14.6914C16.3721 15.856 14.6802 15.856 13.501 14.6914C12.7905 13.9883 12.0801 13.2705 11.3769 12.5601C11.289 12.4722 11.2305 12.355 11.1792 12.2744C8.63036 14.8013 6.14012 17.2696 3.60594 19.7744ZM2.33153 3.59524C2.33153 8.53909 2.33153 13.5269 2.33153 18.4634C4.82176 16.0025 7.32665 13.5196 9.83885 11.0293C7.31932 8.53909 4.81444 6.05618 2.33153 3.59524ZM21.1987 11.0147C23.7329 13.5269 26.2451 16.0098 28.7207 18.4707C28.7207 13.5269 28.7207 8.53177 28.7207 3.56595C26.2305 6.03421 23.7256 8.51712 21.1987 11.0147Z" fill="black"/>
</svg>
