<svg width="36" height="35" viewBox="0 0 36 35" fill="none" xmlns="http://www.w3.org/2000/svg">
<g clip-path="url(#clip0)">
<path d="M35.5 2.5328C35.5 12.5133 35.5 22.4867 35.5 32.4672C35.4864 32.4887 35.4659 32.5031 35.4591 32.5246C35.2339 34.0027 34.0127 35 32.5185 35C22.8372 34.9857 13.1559 34.9928 3.47466 34.9857C3.18129 34.9857 2.87427 34.9641 2.59454 34.8852C1.27778 34.5193 0.5 33.4071 0.5 31.9147C0.5 27.5379 0.5 23.154 0.5 18.7772C0.5 13.5609 0.5 8.34461 0.5 3.12833C0.5 2.418 0.643275 1.75072 1.05945 1.17671C1.68713 0.322878 2.53314 0 3.53606 0C12.4191 0.00717507 21.3021 0.00717503 30.192 0.00717503C30.9903 0.00717503 31.7885 0.0143501 32.5867 0.00717503C33.3099 -4.1163e-08 33.9513 0.222427 34.5107 0.703157C35.0634 1.18389 35.3226 1.83682 35.5 2.5328ZM15.1823 28.8725C16.7924 28.8725 18.3411 28.8725 19.924 28.8725C19.924 24.8545 19.924 20.8651 19.924 16.8327C20.7154 16.8327 21.4727 16.8327 22.2368 16.8327C22.885 16.8327 22.885 16.8327 23.0351 16.1654C23.2534 15.1896 23.4649 14.221 23.6969 13.2021C22.4279 13.2021 21.193 13.2021 19.8694 13.2021C19.9376 12.3555 19.9717 11.5447 20.0673 10.7483C20.115 10.3465 20.3674 10.0236 20.7427 9.85855C21.3908 9.57872 22.0663 9.49262 22.7417 9.74375C23.1784 9.9016 23.5877 10.1312 24.038 10.3465C24.3177 9.21997 24.6043 8.10066 24.884 6.967C24.3791 6.80914 23.9152 6.67999 23.4649 6.52214C21.7797 5.94096 20.0809 5.98401 18.3889 6.45039C17.0175 6.82349 16.0692 7.72755 15.5575 9.10517C15.2232 10.0092 15.2027 10.9707 15.1959 11.925C15.1959 12.3411 15.1959 12.7501 15.1959 13.195C14.4386 13.195 13.7222 13.195 12.999 13.195C12.999 14.4147 12.999 15.5986 12.999 16.8255C13.7359 16.8255 14.4454 16.8255 15.1891 16.8255C15.1823 20.8651 15.1823 24.8545 15.1823 28.8725Z" fill="#4D4D4D"/>
</g>
<defs>
<clipPath id="clip0">
<rect width="35" height="35" fill="white" transform="translate(0.5)"/>
</clipPath>
</defs>
</svg>
