<svg width="36" height="35" viewBox="0 0 36 35" fill="none" xmlns="http://www.w3.org/2000/svg">
<g clip-path="url(#clip0)">
<path d="M33.3809 35C23.127 35 12.873 35 2.61914 35C1.95605 34.8086 1.34082 34.5283 0.964844 33.9199C0.773438 33.5986 0.650391 33.2295 0.5 32.8809C0.5 22.627 0.5 12.373 0.5 2.11914C0.664062 1.57227 0.848633 1.01855 1.32031 0.683594C1.7168 0.40332 2.18164 0.225586 2.61914 0C12.873 0 23.127 0 33.3809 0C34.0439 0.18457 34.6592 0.47168 35.0352 1.08008C35.2334 1.40137 35.3496 1.77051 35.5 2.11914C35.5 12.373 35.5 22.627 35.5 32.8809C35.3086 33.5439 35.0283 34.1592 34.4199 34.5352C34.0986 34.7266 33.7295 34.8496 33.3809 35ZM18.0273 7.39648C18.0273 7.4375 18.0273 7.47852 18.0273 7.51953C16.5781 7.51953 15.1357 7.49219 13.6865 7.52637C12.5244 7.55371 11.4033 7.82715 10.4189 8.49023C8.77832 9.59766 8.07422 11.2314 8.0332 13.1318C7.97168 16.0439 7.99902 18.9629 8.02637 21.875C8.04004 23.0166 8.33398 24.1104 8.9834 25.0742C10.0908 26.7148 11.7246 27.4189 13.625 27.46C16.5371 27.5215 19.4561 27.5146 22.3682 27.46C23.9814 27.4326 25.4307 26.8994 26.5449 25.6553C27.5293 24.5547 27.9326 23.2285 27.96 21.793C28.0146 19.4004 28.0215 17.0078 28.0215 14.6152C28.0215 13.9111 27.9668 13.2002 27.8984 12.5029C27.625 9.78906 25.6836 7.82031 22.9629 7.59473C21.3359 7.46484 19.6816 7.45801 18.0273 7.39648Z" fill="#4D4D4D"/>
<path d="M26.2715 17.4933C26.2305 19.0177 26.2236 20.5489 26.1348 22.0665C26.0117 24.1652 24.6787 25.5665 22.5801 25.6212C19.5449 25.7032 16.5029 25.7032 13.4609 25.6212C11.3145 25.5665 9.94044 24.1925 9.87892 22.0323C9.79689 18.9835 9.82423 15.9278 9.87892 12.879C9.90626 11.5597 10.5078 10.4659 11.7315 9.81652C12.4219 9.45422 13.1807 9.3175 13.9463 9.3175C16.8174 9.3175 19.6885 9.28332 22.5527 9.37218C24.6787 9.44054 25.9707 10.8146 26.1348 12.9405C26.1553 13.1661 26.1826 13.3917 26.1826 13.6241C26.1895 14.9093 26.1826 16.2013 26.1826 17.4864C26.2168 17.4864 26.2441 17.4933 26.2715 17.4933ZM23.1543 17.4864C23.1475 14.6359 20.8506 12.3458 18 12.3458C15.1426 12.339 12.832 14.6564 12.8389 17.5138C12.8457 20.3644 15.1426 22.6544 17.9932 22.6612C20.8506 22.6612 23.168 20.3439 23.1543 17.4864ZM24.5625 12.1202C24.5557 11.464 24.0225 10.9376 23.3662 10.9308C22.6895 10.9308 22.1563 11.4708 22.1631 12.1476C22.1699 12.8243 22.71 13.3439 23.3936 13.3302C24.0498 13.3234 24.5693 12.7833 24.5625 12.1202Z" fill="#4D4D4D"/>
<path d="M18 14.1504C19.8457 14.1504 21.3428 15.6475 21.3496 17.4863C21.3564 19.3457 19.8457 20.8496 17.9863 20.8428C16.1475 20.8359 14.6504 19.332 14.6504 17.4863C14.6572 15.6543 16.1543 14.1504 18 14.1504Z" fill="#4D4D4D"/>
</g>
<defs>
<clipPath id="clip0">
<rect width="35" height="35" fill="white" transform="translate(0.5)"/>
</clipPath>
</defs>
</svg>
