<svg width="31" height="30" viewBox="0 0 31 30" fill="none" xmlns="http://www.w3.org/2000/svg">
<path d="M0.5 8.30358C0.547493 7.9553 0.57124 7.60701 0.634565 7.26664C0.800792 6.41968 1.18074 5.6677 1.79024 5.04237C2.59763 4.21915 3.37335 3.36427 4.23615 2.61229C5.55013 1.46453 6.98285 1.47245 8.24934 2.65978C9.6029 3.92627 10.8931 5.25609 12.1517 6.60965C13.0858 7.61493 13.0778 9.15846 12.1675 10.1954C11.4947 10.9632 10.7507 11.6677 10.0224 12.3959C9.87995 12.5384 9.8562 12.6255 9.95119 12.8155C10.6794 14.2798 11.7005 15.5305 12.8087 16.7178C13.9406 17.9289 15.1913 19.0133 16.6003 19.9157C17.004 20.169 17.4314 20.3827 17.8747 20.6281C18.4208 20.074 18.9354 19.5199 19.4894 19.0054C19.8931 18.6255 20.3048 18.2376 20.7797 17.9685C21.777 17.4065 22.996 17.549 23.8193 18.3405C25.2045 19.6703 26.566 21.0239 27.8799 22.425C28.8536 23.4619 28.8694 25.0371 27.9195 26.1057C27.0884 27.0476 26.2018 27.9421 25.2995 28.8207C24.6108 29.4856 23.748 29.8418 22.7902 29.9685C22.7269 29.9764 22.6636 30.0081 22.6003 30.0239C22.2282 30.0239 21.8562 30.0239 21.4921 30.0239C21.4288 30.0081 21.3654 29.9843 21.3021 29.9685C20.6689 29.8498 20.0277 29.7785 19.4103 29.6202C17.2177 29.0424 15.215 28.0213 13.3074 26.8181C8.5343 23.7943 4.86148 19.7574 2.29683 14.7231C1.57652 13.3062 1.01451 11.826 0.697889 10.2587C0.602902 9.7363 0.563325 9.22179 0.5 8.71519C0.5 8.58063 0.5 8.43815 0.5 8.30358ZM2.22559 8.55688C2.25726 8.89725 2.281 9.23762 2.32058 9.57007C2.33641 9.72047 2.37599 9.87878 2.40765 10.0292C2.86675 12.0951 3.73747 13.9949 4.83773 15.7838C7.77441 20.549 11.6768 24.2693 16.719 26.7469C18.2704 27.5067 19.8773 28.1242 21.6187 28.2825C22.6953 28.3775 23.6451 28.1242 24.4129 27.3168C25.0462 26.6519 25.6953 26.0107 26.3364 25.3537C26.4314 25.2587 26.5264 25.1558 26.6055 25.045C27.0172 24.5147 27.0172 23.9527 26.566 23.454C26.1069 22.9474 25.6161 22.4724 25.1332 21.9896C24.3813 21.2376 23.6372 20.4856 22.8773 19.7416C22.3311 19.2033 21.7454 19.2033 21.1675 19.7099C21.0805 19.7891 20.9934 19.8682 20.9142 19.9553C20.2414 20.6202 19.5765 21.293 18.9037 21.9579C18.4367 22.417 17.9142 22.5279 17.3522 22.2508C16.7902 21.9659 16.2203 21.673 15.69 21.3405C13.8615 20.1848 12.2863 18.7363 10.8773 17.1136C9.91161 15.9975 9.02507 14.826 8.39974 13.4804C7.86939 12.3405 7.94063 12.0318 8.85092 11.1532C9.5 10.5279 10.1491 9.89461 10.7744 9.2297C11.281 8.69145 11.2652 8.15319 10.7902 7.58327C10.7348 7.51994 10.6715 7.4487 10.6161 7.38538C9.47625 6.25345 8.34433 5.11361 7.20449 3.98168C7.07784 3.85503 6.92744 3.72838 6.76913 3.64131C6.27045 3.36427 5.75594 3.483 5.24143 3.9896C4.59235 4.62284 3.97493 5.27984 3.31794 5.90517C2.55013 6.6334 2.18602 7.50411 2.22559 8.55688Z" fill="black"/>
<path d="M17.1386 0.0634766C17.4948 0.134717 17.9302 0.205957 18.3497 0.316775C20.946 0.973767 23.2495 2.18485 25.2442 3.97377C27.3101 5.83392 28.8299 8.06611 29.7323 10.702C30.0173 11.5252 30.1914 12.388 30.3893 13.2429C30.5001 13.7257 30.2152 14.1215 29.7481 14.2323C29.3128 14.3352 28.8853 14.0899 28.7587 13.6308C28.6241 13.1558 28.545 12.6651 28.4104 12.1822C27.5318 8.96849 25.7191 6.3801 23.0674 4.37746C21.326 3.07139 19.3787 2.22443 17.2415 1.81282C17.0832 1.78115 16.917 1.74949 16.7587 1.69408C16.3787 1.5516 16.165 1.14791 16.2363 0.752131C16.3075 0.364268 16.6716 0.0634766 17.1386 0.0634766Z" fill="black"/>
<path d="M16.9167 5.49365C17.6925 5.61239 18.4998 5.83402 19.2597 6.19022C22.3785 7.64669 24.2861 10.0609 24.9827 13.433C25.0856 13.9316 24.8165 14.3828 24.3495 14.4937C23.9062 14.5966 23.4708 14.3195 23.3283 13.8446C23.1305 13.2034 23.0117 12.5306 22.7347 11.929C21.5553 9.34853 19.5605 7.78125 16.7822 7.20341C16.2756 7.10051 16.0064 6.80764 15.9985 6.36436C15.9827 5.86568 16.3626 5.49365 16.9167 5.49365Z" fill="black"/>
</svg>
