<svg width="36" height="35" viewBox="0 0 36 35" fill="none" xmlns="http://www.w3.org/2000/svg">
<g clip-path="url(#clip0)">
<path d="M0.5 32.8809C0.5 22.627 0.5 12.373 0.5 2.11914C0.664062 1.57227 0.848633 1.01855 1.32031 0.683594C1.7168 0.40332 2.18164 0.225586 2.61914 0C12.873 0 23.127 0 33.3809 0C34.0439 0.18457 34.6592 0.47168 35.0352 1.08008C35.2334 1.40137 35.3496 1.77051 35.5 2.11914C35.5 12.373 35.5 22.627 35.5 32.8809C35.3086 33.5439 35.0283 34.1592 34.4199 34.5352C34.0986 34.7334 33.7295 34.8496 33.3809 35C23.127 35 12.873 35 2.61914 35C1.95605 34.8086 1.34082 34.5283 0.964844 33.9199C0.773438 33.5986 0.650391 33.2295 0.5 32.8809ZM14.3359 22.1416C12.5723 23.4609 10.665 23.9805 8.46387 23.8027C8.64844 23.9189 8.74414 23.9873 8.84668 24.0488C11.4512 25.5391 14.2402 25.9287 17.1592 25.3135C22.7236 24.1377 25.916 19.0791 25.9844 14.3418C25.9912 13.8428 26.1006 13.5078 26.5176 13.207C27.0781 12.7969 27.5293 12.25 27.9463 11.6143C27.543 11.7441 27.2148 11.8672 26.8799 11.9629C26.5449 12.0518 26.1963 12.1133 25.8545 12.1885C26.5723 11.6006 27.1191 10.9307 27.3994 10.1035C26.6816 10.3633 25.9639 10.6162 25.2529 10.876C25.0137 10.9648 24.8496 10.9033 24.6514 10.7324C23.4551 9.67969 22.0674 9.39941 20.5771 9.94629C19.0732 10.5 18.1982 11.6279 17.9932 13.2207C17.9316 13.6719 17.9863 14.1367 17.9863 14.6152C14.6709 14.376 11.9434 12.9746 9.77637 10.4316C9.24316 11.3682 9.12012 12.3252 9.33203 13.3301C9.55078 14.3281 10.1182 15.1074 10.9248 15.7363C10.9043 15.7705 10.8838 15.7979 10.8633 15.832C10.3164 15.6748 9.7627 15.5176 9.20215 15.3604C9.22266 16.2764 9.49609 17.0967 10.0703 17.8213C10.6377 18.5459 11.3896 19.0039 12.2783 19.25C12.2715 19.2842 12.2646 19.3115 12.2646 19.3457C11.7314 19.3457 11.1914 19.3457 10.6035 19.3457C11.2734 21.0479 12.4834 21.957 14.3359 22.1416Z" fill="#4D4D4D"/>
</g>
<defs>
<clipPath id="clip0">
<rect width="35" height="35" fill="white" transform="translate(0.5)"/>
</clipPath>
</defs>
</svg>
