<svg width="31" height="30" viewBox="0 0 31 30" fill="none" xmlns="http://www.w3.org/2000/svg">
<path d="M0.5 15.9375C0.5 15.3125 0.5 14.6875 0.5 14.0625C0.515625 13.9766 0.539062 13.8906 0.546875 13.8047C0.648438 13.1328 0.710938 12.4453 0.851562 11.7812C2.0625 5.9375 7 1.19531 12.8828 0.234375C13.4375 0.140625 14 0.078125 14.5625 0C15.1875 0 15.8125 0 16.4375 0C16.5156 0.015625 16.5859 0.0390625 16.6641 0.046875C17.4375 0.164062 18.2109 0.234375 18.9688 0.414062C24.7422 1.73438 29.2891 6.57031 30.2734 12.4141C30.3672 12.9609 30.4219 13.5156 30.5 14.0625C30.5 14.6875 30.5 15.3125 30.5 15.9375C30.4844 16.0156 30.4609 16.0859 30.4531 16.1641C30.3516 16.8594 30.2891 17.5625 30.1484 18.2422C28.9375 24.0625 23.9688 28.8203 18.1172 29.7656C17.5625 29.8594 17 29.9219 16.4375 30C15.8125 30 15.1875 30 14.5625 30C14.5 29.9844 14.4297 29.9609 14.3672 29.9531C13.6797 29.8516 12.9922 29.7891 12.3125 29.6484C6.5 28.4844 1.6875 23.4922 0.734375 17.6406C0.640625 17.0781 0.578125 16.5078 0.5 15.9375ZM7.48438 14.1016C7.71094 12.2969 7.94531 10.5156 8.16406 8.76562C7.02344 8.3125 5.85156 7.85156 4.66406 7.375C3.26562 9.375 2.46094 11.6094 2.28906 14.1016C4.07031 14.1016 5.8125 14.1016 7.48438 14.1016ZM8.16406 21.2266C7.9375 19.4609 7.71094 17.6875 7.48438 15.8906C5.80469 15.8906 4.0625 15.8906 2.28906 15.8906C2.46875 18.3828 3.26562 20.6328 4.66406 22.6172C5.86719 22.1406 7.03125 21.6797 8.16406 21.2266ZM28.7109 14.1094C28.5312 11.6016 27.7344 9.35938 26.3359 7.38281C25.1172 7.86719 23.9453 8.33594 22.8438 8.77344C23.0703 10.5469 23.2891 12.3203 23.5156 14.1094C25.1953 14.1094 26.9297 14.1094 28.7109 14.1094ZM26.3203 22.6094C27.5312 21.2031 28.8828 17.3672 28.6641 15.8984C26.9219 15.8984 25.1797 15.8984 23.5156 15.8984C23.2891 17.7031 23.0625 19.4766 22.8359 21.2266C23.9531 21.6719 25.1172 22.1328 26.3203 22.6094ZM14.6016 14.1016C14.6016 12.6094 14.6016 11.1562 14.6016 9.74219C13.0391 9.5625 11.5078 9.39062 9.96094 9.21094C9.59375 10.8047 9.39062 12.4297 9.34375 14.0938C11.1094 14.1016 12.8516 14.1016 14.6016 14.1016ZM16.3906 14.1016C18.1562 14.1016 19.8984 14.1016 21.6641 14.1016C21.6094 12.4297 21.4141 10.7891 21.0391 9.21875C19.4688 9.39844 17.9297 9.57031 16.3828 9.74219C16.3906 11.1719 16.3906 12.625 16.3906 14.1016ZM14.6016 20.25C14.6016 18.8281 14.6016 17.3594 14.6016 15.8984C12.8359 15.8984 11.1016 15.8984 9.33594 15.8984C9.39062 17.5781 9.58594 19.2109 9.96094 20.7734C11.5312 20.6016 13.0547 20.4297 14.6016 20.25ZM16.3984 15.8906C16.3984 17.375 16.3984 18.8359 16.3984 20.25C17.9531 20.4297 19.4844 20.6016 21.0469 20.7734C21.4141 19.1875 21.625 17.5547 21.6641 15.8828C19.8906 15.8906 18.1562 15.8906 16.3984 15.8906ZM20.5703 7.51562C20.0234 5.92969 19.375 4.5 18.3203 3.28906C17.8672 2.77344 17.3516 2.32812 16.7188 2.03906C16.6172 1.99219 16.5156 1.96094 16.3984 1.91406C16.3984 3.9375 16.3984 5.91406 16.3984 7.97656C17.7891 7.82812 19.1562 7.67188 20.5703 7.51562ZM14.6172 1.94531C13.0781 2.30469 10.9844 5.10938 10.4844 7.46875C11.8516 7.73438 13.2188 7.89844 14.6172 7.92188C14.6172 5.90625 14.6172 3.9375 14.6172 1.94531ZM14.6094 22.0781C13.2031 22.1172 11.8359 22.2656 10.4375 22.5469C10.6484 23.0781 10.8359 23.5781 11.0547 24.0625C11.625 25.3281 12.3125 26.5078 13.4141 27.3906C13.7656 27.6719 14.1719 27.875 14.6094 28.1562C14.6094 26.0781 14.6094 24.1016 14.6094 22.0781ZM16.3906 22.0234C16.3906 24.1016 16.3906 26.0781 16.3906 28.0859C17.1875 27.7969 17.7969 27.2969 18.3281 26.6875C19.3828 25.4766 20.0234 24.0547 20.5625 22.4844C19.1484 22.3281 17.7812 22.1719 16.3906 22.0234ZM20.0625 2.59375C21.0547 3.95312 21.7266 5.45312 22.2812 7.09375C23.25 6.71875 24.1953 6.35938 25.1875 5.97656C23.6953 4.39844 22.0234 3.28906 20.0625 2.59375ZM22.2734 22.9297C21.7344 24.5547 21.0469 26.0469 20.0625 27.4062C22.0312 26.7031 23.7109 25.5937 25.1641 24.0469C24.7344 23.8594 24.3594 23.6719 23.9688 23.5234C23.4219 23.3203 22.8672 23.1406 22.2734 22.9297ZM5.8125 5.97656C6.82031 6.35938 7.75781 6.71875 8.72656 7.09375C9.27344 5.45312 9.96094 3.95312 10.9453 2.59375C8.97656 3.28906 7.30469 4.39844 5.8125 5.97656ZM8.73438 22.9531C7.73438 23.25 6.78125 23.5859 5.85938 24.0703C7.3125 25.6016 8.98438 26.7109 10.9453 27.4062C9.95312 26.0547 9.26562 24.5469 8.73438 22.9531Z" fill="black"/>
</svg>
