<svg width="35" height="35" viewBox="0 0 35 35" fill="none" xmlns="http://www.w3.org/2000/svg">
<g clip-path="url(#clip0)">
<path d="M0 2.05078C2.24219 2.05078 4.48437 2.05078 6.76302 2.05078C6.92708 2.87109 7.09114 3.66406 7.24609 4.46615C8.32161 9.81641 9.38801 15.1758 10.4544 20.526C10.5091 20.8177 10.6823 20.7812 10.8737 20.7812C15.5859 20.7812 20.3073 20.7812 25.0195 20.7812C25.9219 20.7812 26.8151 20.7721 27.7174 20.7904C27.9817 20.7995 28.0911 20.6992 28.1823 20.4622C29.5312 16.9258 30.8984 13.3893 32.2565 9.86198C32.2929 9.76172 32.3385 9.65234 32.4023 9.50651C33.2864 9.85286 34.1432 10.1901 35.0091 10.5273C35.0091 10.5547 35.0091 10.5729 35.0091 10.6003C34.6263 11.5664 34.2343 12.5417 33.8606 13.5169C32.6028 16.7708 31.3541 20.0339 30.1054 23.2878C30.0325 23.4883 29.9596 23.5977 29.7044 23.5977C22.6224 23.5885 15.5312 23.5885 8.44921 23.5885C8.38541 23.5885 8.31249 23.5885 8.22135 23.5885C8.03906 22.6771 7.85676 21.7747 7.67447 20.8815C6.61718 15.6315 5.55989 10.3906 4.52083 5.14062C4.47526 4.90365 4.38411 4.84896 4.16536 4.84896C2.77995 4.85807 1.38542 4.84896 0 4.84896C0 3.91927 0 2.98047 0 2.05078Z" fill="white"/>
<path d="M25.2839 24.5274C27.6172 24.5365 29.4857 26.4232 29.4766 28.7566C29.4674 31.0626 27.5807 32.9493 25.2747 32.9493C22.9596 32.9493 21.0547 31.0443 21.0547 28.7292C21.0547 26.405 22.9505 24.5183 25.2839 24.5274Z" fill="white"/>
<path d="M13.1156 24.5274C15.4398 24.5274 17.3174 26.4232 17.3083 28.7566C17.2992 31.0626 15.4125 32.9493 13.1065 32.9493C10.7914 32.9493 8.88643 31.0443 8.89554 28.7292C8.88643 26.405 10.7914 24.5183 13.1156 24.5274Z" fill="white"/>
<path d="M19.5869 19.2686C15.9202 19.2686 14.0869 16.694 14.0869 11.5449C14.0869 8.8737 14.5811 6.83984 15.5693 5.44336C16.5648 4.03971 18.0042 3.33789 19.8877 3.33789C23.4684 3.33789 25.2588 5.9554 25.2588 11.1904C25.2588 13.7972 24.7682 15.7952 23.7871 17.1846C22.8132 18.5739 21.4131 19.2686 19.5869 19.2686ZM19.7373 5.92676C18.2692 5.92676 17.5352 7.77083 17.5352 11.459C17.5352 14.9323 18.2549 16.6689 19.6943 16.6689C21.098 16.6689 21.7998 14.8786 21.7998 11.2979C21.7998 7.71712 21.1123 5.92676 19.7373 5.92676Z" fill="white"/>
</g>
<defs>
<clipPath id="clip0">
<rect width="35" height="35" fill="white"/>
</clipPath>
</defs>
</svg>
