<svg width="35" height="35" viewBox="0 0 35 35" fill="none" xmlns="http://www.w3.org/2000/svg">
<path d="M35.0003 11.6639C35.0003 12.1852 35.0003 12.7064 35.0003 13.2362C34.9832 13.3131 34.9576 13.39 34.949 13.4669C34.7696 15.5433 34.0176 17.4061 32.8897 19.1407C31.7019 20.9608 30.2578 22.5758 28.6429 24.0113C25.4385 26.8739 22.1829 29.6766 18.9358 32.4965C18.0215 33.2911 16.9961 33.2484 16.0391 32.4281C13.5525 30.2919 11.0745 28.1642 8.60501 26.0109C6.51151 24.1908 4.47781 22.3024 2.81155 20.0636C1.53836 18.3546 0.56424 16.5004 0.239533 14.3812C-0.273162 11.0231 0.376252 7.93835 2.61502 5.31506C4.85379 2.70031 7.75906 1.65783 11.1599 2.09363C13.356 2.37561 15.1419 3.48645 16.6287 5.10144C16.9449 5.44323 17.2268 5.80212 17.543 6.1781C17.6968 5.97302 17.8335 5.79358 17.9788 5.62268C18.1326 5.43469 18.2864 5.25525 18.4488 5.08435C21.1575 2.23889 24.4217 1.28186 28.1643 2.46106C31.6763 3.5719 33.7271 6.12683 34.6414 9.63025C34.8208 10.2882 34.8892 10.9889 35.0003 11.6639Z" fill="white" fill-opacity="0.8"/>
</svg>
