<svg width="20" height="20" viewBox="0 0 20 20" fill="none" xmlns="http://www.w3.org/2000/svg">
<g clip-path="url(#clip0)">
<path d="M18.9841 20C18.7742 19.8438 18.5398 19.7119 18.3591 19.5264C16.5915 17.7735 14.8386 16.0108 13.0808 14.253C13.0271 14.1992 12.9929 14.126 12.949 14.0576C10.9177 15.6153 8.69604 16.1768 6.24975 15.6494C4.21362 15.21 2.58764 14.0967 1.42065 12.3779C-0.80103 9.12111 -0.278569 4.92189 2.43139 2.29493C5.45874 -0.639643 9.96069 -0.644526 12.988 1.87012C16.1521 4.49708 16.9236 9.31642 14.0915 12.9053C14.1404 12.959 14.1892 13.0127 14.2429 13.0664C16.0007 14.8242 17.7634 16.5821 19.5164 18.3496C19.7019 18.5401 19.8386 18.7744 19.9998 18.9893C19.9998 19.1065 19.9998 19.2237 19.9998 19.3408C19.8874 19.6729 19.6677 19.8926 19.3357 20.0049C19.2185 20 19.1013 20 18.9841 20ZM14.1794 7.93459C14.155 4.48243 11.3572 1.69434 7.93432 1.70899C4.48706 1.71876 1.69409 4.5215 1.70874 7.94923C1.72338 11.3916 4.49194 14.1846 7.94897 14.1748C11.4451 14.1651 14.155 11.3574 14.1794 7.93459Z" fill="white" fill-opacity="0.6"/>
</g>
<defs>
<clipPath id="clip0">
<rect width="20" height="20" fill="white"/>
</clipPath>
</defs>
</svg>
