<svg width="30" height="30" viewBox="0 0 30 30" fill="none" xmlns="http://www.w3.org/2000/svg">
<path d="M15.9066 29.9999C15.3201 29.9999 14.7395 29.9999 14.153 29.9999C14.076 29.9822 14.0049 29.9644 13.9279 29.9526C13.2348 29.8518 12.5357 29.7926 11.8485 29.6504C4.46699 28.1101 -0.651491 21.0841 0.124575 13.5604C0.444481 10.4324 1.58785 7.62437 3.67908 5.26655C7.24543 1.24404 11.7419 -0.432498 17.0618 0.201388C19.9765 0.550913 22.5594 1.74167 24.781 3.66703C27.4883 6.013 29.1589 8.95138 29.7751 12.4822C29.8698 13.0331 29.9291 13.5959 30.0002 14.1528C30.0002 14.7393 30.0002 15.3199 30.0002 15.9064C29.9765 16.1078 29.9528 16.3092 29.9291 16.5106C29.5855 19.6386 28.4362 22.4229 26.3687 24.8045C24.0286 27.5 21.0961 29.1646 17.5772 29.7748C17.0262 29.8696 16.4634 29.9229 15.9066 29.9999ZM15.0298 13.353C14.9054 13.1812 14.8521 13.0865 14.775 13.0094C13.448 11.6765 12.1151 10.3495 10.7881 9.01655C10.6874 8.91584 10.5807 8.8092 10.4623 8.72626C10.012 8.39451 9.41367 8.40636 8.96936 8.75589C8.3414 9.24759 8.32363 10.077 8.93382 10.699C10.2964 12.0675 11.6589 13.4301 13.0274 14.7926C13.0985 14.8637 13.1696 14.9466 13.2525 15.0296C13.1637 15.1184 13.0926 15.2014 13.0215 15.2725C11.6945 16.6054 10.3615 17.9324 9.03453 19.2654C8.93974 19.3601 8.84495 19.4609 8.76202 19.5675C8.35325 20.1007 8.43026 20.8412 8.94567 21.2737C9.48477 21.7239 10.166 21.6646 10.7229 21.1078C12.0796 19.7511 13.4362 18.3945 14.7987 17.0379C14.8698 16.9668 14.9528 16.8957 15.0416 16.8128C15.1305 16.8957 15.2075 16.9668 15.2845 17.0438C16.6115 18.3767 17.9445 19.7037 19.2715 21.0367C19.3604 21.1255 19.4492 21.2144 19.5499 21.2914C20.2905 21.8779 21.339 21.5106 21.5464 20.5924C21.6649 20.0829 21.4575 19.686 21.1021 19.3305C19.7395 17.9739 18.3888 16.6173 17.0322 15.2547C16.9611 15.1836 16.89 15.1066 16.7893 14.994C16.8959 14.9052 16.9907 14.8459 17.0618 14.7748C18.3947 13.4478 19.7217 12.1149 21.0547 10.7879C21.1495 10.6931 21.2442 10.5924 21.3272 10.4857C21.6767 10.0296 21.6649 9.41939 21.3094 8.96916C20.8118 8.34712 19.9883 8.32935 19.3663 8.94546C18.0037 10.3021 16.6471 11.6587 15.2964 13.0213C15.2075 13.0805 15.1542 13.1812 15.0298 13.353Z" fill="black"/>
</svg>
