<svg width="150" height="190" viewBox="0 0 150 190" fill="none" xmlns="http://www.w3.org/2000/svg">
<path d="M132.559 59.5452C126.87 52.3019 102.645 58.8377 88.0887 56.0235C83.4952 55.1323 79.1838 53.204 74.9863 51.1623C67.2148 47.3489 59.6983 43.0601 52.0787 38.9551C51.2327 38.4959 49.9853 37.4751 49.0254 37.4265C47.8378 37.3617 47.0351 38.4041 46.0264 39.0469C42.9569 41.0022 42.6478 40.7537 42.6152 41.8394C42.6551 42.8026 42.8379 43.7545 43.1576 44.6644C47.2629 56.5907 53.9714 67.7176 63.2234 76.322C72.4753 84.9265 84.325 90.9058 96.8851 92.402C103.87 93.2338 111.181 92.6505 117.493 89.5663C128.34 84.2783 136.388 65.4544 132.543 59.5614" fill="#FF98A0"/>
<g opacity="0.53">
<path opacity="0.53" d="M132.559 59.545C129.847 56.0935 122.922 55.7641 114.841 56.0773C115.769 57.2603 115.839 59.0697 114.12 59.9448C109.868 62.1053 105.795 64.6278 102.433 68.0469C99.3093 71.2229 96.2127 74.4151 92.8503 77.3481C87.1126 82.3498 79.4442 81.9123 72.8279 78.9415C66.0326 75.8897 60.4305 70.7044 54.8609 65.8971C54.1938 65.3192 53.5268 64.7412 52.876 64.1633C55.8607 68.5896 59.3372 72.6664 63.2397 76.3164C72.4917 84.9155 84.3413 90.9002 96.9014 92.3964C103.887 93.2282 111.197 92.6449 117.51 89.5607C128.34 84.2619 136.404 65.438 132.559 59.545Z" fill="#DA1039"/>
</g>
<path d="M43.8736 44.9452C44.4726 44.7646 45.055 44.5333 45.6144 44.2538C46.9572 43.6068 48.2037 42.778 49.3185 41.7908C50.1297 41.067 50.8573 40.2554 51.4877 39.371C51.6884 39.0901 51.2871 38.7336 51.0864 39.0145C49.3882 41.385 47.0239 43.2022 44.2912 44.2376C44.1014 44.3079 43.9061 44.3781 43.7055 44.4375C43.3692 44.5293 43.5482 45.037 43.879 44.9452H43.8736Z" fill="#DA1039"/>
<path d="M130.786 35.692C128.719 38.8572 125.211 42.5896 122.331 41.3364C119.451 40.0833 119.543 32.4403 121.067 28.9834C122.591 25.5265 128.568 22.1128 131.447 23.3714C134.327 24.6299 133.221 31.965 130.786 35.692Z" fill="#583650"/>
<path d="M114.776 44.7613C116.772 49.7901 115.085 55.7478 111.566 59.8853C111.287 60.1377 111.111 60.4839 111.072 60.8575C111.099 61.4247 111.734 61.7326 112.276 61.9054C119.424 64.1362 126.507 62.6184 132.825 58.6214C126.816 53.6521 124.294 44.232 124.901 36.4756" fill="#FFA991"/>
<path d="M115.552 50.7082C117.424 49.9728 119.115 48.8433 120.509 47.3972C122.483 45.2366 123.605 42.5359 124.37 39.7164C124.313 39.3746 124.324 39.0249 124.404 38.6875C124.483 38.3501 124.628 38.0316 124.831 37.7503C124.831 37.3127 124.864 36.8752 124.901 36.4431L114.776 44.7613C115.505 46.6541 115.771 48.6927 115.552 50.7082Z" fill="#F7886D"/>
<path d="M111.918 16.334C108.491 17.3332 105.887 20.2932 104.624 23.6205C103.36 26.9478 103.279 30.6045 103.593 34.1478C103.87 37.2698 104.472 40.4351 106.061 43.1412C107.65 45.8473 110.4 48.0349 113.507 48.3265C115.939 48.4712 118.339 47.7173 120.248 46.2092C122.173 44.767 123.263 42.6604 124.001 40.3757C125.519 35.6764 125.378 30.5559 124.207 25.5758" fill="#FFA991"/>
<path d="M140.249 8.92312C140.249 13.644 133.942 18.489 129.202 18.489C128.075 18.489 126.958 18.2679 125.917 17.8382C124.875 17.4085 123.929 16.7786 123.132 15.9847C122.334 15.1907 121.702 14.2481 121.271 13.2107C120.839 12.1733 120.617 11.0614 120.617 9.93859C120.617 5.21776 124.462 0 129.202 0C133.942 0 140.249 4.18609 140.249 8.92312Z" fill="#583650"/>
<path d="M132.467 11.0625C130.78 10.0794 129.544 8.49682 127.879 7.49756C125.818 6.26604 123.334 6.83859 121.056 7.11406C120.773 8.02938 120.625 8.98107 120.617 9.939C120.617 12.2067 121.522 14.3815 123.132 15.9851C124.742 17.5886 126.925 18.4894 129.202 18.4894C132.76 18.4894 137.196 15.7887 139.192 12.4074C136.862 12.7229 134.494 12.2492 132.467 11.0625Z" fill="#472941"/>
<path d="M133.763 21.2975C133.27 16.4363 129.815 12.8389 126.046 13.1954C125.949 13.2041 125.853 13.2186 125.758 13.2386C125.64 12.4829 125.429 11.7445 125.129 11.0403C122.689 5.32557 113.822 7.19986 108.827 9.89516C105.931 11.4616 103.513 13.9948 102.422 16.5821C102.167 16.6792 101.92 16.7985 101.685 16.9386C97.2976 19.6393 97.3464 25.6079 100.497 28.2816C102.667 30.1126 109.174 27.3741 111.447 25.6673C112.012 25.2536 112.504 24.7478 112.9 24.1711C114.327 24.0246 115.743 23.7901 117.141 23.4689C117.92 23.2904 118.686 23.0612 119.435 22.7829C120.194 27.3525 124.186 31.1065 127.798 30.7446C131.588 30.3665 134.251 26.1372 133.763 21.2975Z" fill="#583650"/>
<path d="M123.475 22.7075C121.306 18.7861 117.39 18.6673 113.393 19.807C109.185 21.0115 102.221 25.8134 98.3384 22.054C98.1505 23.1915 98.2504 24.3578 98.6292 25.4471C99.008 26.5365 99.6537 27.5145 100.508 28.2926C102.677 30.1237 109.185 27.3852 111.457 25.6783C112.02 25.2605 112.507 24.751 112.9 24.1713C114.327 24.0249 115.743 23.7904 117.141 23.4691C117.92 23.2906 118.686 23.0615 119.435 22.7832C120.167 27.1799 123.882 30.8097 127.38 30.761C125.753 28.3142 124.89 25.2516 123.475 22.7075Z" fill="#472941"/>
<path d="M107.921 28.0065C107.27 27.6554 106.294 27.8066 105.79 27.8822C104.954 28.0639 104.165 28.4131 103.469 28.9085C103.49 29.1529 103.49 29.3987 103.469 29.6431C104.181 29.2379 104.951 28.9428 105.752 28.7681C106.39 28.6327 107.05 28.6327 107.688 28.7681C108.008 28.8275 108.219 28.1577 107.921 28.0065Z" fill="#583650"/>
<path d="M113.914 27.4881C114.457 27.0074 115.444 26.948 115.97 26.9102C117.204 26.9372 118.412 27.2655 119.489 27.8662C119.771 28.012 119.533 28.3577 119.224 28.2821C118.254 27.9423 117.236 27.7599 116.208 27.742C115.555 27.7486 114.91 27.8922 114.316 28.1633C114.023 28.2875 113.67 27.6772 113.914 27.4665V27.4881Z" fill="#583650"/>
<path d="M107.607 31.8468C107.607 32.5598 107.195 33.1378 106.685 33.1378C106.175 33.1378 105.752 32.5598 105.752 31.8468C105.752 31.1339 106.164 30.5559 106.679 30.5559C107.195 30.5559 107.607 31.1339 107.607 31.8468Z" fill="#583650"/>
<path d="M117.819 31.2582C117.819 31.9712 117.407 32.5492 116.897 32.5492C116.387 32.5492 115.97 31.9712 115.97 31.2582C115.97 30.5452 116.382 29.9673 116.897 29.9673C117.412 29.9673 117.819 30.5452 117.819 31.2582Z" fill="#583650"/>
<path d="M110.421 30.6532C110.688 31.5776 110.748 32.549 110.598 33.499C110.447 34.449 110.089 35.3546 109.548 36.1518C109.31 36.5353 109.006 36.8756 108.757 37.2321C108.7 37.2922 108.658 37.3645 108.634 37.4432C108.61 37.522 108.604 37.6052 108.617 37.6865C108.63 37.7678 108.662 37.845 108.709 37.9123C108.757 37.9796 108.82 38.0352 108.892 38.0747C109.648 38.5683 110.544 38.8069 111.446 38.7553C111.712 38.7553 111.718 38.3286 111.446 38.3448C111.02 38.3683 110.592 38.3264 110.177 38.2206C109.964 38.1629 109.756 38.0889 109.554 37.9991C109.424 37.9397 109.011 37.8046 109.011 37.621C109.011 37.4374 109.283 37.2483 109.364 37.1403C109.445 37.0322 109.608 36.8108 109.722 36.6379C109.96 36.2938 110.172 35.9327 110.356 35.5577C111.142 34.0206 111.305 32.2417 110.812 30.5884C110.725 30.3345 110.329 30.4425 110.411 30.6964L110.421 30.6532Z" fill="#F7886D"/>
<path opacity="0.63" d="M121.479 36.5513C121.479 37.664 120.243 38.5606 118.714 38.5606C117.184 38.5606 115.948 37.664 115.948 36.5513C115.948 35.4386 117.184 34.542 118.714 34.542C120.243 34.542 121.479 35.4386 121.479 36.5513Z" fill="#F97055"/>
<path opacity="0.63" d="M109.093 36.5513C109.093 37.664 108.008 38.5606 106.685 38.5606C105.362 38.5606 104.271 37.664 104.271 36.5513C104.271 35.4386 105.356 34.542 106.685 34.542C108.013 34.542 109.093 35.4386 109.093 36.5513Z" fill="#F97055"/>
<path d="M117.423 36.5515C114.863 36.5515 112.781 34.2505 112.781 31.4202C112.781 28.5898 114.863 26.2888 117.423 26.2888C119.983 26.2888 122.065 28.5898 122.065 31.4202C122.065 34.2505 119.983 36.5515 117.423 36.5515ZM117.423 27.1801C116.868 27.1729 116.317 27.2787 115.804 27.4909C115.291 27.7031 114.827 28.0172 114.44 28.4141C114.054 28.8109 113.752 29.2822 113.554 29.7991C113.357 30.316 113.267 30.8676 113.291 31.4202C113.27 31.9728 113.362 32.5239 113.561 33.0404C113.759 33.5569 114.06 34.0283 114.446 34.4264C114.831 34.8245 115.293 35.1411 115.804 35.3574C116.315 35.5736 116.865 35.6851 117.42 35.6851C117.976 35.6851 118.525 35.5736 119.036 35.3574C119.547 35.1411 120.009 34.8245 120.395 34.4264C120.78 34.0283 121.081 33.5569 121.28 33.0404C121.478 32.5239 121.57 31.9728 121.55 31.4202C121.574 30.8678 121.485 30.3163 121.288 29.7995C121.091 29.2826 120.79 28.8113 120.404 28.4143C120.018 28.0174 119.554 27.7032 119.041 27.4909C118.529 27.2787 117.978 27.1729 117.423 27.1801Z" fill="#FF7272"/>
<path d="M106.294 36.9778C103.919 36.9778 101.988 34.6768 101.988 31.8464C101.988 29.0161 103.919 26.7151 106.294 26.7151C108.67 26.7151 110.633 29.0323 110.633 31.8464C110.633 34.6606 108.67 36.9778 106.294 36.9778ZM106.294 27.6117C104.185 27.6117 102.466 29.3132 102.466 31.8464C102.466 34.3797 104.185 36.1189 106.294 36.1189C108.404 36.1189 110.123 34.3797 110.123 31.8464C110.123 29.3132 108.409 27.6117 106.294 27.6117Z" fill="#FF7272"/>
<path d="M126.285 30.2856H121.718V30.8258H126.285V30.2856Z" fill="#FF7272"/>
<path d="M110.411 31.2312L110.053 30.8747C110.214 30.6202 110.433 30.4067 110.691 30.2511C110.95 30.0955 111.241 30.0022 111.543 29.9786C111.844 29.955 112.146 30.0018 112.426 30.1151C112.706 30.2285 112.956 30.4054 113.155 30.6317L112.846 31.0422C112.688 30.8665 112.492 30.7293 112.273 30.6415C112.054 30.5537 111.817 30.5175 111.581 30.5358C111.345 30.5541 111.117 30.6264 110.914 30.747C110.711 30.8676 110.539 31.0333 110.411 31.2312Z" fill="#FF7272"/>
<path d="M111.322 36.5618C109.093 36.6212 106.951 36.6752 104.846 36.7454C103.257 36.6806 104.163 39.1706 104.456 40.1321C104.994 41.9669 105.964 43.6475 107.284 45.0349C108.605 46.4222 110.238 47.4763 112.048 48.11C112.657 48.2731 113.28 48.3745 113.909 48.4125C111.083 42.1468 111.067 38.3226 111.322 36.5618Z" fill="#EAE4E4"/>
<path d="M123.942 36.9458C123.291 35.9898 122.266 36.087 121.355 36.1194C117.477 36.2707 114.587 36.4813 111.322 36.5623C111.067 38.3232 111.083 42.1474 113.93 48.413C114.082 48.413 114.229 48.413 114.353 48.413C114.997 48.4296 115.64 48.3532 116.262 48.1862C118.482 47.6773 120.483 46.4829 121.98 44.7737C123.477 43.0645 124.393 40.9278 124.598 38.6689C124.529 38.0485 124.303 37.4557 123.942 36.9458Z" fill="#F7F2F2"/>
<path d="M120.552 36.6755C120.552 36.6755 123.416 32.4894 125.433 30.8906" stroke="#F7F2F2" stroke-miterlimit="10"/>
<path d="M126.583 33.5105C126.583 33.5105 124.733 38.2151 123.106 40.2407" stroke="#F7F2F2" stroke-miterlimit="10"/>
<path d="M124.055 33.3534C124.055 33.3534 124.598 29.1025 127.727 30.3827C130.856 31.6628 124.918 38.0635 124.055 35.5032C123.905 34.7945 123.905 34.0622 124.055 33.3534Z" fill="#FFA991"/>
<path d="M124.419 33.5432C124.419 33.5432 124.614 32.0416 125.715 32.4953C126.816 32.949 124.723 35.196 124.419 34.3048C124.366 34.0537 124.366 33.7943 124.419 33.5432Z" fill="#F7886D"/>
<path d="M135.081 111.847C135.081 111.847 139.517 120.9 145.309 152.833C146.247 158.008 150 190 150 190H124.191L120.482 178.911L119.712 189.995H94.3149C94.3149 189.995 92.1456 154.886 97.0265 131.984C97.0265 131.984 99.6676 119.857 98.789 112.49L135.081 111.847Z" fill="#FF7272"/>
<path d="M120.498 178.911L114.619 150.418C114.564 150.085 114.415 149.774 114.19 149.521C113.964 149.269 113.671 149.085 113.345 148.993C112.26 148.749 110.763 149.678 111.137 156.798C111.36 160.935 112.406 171.56 111.137 177.253C109.868 182.946 104.19 188.055 94.1846 187.483L94.3147 190H119.712L120.498 178.911Z" fill="#F45B5B"/>
<path d="M114.429 53.3389C115.785 51.8266 119.863 54.4193 125.568 52.1669C126.284 51.8806 126.968 51.3458 127.738 51.4755C128.282 51.6148 128.773 51.9118 129.148 52.3289C133.014 56.0235 135.542 61.4357 137.06 66.5562C139.037 73.1234 140.121 79.925 140.282 86.7791C140.401 92.3479 139.327 97.9708 140.282 103.453C141.236 108.936 144.197 114.164 143.427 119.657C142.885 123.363 140.715 126.841 141.084 130.563C141.126 130.773 141.113 130.991 141.046 131.195C140.889 131.535 140.455 131.627 140.086 131.676C126.333 133.507 112.358 135.057 98.6152 133.15C97.9489 133.134 97.3118 132.875 96.8255 132.421C96.2832 131.794 96.4405 130.876 96.4893 130.055C96.6628 127.246 95.4046 124.573 94.6779 121.845C93.2842 116.546 93.9675 110.967 94.1085 105.495C94.3308 96.8203 94.6508 90.3332 96.9557 81.9718C99.5913 72.4654 107.829 60.7011 114.429 53.3389Z" fill="#DA4756"/>
<path d="M130.726 64.5251C137.055 71.8116 138.617 84.0566 138.134 87.5892C137.535 91.9285 136.283 96.153 134.419 100.12C131.572 106.192 127.201 111.782 121.366 115.622C114.207 120.327 105.421 122.104 96.9015 123.773C96.5767 123.862 96.2338 123.862 95.9091 123.773C95.6978 123.659 95.5154 123.499 95.3754 123.304C95.2354 123.109 95.1416 122.886 95.101 122.65C93.1618 116.379 92.8613 109.72 94.2279 103.302" fill="#DA4756"/>
<path d="M139.859 127.548C137.055 127.176 134.257 127.656 131.518 128.251C128.779 128.845 126.095 129.439 123.383 129.779C114.9 130.834 106.29 130.098 98.1111 127.619C97.7803 127.516 97.5688 128.007 97.8888 128.105C103.114 129.704 108.531 130.599 113.996 130.768C116.696 130.85 119.399 130.756 122.087 130.487C124.824 130.194 127.54 129.738 130.222 129.12C133.362 128.418 136.578 127.673 139.81 128.099C140.152 128.148 140.244 127.613 139.897 127.559L139.859 127.548Z" fill="#CB0302"/>
<path d="M113.605 55.3912C114.614 55.7998 115.665 56.0951 116.74 56.2716C121.168 57.109 125.751 56.4434 129.755 54.3811C130.064 54.2245 129.793 53.7599 129.484 53.9166C124.957 56.2191 119.714 56.6987 114.841 55.2561C114.597 55.1859 114.348 55.1049 114.109 55.0131L113.887 54.9591C113.816 54.9591 113.822 54.9591 113.887 54.9591C113.567 54.824 113.296 55.2885 113.61 55.4236L113.605 55.3912Z" fill="#CB0302"/>
<path opacity="0.08" d="M3.87793 99.4239L48.7874 52.0806H69.466L41.6342 99.6184L3.87793 99.4239Z" fill="#F7886D"/>
<path d="M10.7757 55.305C11.3837 55.305 11.8766 54.8141 11.8766 54.2085C11.8766 53.603 11.3837 53.1121 10.7757 53.1121C10.1677 53.1121 9.6748 53.603 9.6748 54.2085C9.6748 54.8141 10.1677 55.305 10.7757 55.305Z" fill="#583650"/>
<path d="M11.0687 54.4999L11.7629 53.6627L13.6393 51.3941L16.4214 48.0506L19.8272 43.9456L23.5367 39.4678L27.2895 34.9738L30.7983 30.7445L33.7539 27.185L35.8798 24.6193C36.2161 24.2142 36.5577 23.8091 36.894 23.3986L36.9374 23.35C37.2736 22.9395 36.6879 22.3507 36.3462 22.7612L35.6521 23.5769L33.7756 25.8454L30.9935 29.1943L27.5878 33.294L23.862 37.7718L20.1092 42.2873L16.6004 46.522L13.661 50.0978L11.5351 52.658C11.1989 53.0631 10.8572 53.4682 10.521 53.8787L10.4776 53.9328C10.1414 54.3379 10.7271 54.9266 11.0687 54.5161V54.4999Z" fill="#583650"/>
<path d="M47.225 38.2147C47.7673 37.7448 45.7228 36.6645 46.0156 33.8504C46.1186 32.8835 46.3302 31.9383 46.5091 30.9876C46.8745 28.6766 47.0233 26.3367 46.9538 23.9982C46.9856 23.722 46.9204 23.4434 46.7694 23.2096C46.6142 23.0673 46.411 22.9882 46.2 22.9882C45.989 22.9882 45.7858 23.0673 45.6306 23.2096C45.3305 23.5059 45.1201 23.8802 45.0232 24.2899C44.7117 25.4019 44.5262 26.5451 44.47 27.6982C44.3514 28.1061 44.1683 28.4926 43.9277 28.8433C43.5372 29.2538 42.843 28.7893 42.5448 28.3031C41.3083 26.3424 40.2616 25.4242 38.8136 23.215C38.4146 22.5959 37.9471 22.0234 37.4198 21.5082C37.024 21.2057 36.384 20.6439 35.961 20.914C35.7645 21.1312 35.6617 21.4168 35.6749 21.7089C35.688 22.001 35.8162 22.2762 36.0315 22.475C35.5315 22.0614 35.077 21.5961 34.6757 21.0868C34.3015 20.6061 33.6453 20.066 33.0488 20.2496C32.5498 20.4063 32.539 20.8978 32.6203 21.4109C32.7429 21.919 32.9845 22.391 33.3253 22.7883C32.8644 22.6316 32.783 22.3886 32.36 22.475C31.7526 22.5992 31.7526 23.3986 31.9912 23.9658C32.5402 25.2828 33.2351 26.5347 34.0629 27.6982C32.1702 25.4566 31.6008 26.3586 31.5194 26.942C31.4381 27.5253 33.1464 29.7669 33.5151 30.2152C36.6931 33.953 39.6217 37.3991 43.2172 40.7318C44.623 40.0085 45.9638 39.1664 47.225 38.2147Z" fill="#FFA991"/>
<path d="M3.89171 52.7913H72.1083C73.7033 52.7913 75 54.0877 75 55.6916V95.6982C75 97.302 73.7033 98.5985 72.1083 98.5985H3.89171C2.29674 98.5985 1 97.302 1 95.6982V55.6916C1 54.0877 2.29674 52.7913 3.89171 52.7913Z" fill="#FFFDFD" stroke="#583650" stroke-width="2" stroke-miterlimit="10"/>
<path d="M16.472 67.823C17.952 67.823 18.64 67.087 18.64 66.231C18.64 64.175 15.248 65.031 15.248 63.663C15.248 63.175 15.656 62.775 16.608 62.775C17.104 62.775 17.656 62.919 18.144 63.231L18.408 62.591C17.944 62.271 17.264 62.095 16.608 62.095C15.136 62.095 14.464 62.831 14.464 63.695C14.464 65.775 17.856 64.911 17.856 66.279C17.856 66.767 17.44 67.143 16.472 67.143C15.752 67.143 15.04 66.871 14.624 66.495L14.328 67.119C14.776 67.535 15.616 67.823 16.472 67.823ZM21.5128 67.807C22.7848 67.807 23.7128 66.903 23.7128 65.639C23.7128 64.375 22.7848 63.479 21.5128 63.479C20.2408 63.479 19.3048 64.375 19.3048 65.639C19.3048 66.903 20.2408 67.807 21.5128 67.807ZM21.5128 67.135C20.6968 67.135 20.0808 66.543 20.0808 65.639C20.0808 64.735 20.6968 64.151 21.5128 64.151C22.3288 64.151 22.9368 64.735 22.9368 65.639C22.9368 66.543 22.3288 67.135 21.5128 67.135ZM25.5109 64.231V63.519H24.7749V67.759H25.5429V65.647C25.5429 64.719 26.0549 64.215 26.8789 64.215C26.9349 64.215 26.9909 64.215 27.0549 64.223V63.479C26.3109 63.479 25.7829 63.735 25.5109 64.231ZM28.7374 64.231V63.519H28.0014V67.759H28.7694V65.647C28.7694 64.719 29.2814 64.215 30.1054 64.215C30.1614 64.215 30.2174 64.215 30.2814 64.223V63.479C29.5374 63.479 29.0094 63.735 28.7374 64.231ZM34.3999 63.519L32.9359 66.911L31.4559 63.519H30.6559L32.5279 67.751L32.3919 68.047C32.1839 68.535 31.9519 68.703 31.5839 68.703C31.2959 68.703 31.0319 68.591 30.8239 68.391L30.4959 68.967C30.7599 69.223 31.1759 69.359 31.5839 69.359C32.2319 69.359 32.7199 69.079 33.0959 68.183L35.1519 63.519H34.3999ZM35.795 66.711C35.491 66.711 35.259 66.935 35.259 67.255C35.259 67.495 35.395 67.679 35.595 67.751L35.299 68.943H35.803L36.179 67.831C36.283 67.535 36.315 67.415 36.315 67.255C36.315 66.943 36.099 66.711 35.795 66.711ZM45.2919 63.519L44.0279 66.911L42.7719 63.519H42.1239L40.8439 66.895L39.6119 63.519H38.8839L40.4599 67.759H41.1959L42.4359 64.543L43.6599 67.759H44.3959L45.9799 63.519H45.2919ZM50.4741 65.663C50.4741 64.359 49.6021 63.479 48.3781 63.479C47.1541 63.479 46.2501 64.383 46.2501 65.639C46.2501 66.903 47.1621 67.807 48.5301 67.807C49.2341 67.807 49.8181 67.567 50.2021 67.119L49.7781 66.623C49.4661 66.967 49.0501 67.135 48.5541 67.135C47.7141 67.135 47.1141 66.639 47.0181 65.895H50.4581C50.4661 65.823 50.4741 65.727 50.4741 65.663ZM48.3781 64.127C49.1221 64.127 49.6581 64.631 49.7381 65.343H47.0181C47.0981 64.623 47.6421 64.127 48.3781 64.127ZM51.7169 61.775C51.4129 61.775 51.1809 61.999 51.1809 62.319C51.1809 62.559 51.3169 62.743 51.5169 62.815L51.2209 64.007H51.7249L52.1089 62.887C52.2129 62.591 52.2369 62.471 52.2369 62.319C52.2369 62.007 52.0209 61.775 51.7169 61.775ZM54.0734 64.231V63.519H53.3374V67.759H54.1054V65.647C54.1054 64.719 54.6174 64.215 55.4414 64.215C55.4974 64.215 55.5534 64.215 55.6174 64.223V63.479C54.8734 63.479 54.3454 63.735 54.0734 64.231ZM60.3569 65.663C60.3569 64.359 59.4849 63.479 58.2609 63.479C57.0369 63.479 56.1329 64.383 56.1329 65.639C56.1329 66.903 57.0449 67.807 58.4129 67.807C59.1169 67.807 59.7009 67.567 60.0849 67.119L59.6609 66.623C59.3489 66.967 58.9329 67.135 58.4369 67.135C57.5969 67.135 56.9969 66.639 56.9009 65.895H60.3409C60.3489 65.823 60.3569 65.727 60.3569 65.663ZM58.2609 64.127C59.0049 64.127 59.5409 64.631 59.6209 65.343H56.9009C56.9809 64.623 57.5249 64.127 58.2609 64.127Z" fill="black"/>
<path d="M12.852 88.8667C14.56 88.8667 15.974 88.2507 16.898 87.1167L15.442 85.7727C14.784 86.5427 13.958 86.9347 12.978 86.9347C11.144 86.9347 9.842 85.6467 9.842 83.7987C9.842 81.9507 11.144 80.6627 12.978 80.6627C13.958 80.6627 14.784 81.0547 15.442 81.8107L16.898 80.4667C15.974 79.3467 14.56 78.7307 12.866 78.7307C9.814 78.7307 7.546 80.8447 7.546 83.7987C7.546 86.7527 9.814 88.8667 12.852 88.8667ZM18.4296 88.6987H25.6116V86.8507H20.6976V78.8987H18.4296V88.6987ZM31.4607 88.8667C34.5407 88.8667 36.8227 86.7247 36.8227 83.7987C36.8227 80.8727 34.5407 78.7307 31.4607 78.7307C28.3667 78.7307 26.0987 80.8867 26.0987 83.7987C26.0987 86.7107 28.3667 88.8667 31.4607 88.8667ZM31.4607 86.9347C29.7107 86.9347 28.3947 85.6607 28.3947 83.7987C28.3947 81.9367 29.7107 80.6627 31.4607 80.6627C33.2107 80.6627 34.5267 81.9367 34.5267 83.7987C34.5267 85.6607 33.2107 86.9347 31.4607 86.9347ZM41.7472 88.8667C44.5472 88.8667 45.9052 87.4667 45.9052 85.8287C45.9052 82.2307 40.2072 83.4767 40.2072 81.6707C40.2072 81.0547 40.7252 80.5507 42.0692 80.5507C42.9372 80.5507 43.8752 80.8027 44.7852 81.3207L45.4852 79.5987C44.5752 79.0247 43.3152 78.7307 42.0832 78.7307C39.2972 78.7307 37.9532 80.1167 37.9532 81.7827C37.9532 85.4227 43.6512 84.1627 43.6512 85.9967C43.6512 86.5987 43.1052 87.0467 41.7612 87.0467C40.5852 87.0467 39.3532 86.6267 38.5272 86.0247L37.7572 87.7327C38.6252 88.4047 40.1932 88.8667 41.7472 88.8667ZM49.709 86.8787V84.6107H54.259V82.8467H49.709V80.7187H54.861V78.8987H47.455V88.6987H55.043V86.8787H49.709ZM56.8475 88.6987H61.2995C64.5055 88.6987 66.7035 86.7667 66.7035 83.7987C66.7035 80.8307 64.5055 78.8987 61.2995 78.8987H56.8475V88.6987ZM59.1155 86.8367V80.7607H61.1875C63.1335 80.7607 64.4075 81.9227 64.4075 83.7987C64.4075 85.6747 63.1335 86.8367 61.1875 86.8367H59.1155Z" fill="black"/>
<g opacity="0.59">
<path opacity="0.59" d="M34.1664 28.066C34.9799 29.0112 35.5276 29.6864 36.3357 30.6479L36.6882 31.0584C36.8292 31.2204 37.1112 31.0584 36.9648 30.8693C36.1567 29.9241 35.3378 29.1787 34.546 28.2334C34.4267 28.0984 34.2532 27.9202 34.1393 27.7797C34.0254 27.6393 33.9278 27.6825 34.1393 28.066H34.1664Z" fill="#F7886D"/>
</g>
<g opacity="0.59">
<path opacity="0.59" d="M33.7104 23.5663C35.0934 25.3649 36.037 26.6613 37.4145 28.4275L38.011 29.2053C38.2551 29.524 38.6618 29.3674 38.4178 29.0487C37.0403 27.2554 35.7062 25.7646 34.3233 23.966C34.128 23.7067 33.8406 23.361 33.6399 23.1017C33.4393 22.8425 33.3037 22.8587 33.7104 23.5393V23.5663Z" fill="#F7886D"/>
</g>
<g opacity="0.59">
<path opacity="0.59" d="M36.1348 22.9938C37.149 24.5386 37.8323 25.6567 38.8464 27.1961L39.2857 27.8658C39.4647 28.1359 39.866 27.9739 39.687 27.6984C38.6729 26.159 37.6587 24.8843 36.6446 23.3449C36.5036 23.1234 36.2867 22.8047 36.1402 22.5995C35.9938 22.3942 35.8637 22.3996 36.1402 22.9938H36.1348Z" fill="#F7886D"/>
</g>
<path d="M46.7967 23.2261C46.7967 23.2261 45.571 24.1281 46.9269 25.0572C46.9269 25.0572 47.0407 23.5934 46.7967 23.2261Z" fill="#F7886D"/>
<path d="M65.6639 55.305C66.2719 55.305 66.7648 54.8141 66.7648 54.2085C66.7648 53.603 66.2719 53.1121 65.6639 53.1121C65.0559 53.1121 64.563 53.603 64.563 54.2085C64.563 54.8141 65.0559 55.305 65.6639 55.305Z" fill="#583650"/>
<path d="M65.957 53.9173L65.1652 53.0638L62.996 50.7412L59.8234 47.3059L55.9458 43.1199L51.6994 38.5287L47.4314 33.8942L43.4345 29.5731L40.0559 25.9218L37.6263 23.2967C37.2466 22.8808 36.8724 22.4541 36.4765 22.0544L36.4277 22.0003C36.0644 21.606 35.4787 22.1948 35.842 22.5837L36.6284 23.4371L38.7977 25.7597L41.9757 29.195L45.8532 33.3811L50.0996 37.9723L54.3839 42.6067L58.3862 46.9278L61.7595 50.5792L64.1891 53.2043C64.5741 53.6148 64.9483 54.0415 65.3442 54.4466L65.393 54.5006C65.7564 54.8949 66.3421 54.3062 65.9787 53.9173H65.957Z" fill="#583650"/>
<path d="M52.8325 105.133C51.8054 105.01 50.8172 104.667 49.9355 104.128C49.0538 103.589 48.2993 102.867 47.7239 102.011C47.2253 101.178 46.7814 100.314 46.3952 99.4237C45.2982 97.356 44.011 95.3941 42.5501 93.5632C42.4156 93.3153 42.1962 93.1236 41.9319 93.0231C41.722 92.9962 41.5098 93.0507 41.3392 93.1754C41.1686 93.3001 41.0526 93.4854 41.0154 93.6928C40.9638 94.1157 41.0333 94.5446 41.216 94.9298C41.6573 96.2073 42.2184 97.4407 42.8918 98.6135C43.0163 98.785 43.0845 98.9907 43.087 99.2023C43.0165 99.7424 42.1976 99.7694 41.6553 99.602C39.2966 98.8879 36.9776 98.0495 34.7082 97.0903C34.2612 96.86 33.7727 96.7204 33.2711 96.6798C33.0202 96.6641 32.7703 96.723 32.553 96.849C32.3358 96.9749 32.161 97.1623 32.0509 97.3874C31.8773 97.8573 32.3166 98.7269 32.8155 98.6621C32.191 98.6207 31.5727 98.512 30.9716 98.338C30.3859 98.176 29.6321 98.1328 29.2796 98.6297C29.1515 98.8569 29.1059 99.121 29.1503 99.3777C29.1948 99.6345 29.3266 99.8682 29.5236 100.039C29.9279 100.365 30.4036 100.591 30.912 100.698C30.544 100.758 30.2043 100.932 29.9412 101.195C29.5345 101.66 29.8924 102.4 30.4239 102.713C31.7073 103.449 33.0676 104.043 34.4804 104.485C31.617 103.82 31.6875 104.814 31.9695 105.333C32.2515 105.851 34.5238 106.608 35.0987 106.737C40.8823 108.06 46.7548 108.963 52.6698 109.438" fill="#FFA991"/>
<g opacity="0.59">
<path opacity="0.59" d="M34.8331 104.722C36.0479 104.998 36.9048 105.219 38.125 105.495L38.6673 105.614C38.8842 105.662 38.9927 105.344 38.7812 105.295C37.561 105.025 36.4709 104.901 35.2561 104.631L34.6596 104.512C34.4426 104.463 34.4318 104.555 34.8494 104.722H34.8331Z" fill="#F7886D"/>
</g>
<g opacity="0.59">
<path opacity="0.59" d="M31.5197 101.06C33.6889 101.676 35.24 102.141 37.4201 102.767L38.3691 103.037C38.7542 103.145 38.9874 102.778 38.6023 102.67C36.4331 102.049 34.4482 101.655 32.2681 101.05C31.9535 100.958 31.5088 100.85 31.1834 100.763C30.858 100.677 30.7713 100.763 31.5088 101.071L31.5197 101.06Z" fill="#F7886D"/>
</g>
<g opacity="0.59">
<path opacity="0.59" d="M33.1466 99.0298C35.1423 99.6617 36.5415 100.148 38.5372 100.78L39.3995 101.05C39.752 101.163 39.9798 100.785 39.6273 100.677C37.6316 100.045 35.8311 99.6401 33.8408 99.0082C33.5533 98.9163 33.1466 98.8083 32.8592 98.7165C32.5717 98.6247 32.4795 98.7165 33.1466 99.0298Z" fill="#F7886D"/>
</g>
<path d="M29.9145 99.9042L29.4914 99.8124C29.4076 99.7939 29.3283 99.759 29.258 99.7098C29.1878 99.6607 29.128 99.5981 29.0821 99.5258C29.0362 99.4535 29.0052 99.3729 28.9907 99.2886C28.9763 99.2043 28.9787 99.118 28.9979 99.0346C29.0368 98.8678 29.1398 98.7229 29.2848 98.631C29.4299 98.5391 29.6053 98.5075 29.7735 98.5431L30.1965 98.6349C30.3643 98.6748 30.5099 98.7785 30.6021 98.9238C30.6943 99.0691 30.7258 99.2445 30.69 99.4127C30.6511 99.5794 30.5481 99.7244 30.4031 99.8163C30.258 99.9082 30.0826 99.9398 29.9145 99.9042Z" fill="#F7886D"/>
<path d="M32.8537 98.2677L32.4307 98.1705C32.2632 98.1318 32.1177 98.0292 32.0254 97.8847C31.9332 97.7403 31.9015 97.5656 31.9372 97.3981C31.9557 97.3146 31.9907 97.2356 32.0401 97.1656C32.0895 97.0956 32.1523 97.0361 32.2249 96.9904C32.2975 96.9447 32.3784 96.9138 32.4631 96.8994C32.5477 96.885 32.6344 96.8874 32.7181 96.9066L33.1411 96.9984C33.3086 97.0371 33.4541 97.1397 33.5464 97.2841C33.6386 97.4286 33.6703 97.6033 33.6346 97.7708C33.5957 97.939 33.4921 98.0853 33.3461 98.1782C33.2001 98.2711 33.0233 98.3032 32.8537 98.2677Z" fill="#F7886D"/>
<path d="M30.6087 102.345L30.1857 102.248C30.1021 102.23 30.0228 102.196 29.9526 102.147C29.8824 102.099 29.8226 102.037 29.7767 101.965C29.7308 101.893 29.6996 101.813 29.6851 101.729C29.6706 101.645 29.673 101.559 29.6922 101.476C29.7101 101.393 29.7445 101.314 29.7934 101.244C29.8422 101.174 29.9045 101.114 29.9767 101.069C30.0488 101.023 30.1294 100.992 30.2137 100.977C30.298 100.963 30.3843 100.965 30.4677 100.984L30.8907 101.076C30.9743 101.094 31.0535 101.128 31.1238 101.177C31.194 101.226 31.2538 101.288 31.2997 101.36C31.3456 101.431 31.3767 101.512 31.3912 101.596C31.4058 101.68 31.4034 101.766 31.3842 101.849C31.3465 102.016 31.244 102.163 31.0989 102.256C30.9537 102.349 30.7776 102.381 30.6087 102.345Z" fill="#F7886D"/>
<path d="M32.4955 105.43L32.3165 105.387C32.2524 105.373 32.1916 105.346 32.1378 105.309C32.084 105.271 32.0381 105.223 32.0028 105.168C31.9675 105.113 31.9436 105.051 31.9322 104.987C31.9209 104.922 31.9225 104.856 31.9369 104.792C31.9667 104.664 32.0459 104.553 32.1575 104.482C32.2691 104.411 32.4041 104.387 32.5335 104.414L32.7124 104.452C32.8417 104.483 32.9538 104.563 33.0247 104.675C33.0956 104.787 33.1198 104.922 33.0921 105.052C33.0623 105.18 32.983 105.292 32.8714 105.362C32.7599 105.433 32.6249 105.457 32.4955 105.43Z" fill="#F7886D"/>
<path d="M42.1055 93.1045C42.1055 93.1045 41.6282 94.9842 43.5318 94.8599C43.5318 94.8599 42.5936 93.3097 42.1055 93.1045Z" fill="#F7886D"/>
<path d="M125.297 60.1826C116.132 59.0753 103.675 80.7457 91.4025 89.0044C87.5249 91.6133 83.105 93.2878 78.6851 94.7947C70.4853 97.5765 62.1227 99.8451 53.8252 102.319C52.9033 102.594 51.298 102.751 50.5713 103.399C49.6819 104.193 49.8609 105.5 49.606 106.64C48.8251 110.189 48.4292 110.227 49.1776 111.021C49.8939 111.673 50.7013 112.219 51.5746 112.641C62.9633 118.167 75.5939 121.283 88.2408 120.857C100.888 120.43 113.507 116.287 123.448 108.487C128.974 104.166 135.477 96.5178 137.744 89.8903C141.638 78.5473 132.207 61.6085 125.297 60.1826Z" fill="#EB5262"/>
<path d="M86.4346 100.094C88.989 101.639 91.2342 102.973 93.7993 100.828C96.0608 98.9325 97.3569 96.167 99.6184 94.2765C100.716 93.317 102.064 92.6877 103.507 92.4616C105.351 92.1969 106.614 92.5804 108.035 91.0356C109.874 89.0425 109.765 86.2932 109.738 83.7599C109.617 80.6958 109.908 77.6292 110.606 74.6423C111.219 72.2873 112.059 70.0133 112.721 67.6799C106.034 74.4749 98.7019 84.1272 91.4023 88.9885C87.5247 91.5974 83.1048 93.2718 78.6849 94.7788L76.2119 95.5944C79.8263 96.5765 83.2722 98.0932 86.4346 100.094Z" fill="#FF98A0"/>
<path d="M52.2853 112.36C52.582 111.811 52.8289 111.236 53.0228 110.643C53.5107 109.24 53.8027 107.777 53.8905 106.294C53.95 105.21 53.8863 104.123 53.7007 103.054C53.6411 102.713 53.1042 102.74 53.1584 103.086C53.6425 105.956 53.2652 108.904 52.0738 111.561C51.9928 111.745 51.9023 111.926 51.8026 112.101C51.6345 112.403 52.1172 112.641 52.2853 112.339V112.36Z" fill="#DA1039"/>
</svg>
