<svg width="25" height="25" viewBox="0 0 25 25" fill="none" xmlns="http://www.w3.org/2000/svg">
<path d="M13.2812 25C12.7604 25 12.2396 25 11.7188 25C11.6667 24.987 11.6081 24.9674 11.556 24.9609C10.9831 24.8763 10.4102 24.8242 9.84375 24.707C5 23.737 0.983073 19.5703 0.195312 14.7005C0.117187 14.2318 0.0651042 13.75 0 13.2812C0 12.7604 0 12.2396 0 11.7188C0.0130208 11.6471 0.0325521 11.5755 0.0390625 11.5039C0.123698 10.9245 0.175781 10.3385 0.299479 9.77214C1.32161 4.92839 5.4362 0.996094 10.319 0.195312C10.7812 0.117187 11.25 0.0651042 11.7188 0C12.2396 0 12.7604 0 13.2812 0C13.3464 0.0130208 13.4049 0.0325521 13.4701 0.0390625C14.1146 0.136719 14.7591 0.195313 15.3906 0.345052C20.2018 1.44531 23.9909 5.47526 24.8112 10.3451C24.8893 10.8008 24.9414 11.263 25 11.7188C25 12.2396 25 12.7604 25 13.2812C24.987 13.3464 24.9674 13.4049 24.9609 13.4701C24.8763 14.0495 24.8242 14.6354 24.707 15.2018C23.7044 20.0521 19.5638 24.0104 14.681 24.8047C14.2122 24.8828 13.75 24.9349 13.2812 25ZM8.09245 17.3828C6.97917 18.3724 5.8724 19.349 4.73307 20.3581C7.55208 22.9753 10.8464 24.069 14.6029 23.3138C18.8932 22.4479 21.7708 19.8242 23.0599 15.6445C24.1536 12.0833 23.444 8.76302 21.2435 5.73568C20 6.83594 18.7891 7.91667 17.5716 8.98438C17.4414 9.09505 17.3958 9.21224 17.3958 9.38151C17.4023 11.4453 17.4023 13.5156 17.3958 15.5794C17.3958 15.8008 17.3958 16.0221 17.3503 16.237C17.0768 17.6823 15.9049 18.6523 14.4401 18.6523C14.043 18.6523 13.6458 18.6523 13.2227 18.6523C13.2227 19.4792 13.2227 20.2799 13.2227 21.0807C12.7279 21.0807 12.2591 21.0807 11.7643 21.0807C11.7643 20.2669 11.7643 19.4661 11.7643 18.6523C11.3151 18.6523 10.8919 18.6589 10.4688 18.6523C9.57031 18.6263 8.83463 18.2682 8.25521 17.5846C8.20964 17.5195 8.15755 17.4544 8.09245 17.3828ZM20.2344 4.66797C16.5495 0.839844 9.73307 0.0976562 5.07812 4.33594C0.3125 8.6849 0.657552 15.4492 3.78906 19.2318C3.82161 19.2057 3.85417 19.1797 3.88021 19.1536C5.07812 18.0924 6.28255 17.0312 7.47396 15.9635C7.55208 15.8919 7.59766 15.7422 7.59766 15.625C7.60417 13.125 7.60417 10.6315 7.59766 8.13151C7.59766 8.02734 7.59766 7.92969 7.59766 7.80599C8.3724 7.80599 9.10807 7.80599 9.85677 7.80599C9.85026 7.75391 9.85026 7.72135 9.84375 7.6888C9.53125 6.52995 9.81771 5.54036 10.6641 4.70052C11.1393 4.23177 11.6081 3.75651 12.0768 3.28776C12.2135 3.15104 12.3437 3.00781 12.4284 2.91016C13.1771 3.63281 13.9193 4.29036 14.5964 5.01302C15.1628 5.625 15.3516 6.39974 15.2409 7.23307C15.2148 7.42187 15.1758 7.60417 15.1367 7.80599C15.599 7.80599 16.0417 7.81901 16.4779 7.79948C16.6016 7.79297 16.7448 7.74088 16.8424 7.66276C17.6042 7.00521 18.3594 6.32812 19.1081 5.65755C19.4857 5.33203 19.8633 5 20.2344 4.66797ZM11.7643 17.181C11.7643 16.6146 11.7643 16.0807 11.7643 15.5469C11.7643 15.4427 11.7708 15.332 11.7578 15.2279C11.7057 14.6484 11.3086 14.0951 10.7422 13.9974C10.2018 13.8997 9.63542 13.9193 9.06901 13.8932C9.06901 14.5703 9.05599 15.1888 9.06901 15.8073C9.08854 16.5299 9.64844 17.1289 10.3711 17.181C10.8268 17.207 11.2826 17.181 11.7643 17.181ZM13.2357 17.1875C13.6589 17.1875 14.056 17.1875 14.4531 17.1875C15.293 17.181 15.9115 16.5755 15.9245 15.7292C15.931 15.1953 15.9245 14.6549 15.9245 14.1211C15.9245 14.0625 15.9115 13.9974 15.9049 13.9258C15.4362 13.9258 14.9805 13.8997 14.5312 13.9323C13.8477 13.9844 13.2812 14.5378 13.2422 15.2148C13.2096 15.8594 13.2357 16.5039 13.2357 17.1875ZM9.07552 9.31641C9.07552 9.88932 9.0625 10.4753 9.07552 11.0612C9.08854 11.7643 9.59635 12.3568 10.293 12.4349C10.7747 12.487 11.263 12.4479 11.7578 12.4479C11.7578 11.8034 11.7904 11.1654 11.7513 10.5339C11.7122 9.92838 11.25 9.40755 10.6445 9.33594C10.1367 9.26432 9.60937 9.31641 9.07552 9.31641ZM15.918 9.27734C15.4818 9.27734 15.0651 9.27083 14.6549 9.27734C13.9518 9.28385 13.3398 9.74609 13.2682 10.4427C13.2031 11.1003 13.2552 11.7708 13.2552 12.4414C13.724 12.4414 14.1862 12.4674 14.6484 12.4349C15.293 12.3893 15.8724 11.8424 15.9115 11.2109C15.944 10.5794 15.918 9.94792 15.918 9.27734ZM12.5 9.04948C12.8841 8.54167 13.2682 8.06641 13.6133 7.57161C13.8151 7.28516 13.8542 6.9401 13.7826 6.58854C13.6263 5.82682 12.9492 5.49479 12.5195 4.95443C12.1745 5.29297 11.8359 5.59245 11.5365 5.92448C11.2305 6.26302 11.1328 6.67318 11.2109 7.12891C11.276 7.5 11.5169 7.76693 11.7318 8.04688C11.9857 8.3724 12.2331 8.69792 12.5 9.04948Z" fill="#52420B"/>
</svg>
