<svg width="25" height="25" viewBox="0 0 25 25" fill="none" xmlns="http://www.w3.org/2000/svg">
<path d="M12.6379 0C12.8401 0.165441 13.0515 0.3125 13.2353 0.487132C14.1728 1.41544 15.1011 2.34375 16.0294 3.28125C16.1489 3.40074 16.2684 3.44669 16.4338 3.44669C17.8125 3.4375 19.1912 3.44669 20.579 3.44669C21.2316 3.44669 21.489 3.70404 21.489 4.36581C21.489 5.73529 21.489 7.11397 21.489 8.48346C21.489 8.65809 21.5349 8.78677 21.6636 8.90625C22.6471 9.88052 23.6213 10.8548 24.5956 11.829C25.0551 12.2886 25.0551 12.6654 24.5956 13.125C23.6213 14.0993 22.6562 15.0643 21.682 16.0386C21.5533 16.1673 21.489 16.296 21.4982 16.4798C21.5074 17.8493 21.5074 19.2279 21.4982 20.5974C21.4982 21.2592 21.2408 21.5074 20.5882 21.5074C19.2188 21.5074 17.8401 21.5074 16.4706 21.5074C16.2868 21.5074 16.1581 21.5625 16.0294 21.6912C15.0551 22.6746 14.0809 23.6489 13.1066 24.6232C12.6654 25.0643 12.2794 25.0643 11.8474 24.6232C10.864 23.6397 9.88052 22.6654 8.90625 21.6728C8.77757 21.5441 8.65809 21.4982 8.48346 21.4982C7.12316 21.5074 5.75368 21.4982 4.39338 21.4982C3.69485 21.4982 3.44669 21.25 3.44669 20.5699C3.44669 19.2004 3.44669 17.8217 3.44669 16.4522C3.44669 16.2868 3.40073 16.1673 3.28125 16.0478C2.31618 15.0919 1.3511 14.1268 0.386029 13.1526C0.238971 13.0055 0.128676 12.8309 0 12.6654C0 12.5368 0 12.4081 0 12.2794C0.15625 12.0864 0.294118 11.875 0.46875 11.7004C1.39706 10.7629 2.33456 9.82537 3.27206 8.89706C3.39154 8.77757 3.4375 8.65809 3.4375 8.49265C3.42831 7.11397 3.4375 5.73529 3.4375 4.35662C3.4375 3.69485 3.69485 3.44669 4.34743 3.44669C5.7261 3.44669 7.10478 3.44669 8.48346 3.44669C8.6489 3.44669 8.76838 3.40074 8.88787 3.28125C9.81618 2.34375 10.7445 1.41544 11.682 0.496324C11.8658 0.321691 12.0772 0.174632 12.2794 0.00919118C12.3713 0 12.5 0 12.6379 0ZM23.171 12.4449C23.079 12.3713 22.9963 12.3254 22.932 12.261C22.0772 11.4062 21.2224 10.5423 20.3585 9.69669C20.1011 9.44853 19.9908 9.1636 19.9908 8.80515C20 7.6011 19.9908 6.40625 19.9908 5.20221C19.9908 5.11029 19.9908 5.01838 19.9908 4.8989C19.8713 4.8989 19.7794 4.8989 19.6875 4.8989C18.4835 4.8989 17.2886 4.88971 16.0846 4.8989C15.7261 4.8989 15.4504 4.79779 15.193 4.54044C14.3382 3.66728 13.4743 2.8125 12.6195 1.94853C12.5551 1.88419 12.5368 1.79228 12.4908 1.70956C12.3254 1.82904 12.2794 1.90257 12.2151 1.96691C11.3603 2.82169 10.4963 3.67647 9.65073 4.54044C9.40257 4.79779 9.11765 4.90809 8.75919 4.90809C7.55515 4.8989 6.36029 4.90809 5.15625 4.90809C5.06434 4.90809 4.97243 4.90809 4.85294 4.90809C4.85294 5.02757 4.85294 5.11949 4.85294 5.2114C4.85294 6.41544 4.84375 7.61029 4.85294 8.81434C4.85294 9.17279 4.75184 9.44853 4.49448 9.70588C3.62132 10.5607 2.76654 11.4246 1.90257 12.2794C1.83824 12.3438 1.74632 12.3621 1.6636 12.4081C1.68199 12.4449 1.69118 12.4816 1.70956 12.5276C1.78309 12.5827 1.85662 12.6287 1.92096 12.693C2.78493 13.557 3.63971 14.421 4.51287 15.2757C4.76103 15.5147 4.86213 15.7812 4.86213 16.1213C4.85294 17.3346 4.86213 18.5386 4.86213 19.7518C4.86213 19.8438 4.86213 19.9357 4.86213 20.0551C4.98162 20.0551 5.07353 20.0551 5.16544 20.0551C6.36948 20.0551 7.56434 20.0643 8.76838 20.0551C9.12684 20.0551 9.40257 20.1562 9.65993 20.4136C10.5147 21.2868 11.3787 22.1415 12.2335 23.0055C12.2978 23.0699 12.3162 23.1618 12.3621 23.2445C12.5276 23.125 12.5735 23.0515 12.6379 22.9871C13.4926 22.1324 14.3566 21.2776 15.2022 20.4136C15.4504 20.1562 15.7353 20.046 16.0938 20.046C17.2978 20.0551 18.4926 20.046 19.6967 20.046C19.7886 20.046 19.8805 20.046 20 20.046C20 19.9265 20 19.8346 20 19.7426C20 18.5386 20.0092 17.3438 20 16.1397C20 15.7812 20.1011 15.4963 20.3585 15.2482C20.7996 14.8346 21.2132 14.4026 21.636 13.9798C22.1324 13.4835 22.6287 12.9871 23.171 12.4449Z" fill="#38673C"/>
<path d="M10.5974 12.5644C10.7996 12.4173 10.9743 12.2702 11.1765 12.1508C11.5165 11.9394 11.8566 11.7464 12.2059 11.5533C12.3437 11.4798 12.3713 11.3879 12.3345 11.2408C12.1967 10.6526 11.9485 10.1287 11.6268 9.65996C11.5257 9.65996 11.443 9.68753 11.3879 9.65996C11.0937 9.48532 10.8731 9.21878 10.8915 8.87871C10.9191 8.43753 11.0294 7.99635 11.1489 7.55518C12.2243 8.40076 12.6838 9.54047 12.8952 10.818C12.9136 10.818 12.9412 10.8272 12.9595 10.8272C13.0974 10.5699 13.2445 10.3125 13.3731 10.046C13.6029 9.54047 13.7776 8.99819 14.0533 8.52025C14.2371 8.18937 14.5496 7.94121 14.8162 7.65628C14.8529 7.61951 14.9081 7.61032 15.0276 7.55518C15 7.82172 14.9724 8.04231 14.9448 8.25371C14.8162 9.20959 14.5956 10.1563 14.6323 11.1305C14.6415 11.443 14.7334 11.5809 15.0276 11.6728C15.6617 11.8658 16.3051 11.8107 16.9761 11.682C16.7279 11.489 16.489 11.2868 16.2316 11.1214C16.011 10.9835 15.8456 11.0478 15.625 11.2592C15.5698 11.3144 15.432 11.3879 15.3952 11.3603C15.3217 11.3052 15.2481 11.1949 15.2481 11.1122C15.2206 10.6434 15.8915 9.97246 16.3603 10C16.4706 10.0092 16.5809 10.0552 16.6728 10.1195C16.8934 10.2758 17.114 10.4504 17.3254 10.6342C17.8492 11.0846 18.2996 11.6544 19.0717 11.7188C19.0809 11.7464 19.0901 11.7647 19.1084 11.7923C18.9798 11.9394 18.8695 12.1048 18.7224 12.2151C18.2996 12.5276 17.7941 12.6563 17.2978 12.7298C16.636 12.8125 15.9742 12.8677 15.3125 12.8769C14.568 12.8952 14.0257 12.3989 13.9798 11.6452C13.9614 11.2868 14.0165 10.9191 14.0441 10.5515C14.0441 10.5055 14.0533 10.4596 14.0257 10.3952C13.9246 10.5975 13.8327 10.7997 13.7224 10.9927C13.3731 11.6544 12.9779 12.2886 12.3989 12.785C11.7831 13.2721 11.1121 13.2169 10.5974 12.5644Z" fill="#38673C"/>
<path d="M10.147 7.12305C10.3217 7.57341 10.4871 7.95944 10.6342 8.34547C10.6434 8.38224 10.625 8.45577 10.5974 8.46496C10.2757 8.64878 10.2389 8.98886 10.2114 9.28297C10.1195 10.1469 10.0459 11.0109 10.0184 11.8749C9.99997 12.5458 9.71505 13.0054 9.1452 13.3087C8.52939 13.6304 7.86762 13.7591 7.16909 13.6304C6.62681 13.5293 6.35108 13.1708 6.39703 12.6286C6.45218 12.0036 6.75549 11.4705 7.15071 11.0017C7.18747 10.9558 7.261 10.9282 7.31615 10.8914C7.33453 10.9006 7.35292 10.919 7.3713 10.9282C7.35292 10.9925 7.34373 11.0569 7.31615 11.1212C7.08637 11.6819 7.10475 12.0403 7.40806 12.3161C7.73895 12.6102 8.36395 12.6653 8.80512 12.4264C9.12681 12.2517 9.32902 11.976 9.35659 11.6175C9.43931 10.7628 9.53122 9.90797 9.5588 9.044C9.56799 8.68555 9.4485 8.30871 9.36578 7.95025C9.32902 7.81239 9.32902 7.72047 9.4485 7.63775C9.6599 7.4815 9.88049 7.32525 10.147 7.12305Z" fill="#38673C"/>
<path d="M9.34731 14.2925C9.52194 14.2925 9.65981 14.2925 9.80687 14.2925C9.80687 15.0553 9.80687 15.7998 9.80687 16.5627C9.65981 16.5627 9.52194 16.5627 9.3565 16.5627C9.3565 16.2594 9.3565 15.9561 9.3565 15.6252C9.11753 15.6252 8.91533 15.6252 8.68555 15.6252C8.68555 15.9285 8.68555 16.2318 8.68555 16.5535C8.52011 16.5535 8.37305 16.5535 8.2168 16.5535C8.2168 15.809 8.2168 15.0553 8.2168 14.2925C8.35466 14.2925 8.51091 14.2925 8.67636 14.2925C8.67636 14.5866 8.67636 14.8807 8.67636 15.184C8.90613 15.184 9.10834 15.184 9.33812 15.184C9.34731 14.8899 9.34731 14.5958 9.34731 14.2925Z" fill="#38673C"/>
<path d="M15.2574 16.5534C14.7978 16.6177 14.7978 16.6177 14.6324 16.1214C14.1269 16.0203 14.1177 16.0295 13.9614 16.5718C13.8052 16.5718 13.6489 16.5718 13.4651 16.5718C13.6489 15.8365 13.8235 15.1104 14.0166 14.3843C14.0257 14.3383 14.1085 14.2923 14.1544 14.2923C14.6599 14.228 14.6875 14.2464 14.807 14.7335C14.9541 15.3218 15.1103 15.9376 15.2574 16.5534ZM14.182 15.6434C14.3199 15.6434 14.421 15.6434 14.5496 15.6434C14.4853 15.3861 14.4394 15.1471 14.3842 14.9082C14.375 14.9082 14.3566 14.9082 14.3474 14.9082C14.2923 15.1563 14.2371 15.3861 14.182 15.6434Z" fill="#38673C"/>
<path d="M11.3328 16.5627C11.2961 16.4064 11.2593 16.2502 11.2133 16.094C11.0295 16.094 10.8549 16.094 10.6711 16.094C10.6159 16.2502 10.6067 16.4524 10.4964 16.5443C10.4137 16.6178 10.2023 16.5627 10.0369 16.5627C10.2299 15.7998 10.4137 15.0553 10.6067 14.2925C10.8273 14.2925 11.0387 14.2925 11.2777 14.2925C11.4615 15.037 11.6545 15.7906 11.8383 16.5627C11.6545 16.5627 11.5074 16.5627 11.3328 16.5627ZM11.1214 15.6528C11.0663 15.4046 11.0111 15.1748 10.956 14.9542C10.9376 14.9542 10.9192 14.9634 10.9008 14.9634C10.8549 15.1932 10.8089 15.4138 10.7538 15.662C10.8916 15.6528 10.9927 15.6528 11.1214 15.6528Z" fill="#38673C"/>
<path d="M16.7923 16.5627C16.3511 16.5627 15.9283 16.5627 15.4963 16.5627C15.4963 15.809 15.4963 15.0553 15.4963 14.2925C15.6434 14.2925 15.7813 14.2925 15.9467 14.2925C15.9467 14.8991 15.9467 15.5149 15.9467 16.1583C16.2408 16.1583 16.5074 16.1583 16.7923 16.1583C16.7923 16.3053 16.7923 16.4248 16.7923 16.5627Z" fill="#38673C"/>
<path d="M12.0588 14.2925C12.2151 14.2925 12.3621 14.2925 12.5276 14.2925C12.5276 14.9175 12.5276 15.5333 12.5276 16.1675C12.8125 16.1675 13.0791 16.1675 13.3548 16.1675C13.3548 16.3145 13.3548 16.4248 13.3548 16.5627C12.9228 16.5627 12.5 16.5627 12.0588 16.5627C12.0588 15.809 12.0588 15.0553 12.0588 14.2925Z" fill="#38673C"/>
</svg>
