<svg width="31" height="31" viewBox="0 0 31 31" fill="none" xmlns="http://www.w3.org/2000/svg">
<path d="M16.0859 0.491692C16.7187 0.608811 17.3633 0.673227 17.9785 0.843049C20.6269 1.5809 22.625 3.17957 23.8437 5.63321C25.4082 8.78371 25.2324 11.9166 23.3867 14.909C21.998 17.1577 20.5508 19.3712 19.1328 21.5965C19.0742 21.6843 19.0215 21.778 18.9336 21.9186C19.0742 21.9186 19.1738 21.9186 19.2793 21.9186C20.8203 21.9186 22.3613 21.9244 23.9082 21.9127C24.207 21.9127 24.4238 22.0123 24.6113 22.2465C26.5039 24.6416 28.4082 27.0308 30.3066 29.42C30.3769 29.5079 30.4414 29.6074 30.5058 29.7011C30.5058 29.9529 30.5058 30.2106 30.5058 30.4624C20.5039 30.4624 10.5078 30.4624 0.505859 30.4624C0.505859 30.2106 0.505859 29.9529 0.505859 29.7011C1.70117 28.1844 2.89648 26.6678 4.09179 25.1569C4.85351 24.1907 5.62695 23.2362 6.38281 22.2641C6.58203 22.0123 6.81054 21.9069 7.13281 21.9069C8.65624 21.9186 10.1797 21.9127 11.7031 21.9127C11.8086 21.9127 11.9141 21.9127 12.0723 21.9127C11.9961 21.7898 11.9492 21.7019 11.8906 21.6199C10.4199 19.3068 8.92577 17.0113 7.47851 14.6806C5.33398 11.2256 5.78515 6.59944 8.5332 3.6012C10.209 1.77414 12.2715 0.737642 14.7441 0.520972C14.8027 0.515116 14.8555 0.491692 14.914 0.47998C15.3066 0.491692 15.6933 0.491692 16.0859 0.491692ZM15.4941 25.0984C15.5527 25.0222 15.582 24.9812 15.6055 24.9461C17.914 21.3271 20.2812 17.7492 22.5019 14.0775C24.2773 11.1495 24.1601 8.11613 22.2676 5.27014C19.6543 1.3408 14.3457 0.503404 10.5723 3.32597C7.20312 5.83817 6.2832 10.5639 8.50976 14.136C10.4375 17.2221 12.4121 20.2731 14.3691 23.3416C14.7383 23.9155 15.1015 24.4893 15.4941 25.0984ZM23.6504 29.2912C22.9883 28.4597 22.3613 27.6633 21.7226 26.8786C21.6699 26.8141 21.5351 26.7907 21.4414 26.7907C17.4805 26.7849 13.5137 26.7849 9.55273 26.7966C9.4414 26.7966 9.29491 26.8727 9.21874 26.9605C8.86718 27.3763 8.5332 27.8097 8.19335 28.2371C7.92382 28.5768 7.65429 28.9164 7.36132 29.2912C12.7988 29.2912 18.1953 29.2912 23.6504 29.2912ZM5.26367 25.5727C5.3164 25.5961 5.32812 25.6137 5.3457 25.6137C6.4414 25.6137 7.53124 25.6195 8.62694 25.6078C8.72069 25.6078 8.83788 25.5258 8.90234 25.4439C9.24804 25.0222 9.58788 24.5947 9.92772 24.1673C10.1973 23.8276 10.4668 23.488 10.7715 23.1015C9.58202 23.1015 8.45116 23.1015 7.32031 23.1073C7.25585 23.1073 7.17968 23.1718 7.13867 23.2245C6.51171 23.9974 5.89648 24.7763 5.26367 25.5727ZM25.7715 25.6137C25.1035 24.7704 24.4824 23.9799 23.8437 23.2069C23.7851 23.1366 23.6445 23.1015 23.539 23.1015C22.5254 23.0956 21.5117 23.0956 20.4922 23.0956C20.4219 23.0956 20.3515 23.1073 20.2461 23.1191C20.8965 23.9389 21.5176 24.7236 22.1504 25.5024C22.1914 25.5551 22.2734 25.602 22.3437 25.602C23.4629 25.6137 24.582 25.6137 25.7715 25.6137ZM2.29883 29.3029C3.48828 29.3029 4.60742 29.3088 5.72656 29.2971C5.80859 29.2971 5.91406 29.2092 5.97265 29.1331C6.45312 28.5417 6.92187 27.9443 7.39648 27.347C7.53124 27.1772 7.66601 27.0015 7.83593 26.7849C6.65234 26.7849 5.5332 26.7849 4.41406 26.7907C4.34961 26.7907 4.26757 26.8376 4.2207 26.8903C3.59375 27.675 2.96679 28.4597 2.29883 29.3029ZM28.7011 29.3029C28.0273 28.4597 27.4062 27.6633 26.7676 26.8786C26.7148 26.8141 26.5801 26.7849 26.4863 26.7849C25.6484 26.779 24.8105 26.779 23.9668 26.779C23.7207 26.779 23.4687 26.779 23.1582 26.779C23.8379 27.6281 24.4707 28.4304 25.1094 29.2268C25.1504 29.2736 25.2441 29.2971 25.3144 29.2971C26.4219 29.3029 27.5234 29.3029 28.7011 29.3029ZM10.2851 25.5961C11.6797 25.5961 13.0215 25.5961 14.4043 25.5961C14.3574 25.5141 14.3281 25.4556 14.293 25.4029C13.8418 24.6943 13.3906 23.9916 12.9394 23.283C12.7812 23.0312 12.3418 23.0078 12.1543 23.242C11.7266 23.7749 11.3047 24.3078 10.8769 24.8407C10.6894 25.0808 10.5019 25.3267 10.2851 25.5961ZM16.5781 25.5961C17.9726 25.5961 19.3203 25.5961 20.7148 25.5961C20.0527 24.7646 19.4258 23.9623 18.7812 23.1718C18.6465 23.0019 18.1894 23.0722 18.0664 23.2596C17.8086 23.6578 17.5508 24.0619 17.2988 24.4659C17.0703 24.8348 16.8359 25.1979 16.5781 25.5961Z" fill="black"/>
<path d="M15.5 15.7192C12.2657 15.7192 9.62895 13.0723 9.64066 9.85158C9.65238 6.6308 12.2832 4.00734 15.5 4.01319C18.7285 4.01319 21.3711 6.66594 21.3594 9.88671C21.3418 13.1075 18.7168 15.7192 15.5 15.7192ZM20.1875 9.86329C20.1875 7.29253 18.084 5.19024 15.5118 5.17853C12.9336 5.17267 10.8125 7.28667 10.8125 9.86329C10.8125 12.434 12.9102 14.5363 15.4883 14.5422C18.0723 14.5539 20.1875 12.4458 20.1875 9.86329Z" fill="black"/>
<path d="M18.2536 18.2766C18.2185 18.3586 18.1716 18.4992 18.1013 18.6223C17.4275 19.7531 16.7478 20.8781 16.0681 22.0031C15.9275 22.2317 15.7517 22.4074 15.4587 22.384C15.2185 22.3606 15.0134 22.2317 14.9665 21.9914C14.9372 21.8274 14.9489 21.6106 15.0368 21.4699C15.7282 20.2922 16.4372 19.1262 17.1462 17.9602C17.3161 17.6789 17.574 17.5793 17.8435 17.6672C18.0954 17.7551 18.2243 17.9485 18.2536 18.2766Z" fill="black"/>
<path d="M19.0274 15.723C19.338 15.7289 19.6017 16.0101 19.5958 16.3148C19.5899 16.6254 19.3087 16.889 19.004 16.8832C18.6935 16.8773 18.4298 16.5961 18.4356 16.2914C18.4415 15.9808 18.7228 15.7113 19.0274 15.723Z" fill="black"/>
</svg>
