<svg width="25" height="25" viewBox="0 0 25 25" fill="none" xmlns="http://www.w3.org/2000/svg">
<path d="M0 9.25095C0.110132 8.81042 0.110132 8.48002 0.220264 8.03949C0.99119 4.95579 3.74449 2.86328 6.93833 2.86328C10.5727 2.86328 14.3172 2.86328 17.9515 2.86328C21.3656 2.86328 24.0088 5.17606 24.6696 8.03949C24.7797 8.59015 24.8899 9.14081 24.8899 9.58134C24.8899 10.5725 24.8899 11.5637 24.8899 12.5549C24.6696 15.4183 22.467 17.9514 19.6035 18.502C19.0529 18.6122 18.5022 18.7223 17.8414 18.7223C14.3172 18.7223 10.6828 18.7223 7.15859 18.7223C6.93833 18.7223 6.82819 18.7223 6.60793 18.8324C4.40529 19.8236 2.20264 20.8148 0.110132 21.9161C0.110132 22.0263 0.110132 22.0263 0 22.0263C0 17.7311 0 13.5461 0 9.25095ZM1.54185 19.6034C1.65198 19.6034 1.76211 19.4932 1.87225 19.4932C3.4141 18.7223 4.95595 18.0615 6.4978 17.2906C6.60793 17.1805 6.82819 17.1805 7.04846 17.1805C10.6828 17.1805 14.3172 17.1805 18.0617 17.1805C18.3921 17.1805 18.7225 17.1805 19.0529 17.0703C21.2555 16.7399 23.2379 14.9778 23.4582 12.7752C23.5683 11.6739 23.5683 10.4624 23.5683 9.25095C23.4582 6.49764 21.1454 4.40513 18.3921 4.40513C14.5374 4.40513 10.6828 4.40513 6.93833 4.40513C5.72687 4.40513 4.73568 4.73553 3.74449 5.50645C2.20264 6.71791 1.54185 8.14962 1.54185 9.91174C1.54185 13.1056 1.54185 16.1893 1.54185 19.3831C1.54185 19.4932 1.54185 19.4932 1.54185 19.6034Z" fill="black"/>
<path d="M7.37801 12.5548C6.60708 12.5548 5.94629 11.894 5.94629 11.1231C5.94629 10.3522 6.60708 9.69141 7.37801 9.69141C8.14894 9.69141 8.80973 10.3522 8.80973 11.1231C8.80973 12.0042 8.14894 12.665 7.37801 12.5548Z" fill="black"/>
<path d="M17.6212 12.5548C16.8502 12.5548 16.1895 11.894 16.1895 11.1231C16.1895 10.3522 16.8502 9.69141 17.6212 9.69141C18.3921 9.69141 19.0529 10.3522 19.0529 11.1231C19.0529 12.0042 18.3921 12.665 17.6212 12.5548Z" fill="black"/>
<path d="M12.5557 12.5548C11.7848 12.5548 11.124 11.8941 11.124 11.1231C11.124 10.3522 11.7848 9.69141 12.5557 9.69141C13.3267 9.69141 13.9875 10.3522 13.9875 11.1231C13.9875 12.0042 13.3267 12.5548 12.5557 12.5548Z" fill="black"/>
</svg>
