<svg width="35" height="27" viewBox="0 0 35 27" fill="none" xmlns="http://www.w3.org/2000/svg">
<path d="M0 8.95127C0.154185 8.33453 0.154185 7.87198 0.30837 7.25524C1.38767 2.93806 5.24229 0.00854492 9.71366 0.00854492C14.8018 0.00854492 20.0441 0.00854492 25.1322 0.00854492C29.9119 0.00854492 33.6123 3.24643 34.5374 7.25524C34.6916 8.02617 34.8458 8.79709 34.8458 9.41383C34.8458 10.8015 34.8458 12.1892 34.8458 13.5768C34.5374 17.5856 31.4537 21.1319 27.4449 21.9028C26.674 22.057 25.9031 22.2112 24.978 22.2112C20.0441 22.2112 14.9559 22.2112 10.022 22.2112C9.71366 22.2112 9.55947 22.2112 9.2511 22.3654C6.1674 23.753 3.0837 25.1407 0.154185 26.6826C0.154185 26.8367 0.154185 26.8367 0 26.8367C0 20.8235 0 14.9645 0 8.95127ZM2.15859 23.4447C2.31278 23.4447 2.46696 23.2905 2.62115 23.2905C4.77974 22.2112 6.93833 21.2861 9.09692 20.2068C9.2511 20.0526 9.55947 20.0526 9.86784 20.0526C14.9559 20.0526 20.0441 20.0526 25.2863 20.0526C25.7489 20.0526 26.2115 20.0526 26.674 19.8984C29.7577 19.4359 32.533 16.9689 32.8414 13.8852C32.9956 12.3433 32.9956 10.6473 32.9956 8.95127C32.8414 5.09665 29.6035 2.16714 25.7489 2.16714C20.3524 2.16714 14.9559 2.16714 9.71366 2.16714C8.01762 2.16714 6.62996 2.62969 5.24229 3.70899C3.0837 5.40502 2.15859 7.40943 2.15859 9.87639C2.15859 14.3478 2.15859 18.6649 2.15859 23.1363C2.15859 23.2905 2.15859 23.2905 2.15859 23.4447Z" fill="black"/>
<path d="M10.3296 13.5764C9.25031 13.5764 8.3252 12.6513 8.3252 11.572C8.3252 10.4927 9.25031 9.56763 10.3296 9.56763C11.4089 9.56763 12.334 10.4927 12.334 11.572C12.334 12.8055 11.4089 13.7306 10.3296 13.5764Z" fill="black"/>
<path d="M24.6695 13.5764C23.5902 13.5764 22.665 12.6513 22.665 11.572C22.665 10.4927 23.5902 9.56763 24.6695 9.56763C25.7488 9.56763 26.6739 10.4927 26.6739 11.572C26.6739 12.8055 25.7488 13.7306 24.6695 13.5764Z" fill="black"/>
<path d="M17.5776 13.5764C16.4984 13.5764 15.5732 12.6513 15.5732 11.572C15.5732 10.4927 16.4984 9.56763 17.5776 9.56763C18.6569 9.56763 19.5821 10.4927 19.5821 11.572C19.5821 12.8055 18.6569 13.5764 17.5776 13.5764Z" fill="black"/>
</svg>
