<svg width="30" height="30" viewBox="0 0 30 30" fill="none" xmlns="http://www.w3.org/2000/svg">
<path d="M15 25.3125C20.6954 25.3125 25.3125 20.6954 25.3125 15C25.3125 9.30456 20.6954 4.6875 15 4.6875C9.30456 4.6875 4.6875 9.30456 4.6875 15C4.6875 20.6954 9.30456 25.3125 15 25.3125Z" stroke="#EA0124" stroke-width="2" stroke-linecap="round" stroke-linejoin="round"/>
<path d="M15 2.34375V7.03125" stroke="#EA0124" stroke-width="2" stroke-linecap="round" stroke-linejoin="round"/>
<path d="M2.34375 15H7.03125" stroke="#EA0124" stroke-width="2" stroke-linecap="round" stroke-linejoin="round"/>
<path d="M15 27.6562V22.9688" stroke="#EA0124" stroke-width="2" stroke-linecap="round" stroke-linejoin="round"/>
<path d="M27.6562 15H22.9688" stroke="#EA0124" stroke-width="2" stroke-linecap="round" stroke-linejoin="round"/>
<path d="M15 18.75C17.0711 18.75 18.75 17.0711 18.75 15C18.75 12.9289 17.0711 11.25 15 11.25C12.9289 11.25 11.25 12.9289 11.25 15C11.25 17.0711 12.9289 18.75 15 18.75Z" stroke="#EA0124" stroke-width="2" stroke-linecap="round" stroke-linejoin="round"/>
</svg>
