<svg width="40" height="36" viewBox="0 0 40 36" fill="none" xmlns="http://www.w3.org/2000/svg">
<path d="M8.99059 11.8686C7.61701 10.9565 6.70496 9.75876 6.32036 8.19838C6.02367 6.98963 6.10059 5.80286 6.56211 4.63807C7.47416 2.2975 9.70484 0.803053 12.2542 0.857996C13.6607 0.890962 14.9134 1.38545 15.9793 2.30849C17.0452 3.23153 17.6716 4.40731 17.9573 5.82484C19.3199 5.35233 20.6715 5.34134 22.045 5.82484C22.3967 4.07765 23.2758 2.70408 24.7702 1.75906C25.8251 1.09974 26.9789 0.803053 28.2206 0.857996C30.6161 0.956893 32.7479 2.59419 33.5391 4.87982C34.2753 7.0226 33.7918 9.98952 31.0557 11.8576C31.1106 11.8905 31.1436 11.9235 31.1875 11.9345C34.8138 13.2312 37.1543 15.8245 38.6268 19.2859C39.407 21.121 39.7586 23.0659 39.7916 25.0549C39.8026 25.4834 39.6378 25.7362 39.2422 25.923C36.9895 26.9559 34.638 27.6921 32.1985 28.1317C32.0776 28.1537 31.9567 28.1866 31.8688 28.1976C31.8688 28.7031 31.8578 29.1976 31.8688 29.6811C31.8798 30.0876 31.715 30.3514 31.3414 30.5162C29.5942 31.3294 27.7701 31.9227 25.913 32.4062C25.7262 32.4502 25.5284 32.5711 25.4075 32.7029C22.4956 35.9226 17.5177 35.9226 14.5948 32.7139C14.4629 32.5601 14.2541 32.4392 14.0563 32.3953C12.2212 31.9118 10.4301 31.3294 8.70488 30.5382C8.27633 30.3404 8.10051 30.0657 8.13348 29.6042C8.16644 29.1536 8.17743 28.7031 8.19941 28.2086C7.79283 28.1207 7.38625 28.0438 6.96869 27.9559C4.86987 27.5163 2.84797 26.835 0.881008 25.9779C0.375533 25.7581 0.188727 25.4505 0.210704 24.901C0.39751 20.4507 1.95789 16.6376 5.46325 13.7586C6.41926 12.9784 7.48515 12.407 8.64994 11.9785C8.74884 11.9675 8.84774 11.9235 8.99059 11.8686ZM8.35325 26.9889C9.49606 22.022 12.0124 18.3079 16.8474 16.4838C16.8364 16.4618 16.8364 16.4398 16.8145 16.4178C16.7266 16.3519 16.6386 16.286 16.5507 16.22C15.5618 15.4948 14.8255 14.5608 14.4299 13.396C14.3091 13.0443 14.1223 12.9345 13.8036 12.8795C11.3971 12.44 9.13344 12.8575 7.11154 14.2201C3.43036 16.6816 1.848 20.2968 1.5623 24.5934C1.55131 24.7032 1.69416 24.8791 1.81504 24.934C2.54028 25.2307 3.25454 25.5603 4.00177 25.7801C5.43028 26.2197 6.89177 26.5933 8.35325 26.9889ZM31.6161 26.89C31.682 26.89 31.737 26.89 31.7919 26.879C33.7369 26.5164 35.6379 25.9779 37.473 25.2417C38.451 24.8571 38.484 24.8571 38.3741 23.8132C38.0554 20.6155 36.8796 17.8024 34.55 15.5497C32.2315 13.3081 29.4623 12.3301 26.2207 12.8795C25.8581 12.9454 25.6713 13.0883 25.5394 13.4509C25.1438 14.5937 24.4186 15.5168 23.4296 16.231C23.3197 16.308 23.2208 16.3849 23.1109 16.4728C27.9899 18.3189 30.5062 22.033 31.6161 26.89ZM13.375 30.8568C12.7047 29.2305 12.5619 27.6262 13.0014 25.9999C13.452 24.3516 14.353 22.989 15.7596 22.022C18.3419 20.2638 21.089 20.0551 23.7263 21.7143C27.1437 23.8681 27.9239 27.0548 26.6712 30.8898C27.6602 30.5382 28.6052 30.2195 29.5392 29.8679C30.5502 29.4833 30.5722 29.4723 30.4733 28.4174C30.1546 25.2087 28.9459 22.3956 26.6273 20.121C23.4076 16.9673 18.7155 16.4069 15.0673 18.8134C11.3641 21.2528 9.77078 24.901 9.48507 29.2086C9.47408 29.3294 9.63891 29.5162 9.75979 29.5712C10.7048 29.9448 11.6608 30.2854 12.6058 30.6371C12.8256 30.714 13.0674 30.7689 13.375 30.8568ZM14.0673 27.9119C14.0673 31.1645 16.7266 33.8238 19.9902 33.8348C23.2428 33.8457 25.924 31.1755 25.935 27.9229C25.935 24.6483 23.2867 21.9671 20.0451 21.9671C16.7266 21.9561 14.0673 24.6043 14.0673 27.9119ZM20.0012 16.0223C22.5615 16.0113 24.6273 13.9344 24.6054 11.3741C24.5944 8.85769 22.5175 6.79184 20.0121 6.79184C17.4298 6.79184 15.364 8.87967 15.3859 11.462C15.3969 13.9674 17.4848 16.0332 20.0012 16.0223ZM12.1113 11.484C12.6718 11.3521 13.2212 11.2202 13.7816 11.0884C14.0124 11.0334 14.1003 10.8906 14.1332 10.6488C14.353 8.98955 15.1552 7.65993 16.4738 6.638C16.5837 6.55009 16.6716 6.3413 16.6606 6.20944C16.3639 3.75898 14.1662 1.98982 11.7158 2.1986C9.21036 2.40739 7.36428 4.52819 7.47416 7.04457C7.58405 9.46206 9.6499 11.407 12.1113 11.484ZM27.891 11.495C27.9019 11.473 27.9019 11.451 27.9129 11.429C28.1547 11.3961 28.4074 11.3851 28.6492 11.3411C31.0007 10.9675 32.682 8.8467 32.5172 6.47317C32.3523 4.15457 30.4183 2.26454 28.1327 2.18762C25.7042 2.09971 23.6384 3.8359 23.3527 6.20944C23.3417 6.3413 23.4076 6.5391 23.5065 6.61602C24.8581 7.64895 25.6603 9.00054 25.902 10.6928C25.924 10.8356 26.0669 11.0224 26.1987 11.0664C26.7481 11.2312 27.3196 11.3521 27.891 11.495Z" fill="black"/>
<path opacity="0.4" d="M20.0008 35.3621C17.902 35.3621 15.8691 34.461 14.4406 32.8897C14.3417 32.7798 14.1659 32.6699 14.0011 32.6369C11.9792 32.1095 10.21 31.4941 8.60568 30.7689C8.08922 30.5381 7.85846 30.1535 7.90241 29.6151C7.92439 29.3074 7.93538 28.9997 7.95735 28.681C7.95735 28.5931 7.96834 28.5052 7.96834 28.4173L7.75956 28.3733C7.48484 28.3184 7.19914 28.2635 6.92443 28.1975C4.89154 27.769 2.82568 27.0987 0.792793 26.1976C0.210398 25.9449 -0.0313513 25.5493 -0.00937413 24.9119C0.199409 20.0879 1.93561 16.3848 5.32009 13.6047C6.23214 12.8575 7.28705 12.2641 8.51777 11.8135C7.25408 10.8905 6.4629 9.71472 6.10028 8.25324C5.7926 7.01153 5.88051 5.76982 6.34203 4.56107C7.29804 2.12161 9.61663 0.594194 12.2539 0.649137C13.7044 0.682103 15.001 1.18758 16.1109 2.15457C17.1438 3.03366 17.8031 4.1545 18.1108 5.55005C19.3855 5.15446 20.6162 5.16545 21.8689 5.55005C22.2755 3.82484 23.1985 2.48423 24.638 1.58317C25.7149 0.901875 26.9127 0.594194 28.2093 0.638149C30.6927 0.737046 32.9015 2.4183 33.7256 4.81381C34.4508 6.9456 34.0223 9.87955 31.4729 11.8135C34.8354 13.0772 37.2419 15.5057 38.8133 19.1979C39.5715 20.978 39.9561 22.89 40.0001 25.0548C40.0111 25.5713 39.7913 25.9119 39.3298 26.1207C37.0771 27.1536 34.6926 27.9008 32.2311 28.3514C32.1762 28.3624 32.1323 28.3733 32.0883 28.3843C32.0883 28.4832 32.0883 28.5711 32.0883 28.67C32.0883 29.0217 32.0773 29.3513 32.0993 29.681C32.1213 30.1755 31.9015 30.5161 31.451 30.7249C29.8466 31.4721 28.0665 32.0875 25.9786 32.6259C25.8358 32.6589 25.671 32.7578 25.5831 32.8677C24.1435 34.461 22.1107 35.3621 20.0008 35.3621ZM12.111 1.07769C9.71553 1.07769 7.6277 2.49522 6.7596 4.71492C6.32005 5.83575 6.24313 6.98955 6.52884 8.14336C6.89146 9.62681 7.73758 10.7806 9.10017 11.6817L9.4518 11.9124L8.92435 12.1212C8.84743 12.1542 8.7815 12.1762 8.71557 12.2091C7.50682 12.6487 6.48488 13.2201 5.59481 13.9453C2.30922 16.6485 0.616975 20.2418 0.419181 24.9229C0.397204 25.3845 0.540056 25.6042 0.957622 25.791C2.96853 26.6701 5.00142 27.3404 7.00135 27.758C7.27606 27.8129 7.56176 27.8789 7.83648 27.9338L8.40789 28.0547L8.3969 28.2415C8.38591 28.3953 8.38591 28.5492 8.37492 28.692C8.36393 29.0217 8.35294 29.3294 8.31998 29.648C8.28701 29.9997 8.41887 30.1975 8.75952 30.3623C10.3419 31.0765 12.0781 31.6809 14.078 32.2084C14.3197 32.2743 14.5615 32.4171 14.7263 32.593C16.0889 34.0984 17.957 34.9225 19.9569 34.9225C21.9678 34.9225 23.8359 34.0874 25.1985 32.582C25.3523 32.4172 25.583 32.2743 25.8138 32.2194C27.8687 31.6919 29.6269 31.0765 31.2092 30.3403C31.5059 30.1975 31.6158 30.0216 31.6048 29.714C31.5938 29.3733 31.5938 29.0217 31.5938 28.681C31.5938 28.5272 31.5938 28.3733 31.5938 28.2305V28.0547L31.8465 27.9997C31.9235 27.9778 32.0114 27.9668 32.0993 27.9448C34.5168 27.5052 36.8683 26.769 39.088 25.7471C39.3957 25.6042 39.5166 25.4284 39.5056 25.0878C39.4616 22.9889 39.088 21.1209 38.3518 19.3957C36.7914 15.7365 34.4069 13.3629 31.0444 12.1652C30.9894 12.1432 30.9565 12.1212 30.9125 12.0992C30.9015 12.0883 30.8905 12.0773 30.8686 12.0773L30.5609 11.9015L30.8466 11.7037C33.4838 9.91252 33.9564 7.03351 33.2531 4.97864C32.4949 2.75895 30.429 1.19857 28.1324 1.09967C26.9237 1.04473 25.8028 1.34142 24.8139 1.96777C23.3963 2.85784 22.5392 4.14351 22.1876 5.89069L22.1326 6.14343L21.8909 6.05552C20.5723 5.594 19.2866 5.594 17.946 6.05552L17.7042 6.13244L17.6603 5.87971C17.3856 4.46218 16.7592 3.35233 15.7593 2.48423C14.7263 1.58317 13.5176 1.11066 12.177 1.08868C12.2099 1.07769 12.166 1.07769 12.111 1.07769ZM20.0118 34.0435C20.0008 34.0435 20.0008 34.0435 19.9899 34.0435C16.5944 34.0325 13.8472 31.2743 13.8472 27.9008H14.067H13.8472C13.8472 26.2416 14.4846 24.6922 15.6494 23.5384C16.8142 22.3736 18.3745 21.7362 20.0338 21.7362H20.0448C23.4183 21.7472 26.1545 24.5164 26.1545 27.9118C26.1545 29.5381 25.5061 31.0765 24.3413 32.2413C23.1765 33.4061 21.6381 34.0435 20.0118 34.0435ZM20.0338 22.1758C18.4954 22.1758 17.0449 22.7692 15.968 23.846C14.8912 24.9229 14.2868 26.3624 14.2868 27.9008C14.2868 31.0326 16.8471 33.5929 19.9899 33.6039C21.5063 33.6039 22.9348 33.0105 24.0227 31.9336C25.1105 30.8568 25.7039 29.4283 25.7039 27.9228C25.7039 24.7691 23.1656 22.1868 20.0338 22.1868C20.0448 22.1758 20.0338 22.1758 20.0338 22.1758ZM26.3303 31.2524L26.4731 30.8238C27.7478 26.9009 26.7918 23.901 23.6161 21.9011C21.1437 20.3407 18.4624 20.4396 15.8911 22.1978C14.5725 23.0988 13.6714 24.3955 13.2209 26.0548C12.7923 27.6041 12.9132 29.1535 13.5835 30.7689L13.7593 31.1864L13.3198 31.0546C13.2209 31.0216 13.122 30.9996 13.0341 30.9776C12.8473 30.9227 12.6934 30.8897 12.5396 30.8238L12.4847 30.8018C11.5616 30.4722 10.6166 30.1205 9.68256 29.7579C9.49576 29.692 9.24302 29.4283 9.265 29.1865C9.58366 24.3955 11.4407 20.9341 14.9461 18.6265C16.7812 17.4177 18.88 16.9122 21.0338 17.154C23.1765 17.3957 25.1545 18.3627 26.7808 19.9561C29.0445 22.1648 30.3521 24.9999 30.6927 28.3843C30.8026 29.5381 30.7367 29.648 29.6269 30.0656C28.9785 30.3073 28.3412 30.5271 27.6709 30.7689C27.3742 30.8787 27.0665 30.9776 26.7588 31.0875L26.3303 31.2524ZM20.0228 20.3517C21.3195 20.3517 22.6051 20.7473 23.8469 21.5275C27.0885 23.5823 28.1544 26.6042 27.0116 30.5381C27.1764 30.4832 27.3412 30.4172 27.5061 30.3623C28.1764 30.1315 28.8137 29.9008 29.451 29.67C29.8796 29.5052 30.1433 29.4063 30.2312 29.2854C30.3081 29.1645 30.2862 28.9008 30.2422 28.4503C29.9126 25.1757 28.6379 22.4285 26.4511 20.2857C23.2645 17.176 18.7262 16.6595 15.1659 19.0111C11.7814 21.2418 9.99024 24.5823 9.68256 29.2195C9.70454 29.2634 9.78146 29.3513 9.82541 29.3733C10.7485 29.7359 11.6935 30.0766 12.6165 30.4062L12.6715 30.4282C12.7704 30.4612 12.8802 30.4941 13.0011 30.5271C12.4407 28.9667 12.3638 27.4613 12.7813 25.9449C13.2648 24.1867 14.2208 22.8021 15.6274 21.8461C17.0889 20.8462 18.5613 20.3517 20.0228 20.3517ZM8.51777 27.2635L8.298 27.1976C7.86944 27.0767 7.44089 26.9668 7.01233 26.8459C6.00138 26.5712 4.95747 26.2965 3.93553 25.9888C3.29819 25.802 2.68283 25.5383 2.07846 25.2856C1.95758 25.2306 1.8477 25.1867 1.72682 25.1427C1.54002 25.0658 1.33123 24.8021 1.34222 24.5933C1.6499 19.8352 3.49599 16.3848 6.99036 14.0442C9.03424 12.6707 11.3418 12.2091 13.8472 12.6707C14.1659 12.7256 14.4736 12.8465 14.6384 13.33C15.001 14.4178 15.6933 15.3299 16.6713 16.0441C16.7043 16.0661 16.7372 16.0881 16.7702 16.1101C16.8251 16.154 16.8911 16.198 16.946 16.231C17.012 16.2749 17.0339 16.3408 17.0449 16.3738L17.1658 16.5936L16.935 16.6815C12.5286 18.3518 9.79245 21.7362 8.5837 27.0327L8.51777 27.2635ZM1.78177 24.6043C1.79275 24.6482 1.85869 24.7251 1.89165 24.7361C2.01253 24.7801 2.12241 24.835 2.24329 24.89C2.83667 25.1427 3.44104 25.3954 4.0564 25.5822C5.06735 25.8899 6.11127 26.1646 7.12222 26.4394C7.47386 26.5383 7.83648 26.6262 8.18811 26.7251C9.42982 21.5384 12.122 18.1649 16.4186 16.4178C16.4186 16.4178 16.4076 16.4178 16.4076 16.4068C15.3417 15.6376 14.6055 14.6486 14.2099 13.4838C14.1329 13.2421 14.034 13.1651 13.7483 13.1102C11.3638 12.6707 9.1661 13.1102 7.22112 14.4178C3.8696 16.6595 2.07846 20 1.78177 24.6043ZM31.451 27.1206L31.407 26.9448C30.2092 21.7253 27.4841 18.3627 23.0447 16.6815L22.6711 16.5386L23.0996 16.22C23.1765 16.165 23.2425 16.1101 23.3194 16.0551C24.2974 15.3519 24.9787 14.4508 25.3413 13.3849C25.4951 12.9564 25.7369 12.7476 26.1874 12.6707C29.4071 12.1212 32.2751 13.0443 34.7036 15.3958C36.9453 17.5606 38.2529 20.3846 38.5935 23.8021C38.7034 24.9229 38.6375 25.0328 37.5936 25.4504L37.5606 25.4614C35.7475 26.1866 33.8245 26.736 31.8356 27.1097C31.7806 27.1206 31.7367 27.1206 31.6927 27.1206C31.6707 27.1206 31.6597 27.1206 31.6378 27.1206H31.451ZM23.5721 16.4068C27.8797 18.1759 30.5719 21.5275 31.7916 26.6591C33.7366 26.2965 35.6266 25.7471 37.3958 25.0438L37.4288 25.0328C37.8353 24.868 38.0771 24.7801 38.154 24.6592C38.2309 24.5383 38.2089 24.2856 38.165 23.8351C37.8353 20.5275 36.5716 17.7913 34.4069 15.7035C32.0773 13.4508 29.3411 12.5718 26.2643 13.0882C25.9677 13.1432 25.8578 13.2311 25.7589 13.5168C25.3633 14.6816 24.627 15.6486 23.5721 16.4068ZM19.9899 16.2419C17.3416 16.2419 15.1769 14.0992 15.1659 11.4619C15.1549 10.1543 15.6604 8.92354 16.5724 8.0005C17.4845 7.07746 18.7042 6.57199 20.0118 6.57199C22.6491 6.57199 24.8138 8.72575 24.8248 11.374C24.8358 12.6707 24.3304 13.9014 23.4183 14.8134C22.5062 15.7365 21.2865 16.2419 19.9899 16.2419C19.9899 16.2419 20.0008 16.2419 19.9899 16.2419ZM20.0118 7.01153C18.8251 7.01153 17.7152 7.47305 16.8801 8.30818C16.045 9.14332 15.5944 10.2642 15.5944 11.4619C15.6054 13.8574 17.5724 15.8024 19.9789 15.8024H19.9899C21.1656 15.8024 22.2755 15.3409 23.0996 14.5057C23.9238 13.6706 24.3853 12.5608 24.3743 11.374C24.3853 8.9675 22.4183 7.01153 20.0118 7.01153ZM28.0335 11.7476L27.8357 11.7037C27.6819 11.6707 27.539 11.6267 27.3852 11.5938C26.9676 11.4949 26.5391 11.396 26.1215 11.2641C25.8907 11.1982 25.7039 10.9235 25.671 10.7147C25.4402 9.07738 24.682 7.79172 23.3634 6.78077C23.1875 6.64891 23.0996 6.3632 23.1216 6.1764C23.4183 3.68199 25.5721 1.86887 28.1214 1.95678C30.5279 2.0337 32.5498 4.01165 32.7256 6.45111C32.9015 8.95651 31.1543 11.1542 28.6708 11.5608C28.495 11.5938 28.3302 11.6048 28.1544 11.6267C28.1214 11.6267 28.0884 11.6377 28.0555 11.6377L28.0335 11.7476ZM27.9566 2.39632C25.7039 2.39632 23.8359 4.02263 23.5611 6.23134C23.5502 6.29727 23.5941 6.40716 23.6271 6.44012C25.0226 7.50602 25.8578 8.93453 26.0995 10.6597C26.1105 10.7147 26.1984 10.8356 26.2424 10.8465C26.6489 10.9674 27.0665 11.0663 27.4731 11.1652C27.561 11.1872 27.6489 11.2092 27.7368 11.2311L27.8687 11.2202C27.9456 11.2092 28.0225 11.1982 28.0994 11.1982C28.2643 11.1762 28.4291 11.1652 28.5829 11.1432C30.8466 10.7806 32.4289 8.78069 32.2641 6.50606C32.1103 4.28636 30.2752 2.49522 28.0884 2.4183C28.0665 2.39632 28.0115 2.39632 27.9566 2.39632ZM12.133 11.7037H12.1001C9.49576 11.6267 7.36397 9.58286 7.25408 7.05549C7.1442 4.42921 9.08918 2.19853 11.6825 1.96777C14.2758 1.748 16.5504 3.59408 16.8581 6.1764C16.8801 6.38518 16.7702 6.67088 16.5944 6.80275C15.2867 7.82469 14.5505 9.08837 14.3417 10.6707C14.3197 10.8026 14.2758 11.1872 13.8253 11.2971C13.4297 11.396 13.0231 11.4839 12.6275 11.5828L12.133 11.7037ZM12.1001 2.39632C11.9682 2.39632 11.8473 2.39632 11.7155 2.40731C9.36389 2.61609 7.59473 4.64898 7.69363 7.03351C7.79252 9.31913 9.71553 11.1762 12.0891 11.2641L12.5286 11.1542C12.9242 11.0553 13.3308 10.9564 13.7264 10.8685C13.8362 10.8465 13.8802 10.8026 13.9132 10.6158C14.1329 8.93453 14.9461 7.53898 16.3307 6.45111C16.3856 6.40716 16.4405 6.2753 16.4296 6.22035C16.1548 4.01165 14.2978 2.39632 12.1001 2.39632Z" fill="black"/>
<path d="M8.51776 27.2634L8.29799 27.1975C7.86943 27.0766 7.44088 26.9667 7.01232 26.8458C6.00137 26.5711 4.95746 26.2964 3.93552 25.9887C3.29818 25.8019 2.68282 25.5382 2.07845 25.2855C1.95757 25.2305 1.84769 25.1866 1.72681 25.1426C1.54001 25.0657 1.33122 24.802 1.34221 24.5932C1.64989 19.8351 3.49598 16.3847 6.99035 14.0441C9.03422 12.6706 11.3418 12.209 13.8472 12.6706C14.1659 12.7255 14.4736 12.8464 14.6384 13.3299C15.001 14.4177 15.6933 15.3298 16.6713 16.0441C16.7043 16.066 16.7372 16.088 16.7702 16.11C16.8251 16.1539 16.8911 16.1979 16.946 16.2309C17.0119 16.2748 17.0339 16.3407 17.0449 16.3737L17.1658 16.5935L16.935 16.6814C12.5286 18.3517 9.79244 21.7361 8.58369 27.0326L8.51776 27.2634ZM1.78176 24.6042C1.79274 24.6481 1.85868 24.725 1.89164 24.736C2.01252 24.78 2.1224 24.8349 2.24328 24.8899C2.83666 25.1426 3.44103 25.3953 4.05639 25.5822C5.06734 25.8898 6.11126 26.1645 7.12221 26.4393C7.47385 26.5382 7.83647 26.6261 8.1881 26.725C9.42981 21.5384 12.122 18.1649 16.4186 16.4177C16.4186 16.4177 16.4076 16.4177 16.4076 16.4067C15.3417 15.6375 14.6054 14.6485 14.2099 13.4837C14.1329 13.242 14.034 13.165 13.7483 13.1101C11.3638 12.6706 9.16609 13.1101 7.22111 14.4177C3.86959 16.6594 2.07845 19.9999 1.78176 24.6042Z" fill="black"/>
<path d="M31.4508 27.1206L31.4068 26.9448C30.2091 21.7252 27.4839 18.3627 23.0445 16.6815L22.6709 16.5386L23.0995 16.22C23.1764 16.165 23.2423 16.1101 23.3192 16.0551C24.2972 15.3519 24.9785 14.4508 25.3411 13.3849C25.495 12.9563 25.7367 12.7476 26.1872 12.6706C29.4069 12.1212 32.2749 13.0443 34.7034 15.3958C36.9451 17.5606 38.2527 20.3846 38.5933 23.8021C38.7032 24.9229 38.6373 25.0328 37.5934 25.4504L37.5604 25.4614C35.7473 26.1866 33.8243 26.736 31.8354 27.1097C31.7804 27.1206 31.7365 27.1206 31.6925 27.1206C31.6705 27.1206 31.6596 27.1206 31.6376 27.1206H31.4508ZM23.572 16.4068C27.8795 18.1759 30.5717 21.5274 31.7914 26.6591C33.7364 26.2965 35.6264 25.7471 37.3956 25.0438L37.4286 25.0328C37.8351 24.868 38.0769 24.7801 38.1538 24.6592C38.2307 24.5383 38.2087 24.2856 38.1648 23.8351C37.8351 20.5275 36.5714 17.7913 34.4067 15.7035C32.0771 13.4508 29.341 12.5717 26.2642 13.0882C25.9675 13.1432 25.8576 13.2311 25.7587 13.5168C25.3631 14.6816 24.6269 15.6486 23.572 16.4068Z" fill="black"/>
<path d="M26.3303 31.2522L26.4731 30.8236C27.7478 26.9007 26.7918 23.9008 23.6161 21.9009C21.1437 20.3405 18.4625 20.4394 15.8911 22.1976C14.5725 23.0987 13.6714 24.3953 13.2209 26.0546C12.7924 27.604 12.9132 29.1534 13.5835 30.7687L13.7593 31.1863L13.3198 31.0544C13.2209 31.0214 13.122 30.9995 13.0341 30.9775C12.8473 30.9225 12.6935 30.8896 12.5396 30.8236L12.4847 30.8017C11.5616 30.472 10.6166 30.1204 9.68258 29.7577C9.49577 29.6918 9.24304 29.4281 9.26501 29.1863C9.58368 24.3953 11.4408 20.9339 14.9461 18.6263C16.7812 17.4175 18.88 16.9121 21.0338 17.1538C23.1766 17.3956 25.1545 18.3626 26.7808 19.9559C29.0445 22.1646 30.3521 24.9997 30.6928 28.3842C30.8026 29.538 30.7367 29.6479 29.6269 30.0654C28.9785 30.3072 28.3412 30.5269 27.6709 30.7687C27.3742 30.8786 27.0665 30.9775 26.7588 31.0874L26.3303 31.2522ZM20.0228 20.3515C21.3195 20.3515 22.6052 20.7471 23.8469 21.5273C27.0885 23.5822 28.1544 26.604 27.0116 30.5379C27.1764 30.483 27.3412 30.4171 27.5061 30.3621C28.1764 30.1314 28.8137 29.9006 29.4511 29.6698C29.8796 29.505 30.1433 29.4061 30.2312 29.2852C30.3082 29.1644 30.2862 28.9006 30.2422 28.4501C29.9126 25.1755 28.6379 22.4283 26.4512 20.2856C23.2645 17.1758 18.7262 16.6593 15.1659 19.0109C11.7814 21.2416 9.99026 24.5821 9.68258 29.2193C9.70456 29.2633 9.78148 29.3512 9.82543 29.3731C10.7485 29.7358 11.6935 30.0764 12.6165 30.4061L12.6715 30.4281C12.7704 30.461 12.8803 30.494 13.0011 30.5269C12.4407 28.9666 12.3638 27.4611 12.7814 25.9447C13.2649 24.1865 14.2209 22.802 15.6274 21.846C17.0889 20.846 18.5614 20.3515 20.0228 20.3515Z" fill="black"/>
<path d="M19.9902 16.242C17.3419 16.242 15.1772 14.0992 15.1662 11.4619C15.1552 10.1543 15.6607 8.92358 16.5727 8.00054C17.4848 7.0775 18.7045 6.57202 20.0122 6.57202C22.6494 6.57202 24.8142 8.72578 24.8252 11.374C24.8362 12.6707 24.3307 13.9014 23.4186 14.8135C22.5066 15.7365 21.2868 16.242 19.9902 16.242C19.9902 16.242 20.0012 16.242 19.9902 16.242ZM20.0122 7.01157C18.8254 7.01157 17.7155 7.47309 16.8804 8.30822C16.0453 9.14335 15.5947 10.2642 15.5947 11.4619C15.6057 13.8575 17.5727 15.8024 19.9792 15.8024H19.9902C21.166 15.8024 22.2758 15.3409 23.1 14.5058C23.9241 13.6707 24.3856 12.5608 24.3746 11.374C24.3856 8.96753 22.4187 7.01157 20.0122 7.01157Z" fill="black"/>
<path d="M12.1334 11.7036H12.1004C9.49611 11.6267 7.36432 9.58279 7.25443 7.05541C7.14455 4.42914 9.08953 2.19845 11.6828 1.96769C14.2762 1.74792 16.5508 3.594 16.8585 6.17632C16.8805 6.38511 16.7706 6.67081 16.5947 6.80267C15.2871 7.82461 14.5509 9.0883 14.3421 10.6707C14.3201 10.8025 14.2762 11.1871 13.8256 11.297C13.43 11.3959 13.0235 11.4838 12.6279 11.5827L12.1334 11.7036ZM12.1004 2.39625C11.9685 2.39625 11.8477 2.39625 11.7158 2.40724C9.36425 2.61602 7.59508 4.64891 7.69398 7.03343C7.79288 9.31906 9.71588 11.1761 12.0894 11.264L12.529 11.1542C12.9246 11.0553 13.3311 10.9564 13.7267 10.8685C13.8366 10.8465 13.8806 10.8025 13.9135 10.6157C14.1333 8.93446 14.9465 7.53891 16.331 6.45104C16.386 6.40708 16.4409 6.27522 16.4299 6.22028C16.1552 4.01157 14.2981 2.39625 12.1004 2.39625Z" fill="black"/>
<path d="M28.0334 11.7475L27.8356 11.7035C27.6817 11.6706 27.5389 11.6266 27.3851 11.5937C26.9675 11.4948 26.5389 11.3959 26.1214 11.264C25.8906 11.1981 25.7038 10.9234 25.6708 10.7146C25.4401 9.07728 24.6819 7.79161 23.3632 6.78066C23.1874 6.6488 23.0995 6.3631 23.1215 6.17629C23.4182 3.68188 25.5719 1.86877 28.1213 1.95668C30.5278 2.0336 32.5497 4.01154 32.7255 6.45101C32.9013 8.9564 31.1541 11.1541 28.6707 11.5607C28.4949 11.5937 28.3301 11.6046 28.1543 11.6266C28.1213 11.6266 28.0883 11.6376 28.0554 11.6376L28.0334 11.7475ZM27.9565 2.39622C25.7038 2.39622 23.8357 4.02253 23.561 6.23123C23.55 6.29717 23.594 6.40705 23.627 6.44002C25.0225 7.50591 25.8576 8.93442 26.0994 10.6596C26.1104 10.7146 26.1983 10.8354 26.2422 10.8464C26.6488 10.9673 27.0664 11.0662 27.473 11.1651C27.5609 11.1871 27.6488 11.2091 27.7367 11.231L27.8685 11.22C27.9455 11.2091 28.0224 11.1981 28.0993 11.1981C28.2641 11.1761 28.429 11.1651 28.5828 11.1431C30.8464 10.7805 32.4288 8.78058 32.264 6.50595C32.1101 4.28626 30.275 2.49512 28.0883 2.4182C28.0663 2.39622 28.0114 2.39622 27.9565 2.39622Z" fill="black"/>
<path d="M22.6348 30.2129H21.627V32H19.9395V30.2129H16.2773V29.0352L19.8047 23.5977H21.627V28.8945H22.6348V30.2129ZM19.9629 25.4492H19.9277C19.873 25.5898 19.7676 25.8086 19.6113 26.1055L17.8125 28.8945H19.9395V26.252C19.9395 26.0176 19.9473 25.75 19.9629 25.4492Z" fill="#EA0124"/>
</svg>
