<svg width="34" height="38" viewBox="0 0 34 38" fill="none" xmlns="http://www.w3.org/2000/svg">
<path d="M8.91494 37.3073C8.73378 37.1166 8.50494 36.945 8.38098 36.7161C7.88516 35.8389 7.41795 34.9426 6.95073 34.0463C6.85538 33.8652 6.7505 33.7984 6.54073 33.8079C5.52048 33.8556 4.4907 33.8747 3.47046 33.9224C3.12719 33.9414 2.82207 33.8842 2.64091 33.5696C2.45974 33.2645 2.55509 32.9784 2.72672 32.6924C3.84232 30.7758 4.94838 28.8593 6.05444 26.9427C6.12119 26.8283 6.1784 26.7139 6.26421 26.5613C6.11165 26.4851 5.9877 26.4183 5.84467 26.3611C5.39653 26.1704 4.93885 25.9988 4.4907 25.7985C3.18441 25.1978 2.69812 24.3015 2.87928 22.8713C2.94603 22.3278 3.01277 21.7843 3.08905 21.2408C3.1558 20.6687 3.01277 20.1538 2.65998 19.7057C2.30718 19.248 1.93532 18.7903 1.60159 18.3136C1.16298 17.6843 0.838793 16.9787 1.09624 16.2063C1.25833 15.72 1.54438 15.2719 1.81136 14.8238C1.99253 14.5186 2.2309 14.2421 2.46928 13.9751C3.07952 13.2982 3.19394 12.5067 3.04138 11.6391C2.94603 11.1051 2.88882 10.5521 2.86021 10.0086C2.803 8.99786 3.24162 8.23506 4.12837 7.77738C4.67187 7.49133 5.2535 7.25296 5.8256 7.03365C6.5598 6.75714 7.06515 6.27085 7.34167 5.52712C7.49423 5.11711 7.66586 4.70711 7.83749 4.30664C8.4954 2.82871 9.41077 2.34243 11.0031 2.5808C11.4894 2.65708 11.9661 2.71429 12.4524 2.7715C13.0531 2.84778 13.5776 2.67615 14.0543 2.29475C14.2641 2.12312 14.4929 1.96103 14.7027 1.7894C15.2843 1.31265 15.9041 0.902641 16.6383 0.692871C16.8767 0.692871 17.1151 0.692871 17.3534 0.692871C18.1544 0.912176 18.8409 1.35079 19.4225 1.91335C20.2997 2.7429 21.2914 2.92406 22.4261 2.67615C22.8837 2.5808 23.37 2.56173 23.8468 2.5522C24.7049 2.54266 25.3819 2.91453 25.8014 3.64872C26.097 4.17315 26.364 4.72618 26.5642 5.29828C26.8789 6.22317 27.4796 6.83342 28.4045 7.129C28.7764 7.25296 29.1387 7.40552 29.4915 7.57715C30.8359 8.19692 31.3222 9.09321 31.122 10.5616C31.0457 11.1051 30.979 11.6486 30.9217 12.1921C30.855 12.726 30.9885 13.2028 31.3127 13.6319C31.6655 14.0991 32.0373 14.5472 32.3711 15.024C33.2101 16.2254 33.2101 17.1408 32.3711 18.3422C32.1232 18.7045 31.8562 19.0668 31.5606 19.391C30.9408 20.0775 30.8169 20.8689 30.9694 21.7557C31.0648 22.3087 31.1315 22.8618 31.1506 23.4243C31.1887 24.3588 30.7787 25.093 29.9587 25.5506C29.4438 25.8367 28.8813 26.0465 28.3378 26.2848C28.1566 26.3706 27.9659 26.4469 27.7466 26.5423C27.8324 26.6948 27.9087 26.8283 27.985 26.9618C29.0815 28.8593 30.1685 30.7567 31.2745 32.6447C31.4462 32.9403 31.5606 33.2263 31.3794 33.5505C31.1887 33.8842 30.8645 33.9224 30.5117 33.9033C29.501 33.8556 28.4903 33.8366 27.4796 33.7889C27.2698 33.7793 27.165 33.8461 27.0696 34.0273C26.6024 34.9235 26.1352 35.8198 25.6394 36.6971C25.5154 36.9259 25.2866 37.088 25.1054 37.2882C24.9624 37.2882 24.8193 37.2882 24.6763 37.2882C24.5428 37.1547 24.3807 37.0499 24.2758 36.8973C24.0375 36.5254 23.8277 36.144 23.6084 35.7531C23.4272 35.4289 23.494 35.1238 23.761 34.9712C24.0375 34.8091 24.3426 34.9045 24.5428 35.2287C24.6572 35.4098 24.7621 35.591 24.8956 35.8198C25.277 35.0952 25.6393 34.4277 25.9921 33.7603C26.6215 32.5779 26.4784 32.6828 27.7943 32.7114C28.5475 32.721 29.3103 32.7114 30.0922 32.7114C29.0624 30.9284 28.0231 29.1263 26.9456 27.2574C26.8217 27.5148 26.7359 27.696 26.6596 27.8772C26.4403 28.3825 26.2591 28.8974 26.0112 29.3837C25.4391 30.4993 24.6 30.9284 23.3414 30.7949C22.8742 30.7472 22.407 30.69 21.8921 30.6233C22.3402 31.4051 22.7693 32.1393 23.1793 32.864C23.3891 33.2358 23.3414 33.5314 23.0458 33.7031C22.7598 33.8747 22.4642 33.7698 22.2544 33.3979C21.7872 32.597 21.3295 31.7865 20.8623 30.9856C20.7956 30.8712 20.7288 30.7663 20.6335 30.6233C20.3665 30.7949 20.1186 30.9379 19.8897 31.1C19.3844 31.4623 18.9076 31.8628 18.3927 32.1965C17.4774 32.7972 16.5239 32.7877 15.6085 32.187C15.1222 31.8628 14.6741 31.4909 14.1973 31.1477C13.9399 30.9665 13.6634 30.8044 13.3773 30.6137C13.2724 30.7854 13.2057 30.9093 13.1294 31.0333C12.052 32.9021 10.984 34.771 9.89705 36.6303C9.75403 36.8687 9.53472 37.0594 9.35355 37.2692C9.201 37.3073 9.05797 37.3073 8.91494 37.3073ZM10.4024 3.59151C9.69682 3.5343 9.2296 3.85849 8.94355 4.46873C8.76238 4.8406 8.59075 5.222 8.45726 5.62247C8.03772 6.9097 7.19864 7.73924 5.91142 8.15878C5.45374 8.31134 5.01513 8.54018 4.57652 8.75949C4.1093 8.99786 3.88046 9.4174 3.9186 9.93229C3.95674 10.4758 4.01395 11.0193 4.09977 11.5628C4.26186 12.6402 4.1093 13.6223 3.39418 14.4805C3.07952 14.8524 2.78393 15.2433 2.49788 15.6438C1.93532 16.4447 1.93532 16.931 2.49788 17.7319C2.82207 18.1896 3.17487 18.6282 3.51813 19.0668C4.02349 19.7247 4.23326 20.4589 4.14744 21.2789C4.09023 21.8034 4.03302 22.3183 3.95674 22.8427C3.79465 23.9869 4.03302 24.416 5.09141 24.8832C5.47281 25.0548 5.85421 25.2169 6.24514 25.3599C7.28446 25.7413 7.97098 26.466 8.35238 27.4958C8.52401 27.9535 8.70517 28.4016 8.92448 28.8402C9.30588 29.6316 9.72542 29.8509 10.5836 29.7556C10.9745 29.7174 11.3654 29.6793 11.7564 29.603C12.9673 29.3646 14.0448 29.603 14.9887 30.4326C15.2748 30.69 15.5799 30.9093 15.8946 31.1286C16.7623 31.7579 17.2581 31.7579 18.1353 31.1286C18.593 30.8044 19.0221 30.4516 19.4702 30.1179C20.1472 29.6221 20.9004 29.4409 21.73 29.5458C22.2735 29.6221 22.817 29.6793 23.3605 29.746C24.3044 29.8605 24.724 29.6316 25.1245 28.7735C25.3056 28.3825 25.4773 27.9916 25.6203 27.5911C26.0208 26.4374 26.7931 25.6937 27.9373 25.2837C28.4522 25.1025 28.948 24.8641 29.4343 24.6162C29.9015 24.3778 30.1303 23.9583 30.0922 23.4434C30.0541 22.8999 29.9968 22.3564 29.911 21.8129C29.7489 20.7545 29.892 19.7724 30.5976 18.9238C30.9122 18.5424 31.2269 18.1419 31.5129 17.7319C32.0755 16.931 32.0755 16.4447 31.5129 15.6438C31.1792 15.1765 30.8169 14.7379 30.4736 14.2803C29.9873 13.6319 29.7775 12.9072 29.8634 12.0967C29.9396 11.4007 30.035 10.7046 30.0922 9.99904C30.1399 9.40787 29.8729 8.95972 29.3389 8.69274C28.8908 8.47344 28.4331 8.26367 27.9659 8.10157C26.774 7.69157 26.0017 6.90016 25.5821 5.71782C25.4105 5.222 25.1817 4.75478 24.9433 4.28757C24.7049 3.82035 24.3044 3.58198 23.78 3.62012C23.3509 3.64872 22.9219 3.65826 22.5023 3.74407C21.1293 4.03012 19.8993 3.79175 18.8504 2.80964C18.6025 2.57127 18.3165 2.37103 18.0304 2.18033C17.2295 1.6273 16.7718 1.6273 15.9708 2.18033C15.5227 2.49499 15.0936 2.83825 14.6646 3.17197C13.8827 3.79175 12.9959 3.94431 12.0329 3.80128C11.4894 3.73454 10.9459 3.65826 10.4024 3.59151ZM3.92814 32.7305C4.88164 32.7305 5.80653 32.7591 6.73143 32.721C7.23678 32.7019 7.56097 32.8735 7.78028 33.3312C8.07586 33.9414 8.40959 34.5326 8.73378 35.1333C8.85773 35.3622 8.97215 35.5815 9.12471 35.858C10.1354 34.1035 11.1175 32.4063 12.1282 30.6614C11.5847 30.7281 11.108 30.7854 10.6217 30.8426C9.42983 30.9761 8.59075 30.547 8.02819 29.4791C7.76121 28.9642 7.56097 28.4111 7.33213 27.8772C7.25585 27.7055 7.1605 27.5339 7.05562 27.3146C5.9877 29.1644 4.95792 30.957 3.92814 32.7305Z" fill="black" stroke="black" stroke-width="0.5"/>
<path d="M16.4667 5.97535C16.4667 5.67023 16.4667 5.41279 16.4667 5.15534C16.4667 4.33533 16.6001 4.05882 17.0101 4.06835C17.4106 4.07789 17.5346 4.34487 17.5346 5.17441C17.5346 5.43186 17.5346 5.6893 17.5346 5.91814C18.3164 6.06117 19.0602 6.15652 19.7848 6.34722C20.5 6.53792 21.196 6.8335 21.9207 7.09095C22.1114 6.75722 22.3116 6.39489 22.5309 6.0421C22.7312 5.69884 23.0267 5.60349 23.3033 5.76558C23.5893 5.92768 23.6465 6.22326 23.4558 6.56652C23.2556 6.92885 23.0458 7.29118 22.8265 7.67258C22.9791 7.787 23.1316 7.88236 23.2651 7.98724C23.5512 8.20655 23.6179 8.51167 23.4367 8.76911C23.2556 9.02656 22.9505 9.07423 22.6453 8.86446C21.6918 8.18748 20.6621 7.69165 19.5369 7.377C14.102 5.84186 8.33329 9.54145 7.47514 15.1194C6.68374 20.2493 9.86843 24.95 14.922 26.1133C20.2521 27.3433 25.6775 23.6533 26.5166 18.2469C26.9456 15.4532 26.2686 12.9359 24.5523 10.6952C24.4475 10.5617 24.3044 10.3805 24.314 10.2375C24.333 10.0563 24.457 9.83703 24.6096 9.72261C24.8289 9.56052 25.0768 9.65587 25.2389 9.8561C25.5058 10.1803 25.7442 10.514 26.0112 10.8668C26.364 10.6666 26.7168 10.4568 27.06 10.2661C27.4319 10.0563 27.7275 10.104 27.9087 10.3805C28.0898 10.6761 27.9754 10.9717 27.594 11.2005C27.2794 11.3912 26.9552 11.5724 26.6405 11.7536C26.6214 11.7631 26.6024 11.7822 26.5547 11.8298C27.2221 13.1743 27.6131 14.6045 27.6989 16.1492C28.128 16.1492 28.5284 16.1492 28.9289 16.1492C29.3484 16.1492 29.5964 16.3494 29.5964 16.6832C29.6059 17.036 29.3675 17.2267 28.9098 17.2267C28.5189 17.2267 28.128 17.2267 27.6989 17.2267C27.594 18.7618 27.2317 20.2016 26.5261 21.5842C26.9075 21.8035 27.2603 22.0132 27.6131 22.223C27.9754 22.4423 28.0708 22.7379 27.8991 23.0239C27.737 23.2909 27.4224 23.3481 27.0887 23.1574C26.7359 22.9572 26.3831 22.757 25.9921 22.5281C25.1435 23.7772 24.1137 24.8547 22.8074 25.7033C23.0458 26.1133 23.3033 26.5042 23.4749 26.9238C23.5416 27.0954 23.5035 27.391 23.3891 27.5245C23.2842 27.6484 23.0077 27.6675 22.817 27.6389C22.7025 27.6198 22.5786 27.4482 22.5023 27.3242C22.2925 26.981 22.0923 26.6282 21.9016 26.2849C21.2818 26.5138 20.6907 26.7903 20.0804 26.9524C19.3462 27.1431 18.593 27.2575 17.8397 27.3719C17.5918 27.41 17.5155 27.4863 17.525 27.7247C17.5441 28.0584 17.5346 28.3922 17.525 28.7259C17.5155 29.1073 17.3153 29.3171 16.9911 29.3171C16.6669 29.3171 16.4762 29.1073 16.4571 28.7259C16.4476 28.3731 16.4667 28.0108 16.4476 27.658C16.438 27.5626 16.3236 27.4101 16.2473 27.4005C14.8076 27.3052 13.4631 26.9047 12.1759 26.2849C12.1568 26.2754 12.1282 26.2849 12.0805 26.2849C11.8803 26.6282 11.6896 26.9714 11.4798 27.3242C11.2701 27.677 10.965 27.7915 10.6789 27.6198C10.3929 27.4577 10.3452 27.1526 10.5454 26.7807C10.7456 26.4279 10.9459 26.0847 11.1652 25.7033C9.8875 24.8547 8.82911 23.8058 7.99003 22.5186C7.60863 22.7379 7.2463 22.9477 6.88397 23.1479C6.53118 23.3481 6.20698 23.2814 6.05442 22.9858C5.90186 22.6998 6.00675 22.4232 6.35001 22.223C6.69327 22.0132 7.04607 21.813 7.437 21.5937C6.75048 20.2207 6.35954 18.7809 6.27373 17.2362C5.81605 17.2362 5.39651 17.2362 4.9865 17.2362C4.59557 17.2267 4.36673 17.0264 4.37626 16.7022C4.3858 16.3876 4.6051 16.1778 4.97697 16.1683C5.40604 16.1587 5.83512 16.1683 6.28326 16.1683C6.37861 14.6331 6.75048 13.2029 7.45607 11.8203C7.10328 11.6201 6.76955 11.4198 6.43582 11.2196C6.01628 10.9812 5.90186 10.6952 6.08303 10.3901C6.26419 10.0945 6.56932 10.0563 6.98886 10.3042C7.32258 10.4949 7.64677 10.6856 7.99957 10.8859C8.84818 9.60819 9.89703 8.54981 11.1843 7.71072C10.965 7.31979 10.7552 6.96699 10.5549 6.60466C10.3547 6.25187 10.4119 5.96582 10.6884 5.79419C10.9745 5.61302 11.2701 5.71791 11.4894 6.08024C11.6991 6.4235 11.8994 6.77629 12.1187 7.16723C13.4727 6.47117 14.9029 6.0707 16.4667 5.97535Z" fill="black" stroke="black" stroke-width="0.5"/>
<path d="M19.8706 14.1752C20.3951 14.099 20.5476 14.1562 20.7383 14.6234C21.2532 15.9011 21.8062 17.1692 22.2353 18.4755C23.0649 20.9737 21.4439 24.2537 18.2592 24.9975C14.531 25.8652 11.108 22.7186 11.6228 18.9237C11.8135 17.503 12.4047 16.292 13.4059 15.2718C13.8922 14.7664 14.3594 14.242 14.8361 13.7176C15.0936 13.4315 15.3987 13.3743 15.6466 13.5841C15.885 13.7843 15.9136 14.099 15.6657 14.3755C15.1508 14.9666 14.5978 15.5292 14.0733 16.1204C12.748 17.6078 12.2712 19.2955 12.9482 21.2121C13.6538 23.2049 15.7515 24.3777 17.8301 23.9963C19.8706 23.6244 21.4439 21.7651 21.3581 19.7055C21.32 18.9618 21.0434 18.2276 20.8146 17.503C20.6239 16.8927 20.3379 16.3111 20.0804 15.6722C19.8325 15.9011 19.6227 16.1013 19.4034 16.292C19.0888 16.5685 18.755 16.5971 18.4976 16.3778C18.2497 16.1681 18.2115 15.8629 18.4022 15.5006C18.9839 14.4422 18.9553 13.3838 18.3927 12.335C18.0876 11.7629 17.7729 11.1908 17.4201 10.5519C17.2962 10.981 17.2008 11.3529 17.0864 11.7152C16.9529 12.1347 16.6764 12.3064 16.3427 12.1824C16.0376 12.068 15.9803 11.7915 16.0662 11.3719C16.2283 10.571 16.3522 9.76052 16.4666 8.95004C16.5048 8.65446 16.5143 8.36841 16.8671 8.27306C17.2199 8.17771 17.4201 8.37794 17.5822 8.66399C18.1734 9.72238 18.7646 10.7808 19.3557 11.8487C19.7276 12.5638 19.9183 13.3266 19.8706 14.1752Z" fill="black" stroke="black" stroke-width="0.25"/>
<path d="M19.5755 20.6877C19.5755 22.3849 18.3073 23.6054 16.8485 23.4719C15.2752 23.3288 14.2168 21.9844 14.4647 20.4302C14.6077 19.5339 14.9701 18.7234 15.4087 17.9416C15.7519 17.3313 16.1333 16.7402 16.4957 16.1395C16.6387 15.9011 16.8389 15.7771 17.125 15.8439C17.411 15.9106 17.535 16.1204 17.535 16.3969C17.535 17.3599 17.9736 18.1037 18.641 18.7521C19.2417 19.3337 19.5659 20.0297 19.5755 20.6877ZM16.591 17.8939C16.2573 18.6662 15.914 19.4481 15.5994 20.2395C15.5136 20.4684 15.4945 20.7353 15.504 20.9737C15.5326 21.8605 16.3431 22.5279 17.2013 22.3944C17.7829 22.3086 18.1834 21.9844 18.3836 21.4409C18.6124 20.8211 18.4789 20.249 18.0689 19.7342C17.6017 19.143 17.1345 18.5614 16.591 17.8939Z" fill="black" stroke="black" stroke-width="0.25"/>
</svg>
