<svg width="31" height="35" viewBox="0 0 31 35" fill="none" xmlns="http://www.w3.org/2000/svg">
<path d="M6.72631 0.853516C13.619 0.853516 20.5118 0.853516 27.4045 0.853516C27.4218 0.870856 27.4392 0.888196 27.4565 0.896866C29.2946 1.34771 30.1963 2.50083 30.1963 4.40825C30.1963 10.6334 30.1963 16.8585 30.1963 23.0923C30.1963 25.6847 30.2049 28.2683 30.1963 30.8607C30.1963 32.3346 29.2946 33.5658 27.9247 34.0079C27.7513 34.06 27.5779 34.112 27.4045 34.1553C20.5118 34.1553 13.619 34.1553 6.72631 34.1553C6.65694 34.1293 6.58758 34.1033 6.51822 34.086C5.21771 33.7565 4.37671 32.9589 4.0299 31.6583C3.9432 31.3376 3.9432 30.9994 3.89118 30.644C3.11954 30.6786 2.39125 30.5139 1.78435 29.9937C1.17744 29.4735 0.847976 28.8146 0.813296 28.0169C0.778615 27.3406 0.986698 26.7337 1.41153 26.2049C2.05312 25.4072 2.92013 25.1211 3.90852 25.1731C3.90852 24.6703 3.90852 24.1934 3.90852 23.6905C3.09353 23.7426 2.36524 23.5692 1.74967 23.0229C1.13409 22.4767 0.813296 21.7831 0.813296 20.9595C0.813296 20.2745 1.04739 19.6676 1.5069 19.1474C2.13982 18.4278 2.97215 18.185 3.91719 18.2197C3.91719 17.7255 3.91719 17.2573 3.91719 16.7891C1.92307 16.5377 0.917337 15.7054 0.821966 14.2228C0.778615 13.5725 0.943347 12.9743 1.32483 12.4454C1.96642 11.5611 2.86811 11.2403 3.91719 11.2923C3.91719 10.7808 3.91719 10.3039 3.91719 9.83573C1.98376 9.69701 0.873986 8.7433 0.821966 7.20869C0.795955 6.49775 1.01271 5.86483 1.47222 5.31861C2.11381 4.57298 2.95481 4.30421 3.9432 4.35623C3.9432 4.21751 3.93453 4.11347 3.9432 4.00943C3.98655 2.86498 4.48942 1.95462 5.46914 1.35638C5.85063 1.13096 6.30147 1.01825 6.72631 0.853516ZM5.23505 11.3096C5.43446 11.3096 5.59052 11.301 5.75525 11.3096C7.11646 11.3703 8.2349 12.4541 8.33894 13.8153C8.37362 14.3095 8.15687 14.6303 7.75805 14.6736C7.35922 14.717 7.09045 14.4309 7.0471 13.9367C6.96907 13.0263 6.15408 12.4454 5.24372 12.6535C5.24372 14.5002 5.24372 16.347 5.24372 18.2284C5.38244 18.2284 5.51249 18.2197 5.64254 18.2284C7.15114 18.2891 8.34761 19.4682 8.34761 20.8901C8.34761 21.2976 8.11352 21.575 7.74938 21.601C7.35922 21.6271 7.09045 21.3756 7.0471 20.9508C6.9604 19.9624 6.24078 19.3988 5.25239 19.5636C5.25239 21.4276 5.25239 23.2917 5.25239 25.1731C5.44313 25.1731 5.59919 25.1645 5.76392 25.1731C7.15114 25.2338 8.3216 26.4129 8.33894 27.7915C8.33894 27.9736 8.27825 28.1816 8.16554 28.329C8.00948 28.5458 7.75805 28.6065 7.49794 28.5111C7.19449 28.4071 7.06444 28.1816 7.0471 27.8609C6.97774 26.8898 6.17142 26.2916 5.22638 26.517C5.22638 27.9389 5.22638 29.3694 5.22638 30.8C5.22638 32.0052 6.06738 32.8375 7.27252 32.8375C13.7924 32.8375 20.321 32.8375 26.8409 32.8375C28.0548 32.8375 28.8871 32.0052 28.8871 30.8C28.8871 21.9392 28.8871 13.0697 28.8871 4.20884C28.8871 2.97769 28.0548 2.15403 26.8236 2.15403C20.3124 2.15403 13.8011 2.15403 7.28119 2.15403C7.07311 2.15403 6.86503 2.17137 6.67428 2.22339C5.72057 2.45748 5.03563 3.49789 5.2784 4.3649C5.43446 4.3649 5.59919 4.35623 5.76392 4.3649C7.14247 4.42559 8.28692 5.57872 8.34761 6.94859C8.36495 7.40811 8.12219 7.7289 7.72337 7.73757C7.34188 7.75491 7.08178 7.47747 7.0471 7.02662C6.96907 6.09892 6.16275 5.50068 5.23505 5.70877C5.23505 7.56417 5.23505 9.4109 5.23505 11.3096ZM3.90852 8.50921C3.90852 7.54683 3.90852 6.61913 3.90852 5.68276C3.25826 5.60473 2.71205 5.75212 2.33923 6.31567C2.00977 6.80987 2.0011 7.33874 2.32189 7.84161C2.68604 8.42251 3.24092 8.58724 3.90852 8.50921ZM3.90852 26.491C3.1889 26.4216 2.62535 26.6037 2.27854 27.2279C1.98376 27.7655 2.03578 28.2944 2.40859 28.7799C2.79008 29.2741 3.31028 29.3955 3.90852 29.3088C3.90852 28.3637 3.90852 27.436 3.90852 26.491ZM3.90852 12.6362C3.17156 12.5321 2.62535 12.7662 2.30455 13.3038C2.0011 13.8153 2.04445 14.4482 2.41726 14.9164C2.78141 15.3672 3.38832 15.5667 3.90852 15.4106C3.90852 14.4829 3.90852 13.5639 3.90852 12.6362ZM3.90852 19.5462C3.20624 19.4855 2.64269 19.6589 2.29588 20.2659C1.99243 20.7947 2.02711 21.3323 2.38258 21.8178C2.7554 22.3293 3.29294 22.4594 3.90852 22.3727C3.90852 21.419 3.90852 20.4999 3.90852 19.5462Z" fill="black" stroke="black" stroke-width="0.75"/>
<path d="M12.2145 16.165C12.3706 15.4541 12.44 14.7605 12.6827 14.1362C13.4977 11.9774 15.0757 10.6855 17.3559 10.278C17.564 10.2434 17.642 10.174 17.642 9.94857C17.6334 9.35033 17.8588 9.04688 18.2836 9.04688C18.7084 9.04688 18.9252 9.359 18.9339 9.94857C18.9339 10.0266 18.9339 10.096 18.9339 10.2C19.142 10.2434 19.3414 10.278 19.5408 10.3214C22.1678 10.8849 24.0839 13.1218 24.2226 15.8096C24.24 16.0697 24.3093 16.1737 24.5781 16.1564C24.8729 16.1304 25.159 16.1477 25.4538 16.1564C25.8006 16.165 25.87 16.2344 25.8439 16.5899C25.7919 17.5089 24.9769 18.2719 24.0146 18.2719C22.5233 18.2805 21.0234 18.2719 19.5321 18.2719C17.2259 18.2719 14.9196 18.2719 12.6047 18.2719C11.6336 18.2719 10.8967 17.665 10.7233 16.7199C10.6366 16.2604 10.7233 16.1477 11.1828 16.1477C11.5469 16.165 11.9198 16.165 12.2145 16.165Z" fill="black"/>
<path d="M18.2924 21.8958C20.4079 21.8958 22.5148 21.8958 24.6303 21.8958C25.4973 21.8958 25.8094 22.208 25.8094 23.0663C25.8094 23.3698 25.8181 23.6732 25.8094 23.9767C25.7921 24.6616 25.4539 24.9997 24.7603 25.0171C24.717 25.0171 24.6736 25.0171 24.6303 25.0171C20.3993 25.0171 16.1596 25.0171 11.9286 25.0171C11.7985 25.0171 11.6685 25.0171 11.5384 24.991C11.0876 24.9304 10.7755 24.5922 10.7581 24.1327C10.7408 23.6905 10.7408 23.2484 10.7581 22.7975C10.7755 22.286 11.1136 21.9305 11.6338 21.8958C11.9979 21.8785 12.3708 21.8872 12.7349 21.8872C14.5903 21.8958 16.437 21.8958 18.2924 21.8958Z" fill="black"/>
</svg>
