<svg width="40" height="40" viewBox="0 0 40 40" fill="none" xmlns="http://www.w3.org/2000/svg">
<path d="M0 20.3126C0.104167 19.5939 0.166667 18.8647 0.3125 18.1564C1.47917 12.3647 4.60417 7.98972 9.79167 5.14597C12.9271 3.42722 16.3125 2.73972 19.875 2.98972C20.9375 3.06264 21.9792 3.2918 23.0312 3.48972C23.6771 3.61472 23.8021 3.86472 23.6354 4.48972C22.6875 8.07305 21.7396 11.6564 20.8021 15.2293C20.3646 16.896 19.9167 18.5731 19.4792 20.2397C19.4479 20.3439 19.4271 20.4585 19.3958 20.6251C20.3646 20.3751 21.2917 20.1356 22.2188 19.896C26.6562 18.7397 31.0938 17.5835 35.5417 16.4168C36.2083 16.2397 36.4271 16.3751 36.5833 17.0731C38.1667 24.4168 36.125 30.6147 30.5417 35.5939C27.7917 38.0418 24.4792 39.3751 20.8229 39.8439C20.4479 39.896 20.0833 39.9376 19.7083 39.9897C18.9271 39.9897 18.1458 39.9897 17.3646 39.9897C17.2812 39.9689 17.1875 39.9376 17.1042 39.9272C15.8125 39.6876 14.4792 39.5835 13.25 39.1876C6.3125 36.9272 2 32.2293 0.385417 25.1147C0.197917 24.2814 0.125 23.4272 0 22.5835C0 21.8231 0 21.0626 0 20.3126ZM22.4062 4.56264C16.4583 3.08347 8.46875 5.08347 4 12.0001C-0.46875 18.9064 0.4375 27.7814 6.15625 33.6147C11.8229 39.396 20.7813 40.5001 27.6771 36.2397C34.6146 31.9585 37.0625 23.9376 35.4792 17.6564C34.6979 17.8647 33.9062 18.0731 33.125 18.271C33.125 18.3543 33.125 18.396 33.125 18.4272C33.1354 18.5001 33.1562 18.5835 33.1667 18.6564C33.6354 21.1668 33.5104 23.6356 32.6979 26.0522C30.4479 32.7606 24.1771 36.8856 17.1042 36.2397C13 35.8647 9.625 34.0106 7.03125 30.8335C4.27083 27.4481 3.25 23.5418 3.84375 19.2189C4.05208 17.6981 4.52083 16.2606 5.20833 14.8856C5.40625 14.4897 5.65625 14.3751 5.97917 14.5001C6.375 14.6564 6.45833 14.9689 6.23958 15.4376C4.82292 18.3856 4.5 21.4481 5.22917 24.6356C6.84375 31.7501 14.2292 36.4481 21.3437 34.8751C27.9896 33.4064 32.4479 27.6981 32.25 20.896C32.2292 20.1251 32.0833 19.3543 32 18.5626C31.6042 18.6668 31.2917 18.7501 30.9687 18.8231C30.7708 18.8647 30.7083 18.9481 30.6875 19.1564C30.5729 20.3335 29.8125 21.2293 28.7292 21.521C27.6458 21.8022 26.5521 21.396 25.8958 20.4376C25.75 20.2293 25.6354 20.2189 25.4167 20.271C24.6146 20.4897 23.8125 20.6981 23 20.9064C21.6146 21.271 20.2292 21.6251 18.8437 21.9793C18.2187 22.1356 17.8854 21.7918 18.0312 21.1668C18.0521 21.0939 18.0625 21.0106 18.0833 20.9376C18.4583 19.521 18.8333 18.1043 19.1979 16.6876C17.5417 15.8751 16.8958 14.7501 17.3021 13.3751C17.6979 12.0106 18.8542 11.3439 20.5625 11.5314C20.8646 10.3856 21.1667 9.23972 21.4792 8.07305C21.3542 8.0418 21.2604 8.00014 21.1562 7.98972C18.3958 7.4793 15.7188 7.76055 13.125 8.86472C11.0521 9.75014 9.32292 11.0939 7.89583 12.8335C7.59375 13.1981 7.28125 13.2397 6.98958 12.9897C6.71875 12.7501 6.70833 12.4272 6.98958 12.0939C10.2604 8.2293 14.4167 6.37514 19.5 6.62514C20.2604 6.6668 21.0104 6.7918 21.7917 6.88555C21.9896 6.11472 22.1979 5.3543 22.4062 4.56264ZM19.5208 15.4897C19.7604 14.5522 20 13.646 20.2396 12.7397C19.4271 12.4897 18.6458 12.9376 18.4167 13.7293C18.1979 14.5106 18.7917 15.4168 19.5208 15.4897ZM26.9583 19.8856C27.4167 20.4168 28.0208 20.5731 28.6042 20.3335C29.1146 20.1356 29.4375 19.6981 29.4271 19.2397C28.6146 19.4481 27.8125 19.6564 26.9583 19.8856Z" fill="black" stroke="black" stroke-width="0.5"/>
<path d="M27.1871 0C28.1454 0.385417 29.1454 0.708333 30.0725 1.15625C33.3433 2.72917 35.9266 5.09375 37.8537 8.16667C38.1037 8.5625 38.0621 8.875 37.7391 9.07292C37.4162 9.27083 37.1141 9.17708 36.8641 8.78125C34.6558 5.3125 31.6454 2.84375 27.7704 1.44792C27.6558 1.40625 27.5308 1.375 27.3746 1.32292C27.1454 2.125 26.9162 2.90625 26.6871 3.72917C31.4475 5.41667 34.6141 8.66667 36.26 13.4479C37.0621 13.2396 37.8537 13.0313 38.6766 12.8125C38.5621 12.4583 38.4475 12.1354 38.3433 11.8021C38.2287 11.4479 38.3641 11.1667 38.6871 11.0417C39.01 10.9271 39.3016 11.0521 39.4371 11.4063C39.635 11.9271 39.8121 12.4479 39.9891 12.9688C39.9891 13.125 39.9891 13.2813 39.9891 13.4375C39.7704 13.5729 39.5621 13.7708 39.3121 13.8438C33.6871 15.3542 28.0621 16.8542 22.4475 18.3542C22.1662 18.4271 21.885 18.4896 21.6454 18.25C21.4058 18.0104 21.4683 17.7396 21.5412 17.4479C23.1558 11.8438 24.7496 6.25 26.3641 0.65625C26.4371 0.416667 26.6454 0.21875 26.7912 0C26.9266 0 27.0621 0 27.1871 0ZM35.0829 13.75C34.3433 10.1563 29.6454 5.41667 26.3537 4.9375C26.0308 6.0625 25.7079 7.19792 25.3954 8.3125C25.4683 8.36458 25.4996 8.38542 25.5308 8.40625C26.5621 9.08333 26.9683 10.1354 26.6454 11.3125C26.3329 12.4792 25.4371 13.2188 24.2287 13.2708C24.01 13.2813 23.9475 13.3646 23.8954 13.5521C23.6037 14.6042 23.2912 15.6458 22.9996 16.6979C22.9787 16.7813 22.9787 16.8646 22.9683 16.9896C24.9475 16.4583 26.8954 15.9479 28.8329 15.4271C28.6766 13.5729 29.3225 12.4792 30.7704 12.1042C32.1766 11.7396 33.1766 12.3438 33.9891 14.0521C34.3016 13.9688 34.6141 13.8958 34.9266 13.8125C34.9579 13.8021 35.01 13.7813 35.0829 13.75ZM32.7704 14.3854C32.6766 13.8021 32.3641 13.4271 31.8746 13.2917C31.2808 13.125 30.5516 13.3438 30.1766 13.8125C29.8746 14.1979 29.8329 14.625 30.01 15.125C30.9475 14.8646 31.8641 14.625 32.7704 14.3854ZM25.0308 9.5625C24.8121 10.3438 24.5933 11.1042 24.3746 11.875C24.3537 11.9375 24.3537 11.9896 24.3433 12.0625C24.9787 11.9688 25.4162 11.5729 25.5621 10.9583C25.7079 10.375 25.5412 9.9375 25.0308 9.5625Z" fill="black" stroke="black" stroke-width="0.5"/>
<path d="M24.3747 27.1772C25.8331 27.1772 27.0101 28.3647 26.9997 29.8127C26.9893 31.271 25.8122 32.4272 24.3435 32.4168C22.9164 32.4168 21.7393 31.2189 21.7393 29.7918C21.7289 28.3543 22.9164 27.1772 24.3747 27.1772ZM24.3747 28.3543C23.5622 28.3439 22.906 29.0002 22.906 29.8022C22.906 30.5835 23.5518 31.2397 24.3331 31.2606C25.1456 31.271 25.8122 30.6356 25.8226 29.8335C25.8331 29.021 25.1872 28.3543 24.3747 28.3543Z" fill="black" stroke="black" stroke-width="0.5"/>
<path d="M12.5937 16.406C12.6042 17.8643 11.4375 19.0414 9.97917 19.0518C8.54167 19.0622 7.34375 17.8643 7.34375 16.4164C7.34375 14.9789 8.5 13.8122 9.94792 13.8018C11.4167 13.7914 12.5833 14.9477 12.5937 16.406ZM11.4167 16.4372C11.4271 15.6247 10.7917 14.9789 9.97917 14.9685C9.1875 14.9581 8.53125 15.5935 8.51042 16.3747C8.48958 17.1768 9.13542 17.8539 9.9375 17.8747C10.7396 17.8956 11.4167 17.2497 11.4167 16.4372Z" fill="black" stroke="black" stroke-width="0.5"/>
<path d="M11.2608 25.6875C12.7191 25.6875 13.8962 26.8646 13.8962 28.3125C13.8962 29.75 12.6983 30.9375 11.24 30.9271C9.81289 30.9271 8.64623 29.7396 8.63581 28.3125C8.62539 26.8542 9.80248 25.6875 11.2608 25.6875ZM9.81289 28.3021C9.81289 29.1042 10.4691 29.7708 11.2712 29.7604C12.0733 29.7604 12.74 29.0833 12.7296 28.2917C12.7191 27.4896 12.0629 26.8542 11.24 26.8646C10.4379 26.8646 9.80248 27.5 9.81289 28.3021Z" fill="black" stroke="black" stroke-width="0.5"/>
<path d="M14.1771 21.2813C14.0208 21.1563 13.7812 21.0521 13.7187 20.8855C13.6562 20.698 13.6875 20.375 13.8125 20.25C14.5521 19.5521 15.3125 18.8959 16.0833 18.2396C16.3437 18.0209 16.625 18.1042 16.8437 18.3438C17.0521 18.573 17.0937 18.8646 16.8542 19.0834C16.0937 19.7709 15.3229 20.4375 14.5417 21.1042C14.4688 21.1875 14.3438 21.2084 14.1771 21.2813Z" fill="black" stroke="black" stroke-width="0.5"/>
<path d="M13.6356 10.1667C13.7085 10.2292 13.9064 10.3333 14.0001 10.4896C14.5001 11.2917 14.9689 12.1146 15.4376 12.9375C15.6356 13.2708 15.5314 13.5937 15.2189 13.7708C14.9272 13.9375 14.6356 13.8542 14.4272 13.5208C13.9376 12.7083 13.4585 11.8958 12.9897 11.0729C12.7606 10.6354 13.0418 10.1563 13.6356 10.1667Z" fill="black" stroke="black" stroke-width="0.5"/>
<path d="M7.95881 23.5209C7.92756 23.5209 7.86506 23.5209 7.80256 23.5209C7.44839 23.5105 7.22964 23.3126 7.19839 23.0001C7.16714 22.6667 7.37548 22.3959 7.74006 22.3647C8.70881 22.2813 9.67756 22.2084 10.6463 22.1459C10.9901 22.1251 11.2192 22.3438 11.2505 22.6772C11.2817 23.0209 11.0942 23.2709 10.7192 23.3022C9.81298 23.3855 8.90673 23.448 7.95881 23.5209Z" fill="black" stroke="black" stroke-width="0.5"/>
<path d="M24.3331 23.1042C24.4894 23.1042 24.6456 23.0938 24.8019 23.1042C25.1144 23.1251 25.2706 23.3126 25.3019 23.6042C25.3331 23.9063 25.2289 24.1667 24.906 24.2293C24.5727 24.2918 24.2394 24.3022 23.8956 24.323C23.2498 24.3751 22.604 24.4272 21.9477 24.4688C21.531 24.4897 21.2915 24.3022 21.2498 23.9584C21.2081 23.6042 21.4477 23.3438 21.8644 23.3126C22.6769 23.2397 23.4998 23.1876 24.3123 23.1355C24.3331 23.1147 24.3331 23.1042 24.3331 23.1042Z" fill="black" stroke="black" stroke-width="0.5"/>
<path d="M19.5417 26.3544C19.5313 26.9064 19.0626 27.2085 18.6876 26.9794C17.8334 26.4585 16.9896 25.9169 16.1563 25.3648C15.8855 25.1877 15.8438 24.8856 16.0209 24.6044C16.198 24.3231 16.4792 24.2294 16.7605 24.396C17.6251 24.9273 18.4792 25.4794 19.323 26.0314C19.448 26.1148 19.5001 26.2919 19.5417 26.3544Z" fill="black" stroke="black" stroke-width="0.5"/>
<path d="M28.219 26.604C27.6877 26.6144 27.3856 26.1353 27.6252 25.7499C28.1565 24.8853 28.7294 24.0519 29.3023 23.2186C29.4898 22.9582 29.7711 22.9582 30.0315 23.1144C30.3127 23.2915 30.4169 23.5728 30.2398 23.854C29.7086 24.6978 29.1461 25.5311 28.5836 26.354C28.5002 26.4894 28.3127 26.5519 28.219 26.604Z" fill="black" stroke="black" stroke-width="0.5"/>
<path d="M17.3754 29.4378C17.4588 29.5211 17.6879 29.6461 17.7504 29.8232C18.0525 30.7815 18.3129 31.7399 18.5733 32.7086C18.6567 33.0211 18.4796 33.2503 18.1879 33.344C17.8858 33.4378 17.5733 33.3753 17.4796 33.0524C17.1775 32.0732 16.9067 31.0836 16.6567 30.094C16.5525 29.7086 16.8442 29.4274 17.3754 29.4378Z" fill="black" stroke="black" stroke-width="0.5"/>
<path d="M29.9684 10.5732C29.7809 10.7399 29.6247 10.9794 29.4059 11.0732C29.1351 11.1878 28.8747 11.0107 28.7809 10.7399C28.4476 9.78153 28.1351 8.8232 27.833 7.85445C27.7393 7.56278 27.9372 7.28153 28.2393 7.1982C28.583 7.10445 28.8434 7.23986 28.9684 7.60445C29.2601 8.4482 29.5309 9.30236 29.8122 10.1565C29.8434 10.2711 29.8747 10.3857 29.8955 10.5003C29.9268 10.5107 29.9476 10.5419 29.9684 10.5732Z" fill="black" stroke="black" stroke-width="0.5"/>
</svg>
