<svg width="35" height="35" viewBox="0 0 35 35" fill="none" xmlns="http://www.w3.org/2000/svg">
<g clip-path="url(#clip0)">
<path d="M27.8565 21.781C27.4015 22.2415 27.1914 22.9047 27.2964 23.5678L28.8539 32.631C28.9764 33.4047 28.6789 34.1784 28.0664 34.6205C27.4714 35.081 26.6664 35.1363 26.0189 34.7678L18.2664 30.5126C18.0039 30.3652 17.6889 30.2731 17.3914 30.2731H16.919C16.7615 30.2915 16.5864 30.3468 16.4464 30.4389L8.69393 34.7126C8.30893 34.9152 7.87145 34.9889 7.45145 34.9152C6.41895 34.7126 5.71892 33.6626 5.89392 32.5757L7.45145 23.5126C7.55645 22.8494 7.34644 22.1863 6.89144 21.7073L0.573908 15.26C0.048908 14.7257 -0.143573 13.9152 0.101427 13.1784C0.328927 12.4415 0.941453 11.9257 1.65895 11.7968L10.3565 10.4705C11.0215 10.3968 11.5989 9.9731 11.8964 9.34678L15.7289 1.07572C15.8164 0.89151 15.9389 0.725741 16.0789 0.578372L16.2364 0.449411C16.3239 0.357306 16.4114 0.26522 16.5164 0.209957L16.7089 0.136257L17.0064 0.00732422H17.7415C18.4065 0.0810084 18.9839 0.486255 19.2814 1.11257L23.1664 9.34678C23.4464 9.95468 23.9889 10.3599 24.6189 10.4705L33.3164 11.7968C34.0514 11.9073 34.6639 12.4415 34.909 13.1784C35.1365 13.9152 34.9439 14.7257 34.4014 15.26L27.8565 21.781Z" fill="#FED402"/>
</g>
<defs>
<clipPath id="clip0">
<rect width="35" height="35" fill="white"/>
</clipPath>
</defs>
</svg>
