<svg width="40" height="40" viewBox="0 0 40 40" fill="none" xmlns="http://www.w3.org/2000/svg">
<path d="M40 22.8961C40 23.3961 40 23.8857 40 24.3753C39.9583 24.719 39.9062 25.0628 39.8646 25.4169C39.2604 30.3961 37.1146 34.5836 33.4167 37.9482C32.5937 38.6982 31.6667 39.3232 30.7917 40.0003C23.6042 40.0003 16.4167 40.0003 9.22917 40.0003C9.1875 39.9586 9.14583 39.9169 9.09375 39.8753C4.30208 36.6565 1.34375 32.219 0.3125 26.5211C0.166667 25.8128 0.09375 25.094 0 24.3753C0 23.8753 0 23.3857 0 22.8961C0.229167 22.469 0.583333 22.3128 1.0625 22.344C1.55208 22.3753 2.05208 22.3544 2.58333 22.3544C1.77083 20.8857 1.70833 20.2503 2.15625 18.5419C1.70833 18.1253 1.25 17.7607 0.854167 17.3336C0.354167 16.7919 0.166667 16.094 0 15.3961C0 15.0628 0 14.719 0 14.3753C0.03125 14.2815 0.0625 14.1774 0.0833333 14.0732C0.635417 11.4899 3.45833 10.1357 5.80208 11.3336C6.5625 11.719 7.13542 12.3232 7.53125 13.0628C7.59375 13.0524 7.63542 13.0628 7.67708 13.0419C9.61458 12.2919 11.6042 13.1357 12.5104 14.6044C12.5625 14.6774 12.6979 14.7607 12.7812 14.7503C13.2187 14.719 13.6562 14.6669 14.0938 14.6253C14.0938 14.6149 14.1146 14.6149 14.1146 14.6044C14.125 14.5524 14.125 14.5003 14.125 14.4482C14.1354 12.8961 14.8333 11.7607 16.1979 11.0419C16.3958 10.9378 16.4062 10.8336 16.375 10.6461C16.3125 10.3544 16.2604 10.0524 16.2708 9.76069C16.3333 8.23986 17.0312 7.08361 18.4167 6.43777C19.7812 5.79194 21.125 5.94819 22.3021 6.88569C23.5 7.83361 23.9271 9.11486 23.625 10.6044C23.5729 10.8649 23.6354 10.969 23.8542 11.0836C25.2708 11.8232 26.0625 13.3544 25.8333 14.8753C25.75 15.4065 25.8333 15.5315 26.375 15.7086C26.5208 14.344 27.3229 13.4794 28.5833 13.3232C29.8854 13.1669 30.7187 13.8544 31.3437 15.6149C32.875 14.5628 33.8958 14.5107 34.8229 15.4274C35.2292 15.8232 35.4583 16.3128 35.5104 16.8753C35.5833 17.7086 35.2187 18.3753 34.6146 18.9482C36.5312 19.3857 37.0833 20.2294 36.875 22.3336C37.5625 22.3336 38.2604 22.3544 38.9375 22.3232C39.4167 22.3128 39.7708 22.469 40 22.8961ZM2.13542 27.6565C2.16667 27.8024 2.17708 27.8857 2.20833 27.9794C3.42708 32.2919 5.86458 35.7294 9.53125 38.2919C9.66667 38.3857 9.86458 38.4378 10.0312 38.4378C16.6667 38.4482 23.3125 38.4482 29.9479 38.4378C30.1458 38.4378 30.3854 38.3544 30.5521 38.2399C33.5104 36.1669 35.6771 33.469 37.0521 30.1357C37.375 29.344 37.6146 28.5315 37.9167 27.6669C37.6667 27.6669 37.5104 27.6669 37.3542 27.6669C32.8542 27.6669 28.3437 27.6669 23.8437 27.6669C23.7187 27.6669 23.5833 27.6774 23.4583 27.6565C23.0417 27.6149 22.7396 27.2607 22.75 26.8649C22.7604 26.4794 23.0625 26.1565 23.4583 26.1149C23.5833 26.1044 23.7187 26.1044 23.8437 26.1044C28.4687 26.1044 33.0833 26.1044 37.7083 26.1044C37.8646 26.1044 38.0208 26.1044 38.2188 26.1044C38.2917 25.3753 38.3646 24.6669 38.4375 23.9482C26.125 23.9482 13.8542 23.9482 1.5625 23.9482C1.63542 24.6878 1.71875 25.3857 1.79167 26.1044C2.01042 26.1044 2.16667 26.1044 2.32292 26.1044C6.92708 26.1044 11.5417 26.1044 16.1458 26.1044C16.2917 26.1044 16.4375 26.094 16.5729 26.1149C16.9792 26.1565 17.2604 26.4794 17.2708 26.8753C17.2708 27.2711 17 27.6044 16.5938 27.6565C16.4479 27.6774 16.3125 27.6669 16.1667 27.6669C11.6458 27.6669 7.13542 27.6669 2.61458 27.6669C2.46875 27.6565 2.32292 27.6565 2.13542 27.6565ZM19.125 19.0628C19.1562 19.0419 19.1875 19.0315 19.2188 19.0107C19.2188 18.8753 19.2188 18.7294 19.2188 18.594C19.2188 17.094 19.2083 15.6044 19.2188 14.1044C19.2188 13.4378 19.8125 13.0524 20.3646 13.344C20.7083 13.5315 20.7812 13.8336 20.7812 14.1982C20.7812 16.7607 20.7812 19.3232 20.7812 21.8857C20.7812 22.0211 20.7812 22.1669 20.7812 22.3336C21.6875 22.3336 22.5625 22.3544 23.4271 22.3336C24.8021 22.3024 26.0104 21.3024 26.3125 19.9586C26.6146 18.594 25.9792 17.219 24.7396 16.5732C23.9271 16.1461 23.8646 15.9899 24.1667 15.1357C24.6354 13.8544 23.8542 12.4586 22.5208 12.2711C21.7396 12.1669 21.4375 11.4794 21.8646 10.8544C22.3021 10.2086 22.2708 9.46902 21.9062 8.77111C21.3438 7.69819 20.0104 7.31277 18.9479 7.89611C17.8854 8.48986 17.5312 9.81277 18.1458 10.8961C18.5208 11.5524 18.3229 12.1357 17.625 12.2086C16.1979 12.3649 15.25 13.9274 15.9062 15.344C16.0104 15.5628 15.9479 15.9065 15.8438 16.1461C15.7708 16.3128 15.5208 16.4274 15.3229 16.5211C14.1562 17.1149 13.4583 18.3649 13.6354 19.6044C13.8333 21.0003 14.7604 22.0836 16.1146 22.2399C17.125 22.3649 18.1562 22.2607 19.1875 22.2607C19.3021 21.6982 19.2188 21.2294 18.7188 20.8024C18.0104 20.1878 17.375 19.4899 16.7188 18.8232C16.3958 18.4899 16.3229 18.1669 16.5 17.8336C16.75 17.344 17.3438 17.2607 17.7812 17.6774C18.25 18.1461 18.6875 18.6149 19.125 19.0628ZM13.1771 22.344C11.6979 20.3336 11.6875 18.3544 13.0937 16.3128C12.9479 16.3544 12.8646 16.3649 12.7812 16.3961C11.9167 16.6774 11.7292 16.594 11.3646 15.7815C10.7188 14.3544 9.02083 13.9169 7.71875 14.8232C7.07292 15.2711 6.54167 15.0836 6.34375 14.3232C6.03125 13.1253 5 12.3857 3.79167 12.4794C2.625 12.5732 1.69792 13.4899 1.58333 14.6461C1.46875 15.8336 2.20833 16.8857 3.39583 17.219C4.20833 17.4482 4.38542 17.9482 3.90625 18.6461C3.46875 19.2711 3.34375 19.9482 3.53125 20.6878C3.75 21.5107 4.5625 22.3336 5.22917 22.344C7.84375 22.3544 10.4792 22.344 13.1771 22.344ZM26.7812 22.344C29.4271 22.344 31.9792 22.3544 34.5312 22.344C35.0417 22.344 35.3958 21.969 35.4062 21.4794C35.4167 20.9794 35.0625 20.5836 34.5417 20.5628C34.0208 20.5419 33.5 20.5419 32.9792 20.5628C32.5521 20.5732 32.1562 20.5315 31.9687 20.0836C31.7708 19.6357 32.0208 19.3232 32.3333 19.0211C32.7812 18.5836 33.2188 18.1461 33.6562 17.6982C34.0312 17.3128 34.0625 16.8857 33.7396 16.5628C33.4167 16.2399 32.9896 16.2607 32.6042 16.6357C32.1146 17.1149 31.625 17.6044 31.1458 18.094C30.8854 18.3649 30.5729 18.4586 30.2188 18.3232C29.8646 18.1774 29.7396 17.8857 29.7396 17.5107C29.75 16.969 29.75 16.4169 29.7396 15.8753C29.7292 15.2711 29.3438 14.8649 28.8229 14.8857C28.3021 14.8961 27.9583 15.2919 27.9583 15.8857C27.9479 16.7399 27.9375 17.6044 27.9583 18.4586C28.0104 19.8544 27.8021 21.1669 26.7812 22.344Z" fill="black" stroke="black" stroke-width="0.5"/>
<path d="M39.9999 6.16671C39.927 6.52088 39.8645 6.87505 39.7708 7.22921C38.4478 12.375 32.0416 14.2396 28.1666 10.5938C27.6458 10.1042 27.6353 9.68755 28.1249 9.19796C28.7708 8.54171 29.427 7.88546 30.0833 7.23963C30.5416 6.79171 30.8958 6.77088 31.3749 7.18755C32.3853 8.04171 33.7395 8.01046 34.6249 7.12505C35.5103 6.22921 35.5416 4.87505 34.6874 3.87505C34.2916 3.4063 34.2916 3.04171 34.7187 2.61463C35.3853 1.93755 36.0624 1.27088 36.7291 0.604212C37.177 0.156295 37.6145 0.166712 38.0416 0.614629C39.0624 1.69796 39.6874 2.9688 39.9166 4.43755C39.927 4.52088 39.9687 4.60421 39.9895 4.68755C39.9999 5.18755 39.9999 5.67713 39.9999 6.16671ZM36.2708 3.3438C37.177 5.01046 37.1562 6.67713 35.8124 8.10421C34.3645 9.64588 32.6249 9.7188 30.7603 8.72921C30.5937 8.9063 30.4374 9.10421 30.2603 9.27088C30.0833 9.44796 29.8749 9.61463 29.6874 9.7813C31.5624 11.3021 34.8333 11.4584 36.9583 9.19796C39.0833 6.94796 38.6666 3.73963 37.3541 2.25005C36.9999 2.62505 36.6353 2.97921 36.2708 3.3438Z" fill="black" stroke="black" stroke-width="0.5"/>
<path d="M25.5419 0.000162761C25.9482 0.125163 26.3753 0.218913 26.7607 0.375163C28.8649 1.25016 29.969 3.59391 29.3336 5.78141C29.2086 6.19808 28.9794 6.44808 28.5524 6.56266C26.8649 6.97933 25.3648 6.646 24.1148 5.42725C22.8961 4.22933 22.5419 2.75016 22.8961 1.0835C23.0107 0.552246 23.3023 0.229329 23.844 0.135579C24.0211 0.104329 24.1878 0.0418294 24.3544 -0.0102539C24.7711 0.000162761 25.1565 0.000162761 25.5419 0.000162761ZM27.2711 5.17725C27.5211 5.12516 27.8961 5.31266 27.9586 4.78141C28.1461 3.00016 26.4378 1.32308 24.6773 1.5835C24.469 1.61475 24.3753 1.69808 24.3544 1.92725C24.1565 3.61475 25.5211 5.15641 27.2711 5.17725Z" fill="black" stroke="black" stroke-width="0.5"/>
<path d="M15.7085 0C15.8022 0.03125 15.9064 0.0729167 16.0001 0.104167C17.1043 0.458333 17.8126 1.57292 17.6356 2.67708C17.4376 3.84375 16.4689 4.6875 15.3022 4.6875C14.146 4.6875 13.1564 3.82292 12.9793 2.66667C12.8127 1.55208 13.521 0.447917 14.6251 0.104167C14.7189 0.0729167 14.8231 0.0416667 14.9168 0.0104167C15.1876 0 15.4376 0 15.7085 0ZM16.0939 2.34375C16.0939 1.92708 15.7501 1.57292 15.3335 1.5625C14.9064 1.55208 14.5314 1.90625 14.5314 2.33333C14.5314 2.75 14.8647 3.10417 15.2814 3.11458C15.7189 3.13542 16.0835 2.77083 16.0939 2.34375Z" fill="black" stroke="black" stroke-width="0.5"/>
<path d="M11.6877 11.1043C10.0731 11.0939 8.60435 10.146 8.0106 8.65643C7.3856 7.09393 7.6356 5.64602 8.7606 4.37518C9.16685 3.91685 9.60435 3.90643 10.0419 4.34393C11.521 5.81268 12.9898 7.28143 14.4585 8.7606C14.8856 9.18768 14.8648 9.62518 14.4169 10.0418C13.646 10.7606 12.7294 11.1148 11.6877 11.1043ZM9.48977 6.08352C9.0106 7.05227 9.2606 8.21893 10.0835 8.9481C10.8335 9.60435 12.0106 9.75018 12.6877 9.29185C11.6356 8.22935 10.5731 7.16685 9.48977 6.08352Z" fill="black" stroke="black" stroke-width="0.5"/>
<path d="M5.78158 8.13564C5.78158 8.56272 5.40658 8.91689 4.97949 8.90647C4.56283 8.89606 4.22949 8.53147 4.22949 8.11481C4.22949 7.68772 4.60449 7.33356 5.03158 7.34397C5.43783 7.36481 5.78158 7.71897 5.78158 8.13564Z" fill="black" stroke="black" stroke-width="0.5"/>
<path d="M26.635 9.05222C26.6246 9.46889 26.2704 9.82306 25.8537 9.81264C25.4162 9.81264 25.0621 9.42722 25.0829 9.00014C25.1037 8.57306 25.4579 8.25014 25.885 8.27097C26.3121 8.28139 26.6454 8.62514 26.635 9.05222Z" fill="black" stroke="black" stroke-width="0.5"/>
<path d="M20.7816 26.8747C20.7816 27.3122 20.4274 27.6664 19.9899 27.656C19.5732 27.6456 19.2295 27.2914 19.2295 26.8747C19.2295 26.4476 19.6045 26.0831 20.0316 26.0935C20.4482 26.1039 20.7816 26.4476 20.7816 26.8747Z" fill="black" stroke="black" stroke-width="0.5"/>
<path d="M7.17714 17.2397C7.44797 17.396 7.66672 17.4689 7.81255 17.6147C8.48964 18.2606 9.14588 18.9272 9.80213 19.5939C10.1563 19.9585 10.1667 20.4168 9.8438 20.7397C9.5313 21.0522 9.05214 21.0418 8.69797 20.6877C8.0313 20.0314 7.37505 19.3647 6.70839 18.6981C6.44797 18.4377 6.35422 18.1147 6.5313 17.8127C6.66672 17.5939 6.93755 17.4377 7.17714 17.2397Z" fill="black" stroke="black" stroke-width="0.5"/>
</svg>
