<svg width="33" height="35" viewBox="0 0 33 35" fill="none" xmlns="http://www.w3.org/2000/svg">
<path d="M15.5771 34.9999C14.9619 34.9144 14.3381 34.8461 13.7229 34.735C10.2024 34.0941 7.22873 32.4364 4.85324 29.7618C1.73435 26.2499 0.452608 22.1227 0.948213 17.4486C1.17893 15.2525 1.87961 13.2018 3.00754 11.2962C3.06735 11.1937 3.12717 11.0826 3.22116 10.9117C2.93064 10.6383 2.62302 10.3648 2.33249 10.0743C1.22165 8.94639 1.21311 7.47666 2.3154 6.34873C2.75119 5.89585 3.18698 5.45152 3.63986 5.02427C4.74216 3.95616 6.22043 3.9647 7.32273 5.03282C7.6218 5.32334 7.91232 5.63096 8.21994 5.93858C10.4502 4.5543 12.8598 3.78526 15.4746 3.59727C15.4746 3.11021 15.4746 2.64024 15.4746 2.119C14.9875 2.119 14.4919 2.12754 13.9963 2.119C13.2614 2.09336 12.7829 1.40122 13.0478 0.73472C13.2102 0.324564 13.5263 0.0853063 13.9621 0.0853063C15.6711 0.0767614 17.3716 0.0682164 19.0805 0.0853063C19.6445 0.0938512 20.0632 0.555277 20.0632 1.10215C20.0632 1.64903 19.636 2.08482 19.072 2.119C18.8242 2.13609 18.5678 2.119 18.32 2.12754C18.0722 2.12754 17.8244 2.12754 17.5595 2.12754C17.5595 2.62315 17.5595 3.09312 17.5595 3.57163C18.2346 3.67417 18.9182 3.74253 19.5761 3.8878C25.8139 5.29771 29.9155 9.05747 31.6587 15.1842C34.0598 23.618 28.7876 32.4962 20.2683 34.5384C19.4565 34.735 18.6106 34.8033 17.7817 34.94C17.6792 34.9571 17.5852 34.9828 17.4826 34.9999C16.8503 34.9999 16.218 34.9999 15.5771 34.9999ZM30.1804 19.2687C30.1718 11.7577 24.028 5.60533 16.5427 5.59678C9.0488 5.58824 2.88791 11.7662 2.88791 19.2857C2.89646 26.7882 9.03171 32.9491 16.5256 32.9491C24.028 32.9576 30.1889 26.7796 30.1804 19.2687ZM6.46823 7.03233C6.30588 6.87852 6.07517 6.65635 5.84445 6.44273C5.57102 6.20347 5.37448 6.20347 5.10105 6.46836C4.63962 6.92124 4.17819 7.37412 3.73386 7.83555C3.4946 8.08335 3.4946 8.30552 3.70822 8.55332C3.93039 8.80113 4.1611 9.03184 4.30637 9.18565C5.03269 8.46787 5.72482 7.77574 6.46823 7.03233Z" fill="black"/>
<path d="M28.2665 19.2859C28.2579 25.7459 22.9772 31.0352 16.5343 31.0352C10.0829 31.0352 4.75085 25.6946 4.80212 19.2517C4.85339 12.7149 10.0658 7.52809 16.5514 7.52809C23.0284 7.51954 28.275 12.8345 28.2665 19.2859ZM17.5597 9.64723C17.5597 10.0147 17.5597 10.3735 17.5597 10.7324C17.5511 11.3733 17.1324 11.8262 16.5514 11.8347C15.9532 11.8433 15.526 11.3818 15.5175 10.7239C15.5175 10.365 15.5175 9.99757 15.5175 9.63868C10.5358 10.1514 7.20325 14.3555 6.9469 18.2691C7.34851 18.2691 7.74158 18.2605 8.13464 18.2691C8.55334 18.2776 8.84387 18.4998 9.01477 18.8757C9.28821 19.491 8.90369 20.2002 8.22864 20.2771C7.80994 20.3198 7.37415 20.2857 6.93835 20.2857C7.32288 24.917 11.3048 28.6084 15.5175 28.8989C15.5175 28.5571 15.5175 28.2153 15.5175 27.8821C15.526 27.1814 15.9276 26.7371 16.5428 26.7371C17.1581 26.7371 17.5597 27.1899 17.5597 27.8906C17.5597 28.2324 17.5597 28.5828 17.5597 28.9331C22.4987 28.4033 25.8483 24.2847 26.1302 20.3198C25.7885 20.3198 25.4552 20.3284 25.1134 20.3198C24.4213 20.3027 23.9598 19.8755 23.9684 19.2774C23.9769 18.6792 24.4298 18.2861 25.1134 18.2776C25.4552 18.2691 25.7885 18.2776 26.1302 18.2776C25.8312 14.1248 22.3021 10.0916 17.5597 9.64723Z" fill="black"/>
<path d="M17.6194 18.6878C18.0979 18.6878 18.5337 18.6878 18.978 18.6878C19.6274 18.6964 20.0718 19.1065 20.0803 19.6876C20.0888 20.2772 19.6274 20.7215 18.9695 20.7301C18.209 20.7386 17.4485 20.7386 16.688 20.7301C15.9788 20.7215 15.5771 20.3114 15.5771 19.5936C15.5771 17.9444 15.5771 16.2953 15.5771 14.6461C15.5771 13.9711 15.9958 13.5182 16.5854 13.5096C17.1836 13.5011 17.6194 13.9796 17.6194 14.6632C17.6279 15.868 17.6194 17.0729 17.6194 18.2777C17.6194 18.4144 17.6194 18.534 17.6194 18.6878Z" fill="black"/>
</svg>
