<svg width="25" height="17" viewBox="0 0 25 17" fill="none" xmlns="http://www.w3.org/2000/svg">
<path d="M25 7.6941C24.9329 8.20679 24.8841 8.72559 24.7986 9.23219C24.585 10.52 24.1761 11.7346 23.4558 12.8272C22.5769 14.1699 21.3379 15.0427 19.8426 15.586C18.6158 16.0315 17.3462 16.239 16.0523 16.2634C14.9475 16.2818 13.8428 16.3001 12.7381 16.2573C10.3333 16.1719 8.02005 15.6897 5.87772 14.5606C4.08329 13.6206 2.7161 12.2534 1.77616 10.459C0.878941 8.76221 0.40897 6.94337 0.189244 5.05127C0.0610698 3.93433 0.0122416 2.79907 0.0854838 1.65772C0.128208 1.07178 0.384556 0.791016 0.976597 0.791016C2.08133 0.797119 3.18607 0.797119 4.2847 0.894775C5.8411 1.03516 7.34867 1.41357 8.8013 2.02393C11.3953 3.11646 13.2508 4.94751 14.325 7.55372C14.5813 8.18238 14.7705 8.84156 14.9903 9.48243C15.0208 9.56178 15.0452 9.64723 15.0696 9.73267C15.3015 9.35426 15.503 8.98805 15.741 8.64014C16.6687 7.29127 17.9749 6.46729 19.4947 5.9546C20.9595 5.46631 22.4732 5.30762 24.0113 5.36866C24.6704 5.39307 24.8047 5.52735 25.0122 6.22925C25 6.72364 25 7.20582 25 7.6941ZM1.60526 2.28027C1.60526 2.73804 1.59305 3.16529 1.60526 3.59253C1.6724 5.2649 1.95316 6.89454 2.53299 8.46925C3.42411 10.8618 5.00492 12.6074 7.37919 13.6084C8.74637 14.1821 10.1685 14.4995 11.6394 14.6582C12.0606 14.707 12.4878 14.7254 12.9761 14.7681C12.8723 14.6582 12.8113 14.5911 12.7503 14.53C10.9742 12.7539 9.20414 10.9839 7.42801 9.20777C7.36087 9.14063 7.28763 9.07349 7.2266 8.99415C7.02518 8.7439 7.00687 8.40211 7.16556 8.12745C7.33036 7.85889 7.64774 7.6941 7.95902 7.79175C8.14212 7.84669 8.32523 7.96876 8.46561 8.10303C10.26 9.88526 12.0423 11.6675 13.8245 13.4558C13.8794 13.5108 13.9466 13.5657 14.0442 13.6633C13.971 11.9177 13.7024 10.2759 13.1409 8.68897C12.1765 5.97901 10.3272 4.15406 7.62333 3.1897C5.87772 2.56714 4.07108 2.323 2.22782 2.28638C2.01419 2.28027 1.80668 2.28027 1.60526 2.28027ZM15.6433 13.6206C15.7471 13.523 15.8081 13.468 15.8692 13.407C16.864 12.4121 17.8528 11.4233 18.8477 10.4285C18.9148 10.3613 18.9881 10.2881 19.0613 10.2271C19.3177 10.0256 19.6778 10.0073 19.9463 10.1843C20.2149 10.3613 20.3614 10.7031 20.2576 11.0144C20.1966 11.1853 20.0806 11.344 19.9524 11.4722C18.9515 12.4854 17.9444 13.4863 16.9434 14.4873C16.8824 14.5484 16.8274 14.6094 16.7725 14.6704C16.7847 14.7009 16.7969 14.7315 16.8091 14.762C17.5782 14.585 18.3655 14.4507 19.1223 14.2188C20.813 13.6939 22.0581 12.6318 22.7356 10.9656C23.1446 9.9585 23.3582 8.9026 23.4314 7.82227C23.4497 7.5171 23.4619 7.21192 23.4742 6.90064C23.3887 6.89454 23.346 6.88843 23.2972 6.88843C22.1253 6.91285 20.9656 7.06544 19.8548 7.44385C18.9453 7.75513 18.1153 8.20679 17.4561 8.92091C16.2537 10.2332 15.8387 11.8506 15.6433 13.6206Z" fill="#10D223"/>
</svg>
