<svg width="20" height="20" viewBox="0 0 20 20" fill="none" xmlns="http://www.w3.org/2000/svg">
<path d="M16.2384 19.2045C16.2384 19.8291 15.9413 20.1067 15.3967 19.8291L10.9077 17.4349C10.5939 17.2974 10.2574 17.2267 9.91746 17.2267C9.57755 17.2267 9.241 17.2974 8.92724 17.4349L4.42174 19.777C3.87712 20.0546 3.49754 19.7771 3.59656 19.1351L4.35573 13.9303C4.39401 13.5752 4.3609 13.2157 4.25855 12.875C4.1562 12.5343 3.98689 12.2199 3.76159 11.9524L0.246303 8.18757C-0.182792 7.73648 -0.0342554 7.28539 0.559877 7.18129L5.51098 6.31381C5.85134 6.24946 6.17468 6.10935 6.45932 5.90288C6.74396 5.69642 6.98331 5.42837 7.16135 5.1167L9.52137 0.43233C9.80193 -0.140204 10.2475 -0.140204 10.5281 0.43233L12.8386 5.13405C13.0156 5.45002 13.2541 5.72309 13.5386 5.93537C13.823 6.14766 14.1469 6.29436 14.489 6.36587L19.4401 7.26804C20.0342 7.37214 20.1827 7.82322 19.7536 8.27431L16.2054 12.0392C15.9876 12.3018 15.8215 12.6073 15.7167 12.9378C15.6119 13.2684 15.5704 13.6175 15.5947 13.965L16.2384 19.2045Z" fill="url(#paint0_radial)"/>
<defs>
<radialGradient id="paint0_radial" cx="0" cy="0" r="1" gradientUnits="userSpaceOnUse" gradientTransform="translate(1452 1347.92) scale(252.399 251.564)">
<stop offset="0.35" stop-color="#DBDBDB"/>
<stop offset="0.55" stop-color="#D4D4D4"/>
<stop offset="0.82" stop-color="#C2C2C2"/>
<stop offset="0.99" stop-color="#B3B3B3"/>
</radialGradient>
</defs>
</svg>
