<svg width="20" height="20" viewBox="0 0 20 20" fill="none" xmlns="http://www.w3.org/2000/svg">
<path d="M16.2219 19.2654C16.3209 19.892 15.9413 20.1706 15.3967 19.892L10.9077 17.4899C10.5939 17.352 10.2574 17.281 9.91748 17.281C9.57757 17.281 9.24102 17.352 8.92726 17.4899L4.42175 19.8398C3.87712 20.1183 3.49754 19.8398 3.59656 19.1958L4.35573 13.9736C4.38998 13.6176 4.35495 13.258 4.25279 12.9167C4.15062 12.5755 3.98348 12.2599 3.7616 11.9892L0.246305 8.21183C-0.182792 7.75924 -0.0342581 7.30665 0.559876 7.20221L5.51099 6.33185C5.85135 6.26728 6.17469 6.12671 6.45933 5.91956C6.74397 5.7124 6.98333 5.44346 7.16136 5.13076L9.50489 0.430827C9.80196 -0.143609 10.2476 -0.143609 10.5281 0.430827L12.8386 5.14817C13.0157 5.46519 13.2542 5.73916 13.5386 5.95215C13.823 6.16514 14.1469 6.31234 14.489 6.38408L19.4401 7.28925C20.0343 7.3937 20.1828 7.84628 19.7537 8.29887L16.2054 12.0762C15.978 12.3438 15.8063 12.6586 15.7011 13.0003C15.5959 13.3421 15.5597 13.7032 15.5948 14.0606L16.2219 19.2654Z" fill="url(#paint0_radial)"/>
<defs>
<radialGradient id="paint0_radial" cx="0" cy="0" r="1" gradientUnits="userSpaceOnUse" gradientTransform="translate(3.38201 20.2495) scale(20.8277 21.9167)">
<stop offset="0.35" stop-color="#FFC200"/>
<stop offset="0.51" stop-color="#FFBD07"/>
<stop offset="0.72" stop-color="#FFAF19"/>
<stop offset="0.98" stop-color="#FF9737"/>
<stop offset="1" stop-color="#FF953A"/>
</radialGradient>
</defs>
</svg>
