<svg width="25" height="25" viewBox="0 0 25 25" fill="none" xmlns="http://www.w3.org/2000/svg">
<path d="M5.57784 0.931152C5.68801 0.958696 5.7936 0.98624 5.90377 1.01838C6.44088 1.16069 6.74846 1.47744 6.80354 1.93192C6.86781 2.46443 6.61074 2.95105 6.1379 3.20812C5.92673 3.32289 5.71556 3.43766 5.51357 3.5616C4.94891 3.91509 4.71938 4.45219 4.72397 5.0903C4.72856 5.87071 4.94891 6.60981 5.18763 7.32136C5.61456 7.23414 6.00936 7.11019 6.41793 7.06887C7.61609 6.94493 8.69949 7.26627 9.68189 7.97783C11.1463 9.03368 12.2205 10.4155 13.0652 11.9901C13.9604 13.6473 14.5526 15.4147 14.9061 17.2602C14.9336 17.4071 15.0025 17.4759 15.131 17.531C16.1501 17.9442 17.1417 18.4124 17.968 19.1561C18.2435 19.404 18.4914 19.6978 18.7209 19.9916C18.8219 20.1201 18.9091 20.1477 19.056 20.1339C20.0476 20.0696 21.0392 20.0283 22.0124 20.2854C22.3889 20.3864 22.7286 20.5517 22.9902 20.8501C23.2932 21.1944 23.3162 21.6167 23.004 21.9472C22.8158 22.1446 22.5863 22.3237 22.343 22.443C20.0338 23.5953 17.5916 24.1553 15.0025 23.9625C12.9137 23.811 10.9581 23.1775 9.11724 22.1859C6.88618 20.9832 4.93055 19.4269 3.2366 17.5494C2.43323 16.6588 1.76299 15.6672 1.29933 14.5563C1.12948 14.1523 1.07439 13.7024 0.968806 13.2755C0.959625 13.2341 0.941262 13.1928 0.92749 13.1515C0.92749 12.8348 0.92749 12.518 0.92749 12.2058C0.936672 12.1875 0.955034 12.1691 0.959625 12.1462C1.11571 10.7093 1.80431 9.55702 2.87393 8.61134C2.96575 8.52871 2.96575 8.46444 2.91984 8.36344C2.78671 8.06046 2.65358 7.75747 2.53881 7.4499C2.21288 6.58226 1.99712 5.68708 2.12106 4.75977C2.37355 2.8776 3.36972 1.57844 5.17386 0.931152C5.30699 0.931152 5.44012 0.931152 5.57784 0.931152ZM8.51127 8.16145C8.46077 8.42312 8.39191 8.64347 8.37814 8.86382C8.34601 9.36421 8.52963 9.8095 8.79589 10.2181C8.97493 10.4935 9.19069 10.746 9.39268 11.0077C9.50286 11.1454 9.5809 11.2785 9.50745 11.4576C9.42941 11.6458 9.27332 11.6963 9.0897 11.7009C9.00706 11.7009 8.92443 11.7054 8.8418 11.7054C7.74463 11.6917 6.73009 11.4438 5.89 10.6817C5.78442 10.5807 5.66965 10.4889 5.58243 10.4109C5.21058 10.9801 4.86628 11.554 4.46689 12.0865C4.24654 12.3803 3.95274 12.6374 3.64057 12.8348C3.1861 13.124 2.71785 12.9817 2.45618 12.5088C2.33682 12.2976 2.26337 12.0543 2.1991 11.8156C2.13484 11.5723 2.10729 11.3244 2.06138 11.0765C1.56559 12.2196 1.56559 13.3581 2.09811 14.4782C2.55259 15.4239 3.13101 16.2961 3.83797 17.0719C5.45389 18.8393 7.29015 20.3267 9.39727 21.4652C12.3766 23.0765 15.5166 23.6779 18.8586 22.9021C19.9466 22.6496 20.9887 22.2823 21.9849 21.7728C22.1593 21.6856 22.3108 21.5524 22.5312 21.4009C22.3016 21.2678 22.1547 21.1393 21.9803 21.0934C21.5947 20.997 21.2045 20.896 20.8097 20.8822C20.1119 20.8592 19.4141 20.9006 18.7163 20.9235C18.5189 20.9281 18.3628 20.8776 18.2618 20.6986C17.9221 20.0834 17.4309 19.6014 16.8296 19.2617C16.1088 18.8531 15.3514 18.5042 14.5985 18.1507C14.3598 18.0406 14.2312 17.9028 14.1899 17.6458C13.9971 16.4568 13.6758 15.2999 13.2351 14.1798C12.5281 12.3757 11.5732 10.7322 10.1639 9.38257C9.68189 8.91891 9.15396 8.51493 8.51127 8.16145ZM8.2496 10.9067C8.05221 10.4201 7.82726 9.95181 7.68036 9.4652C7.52428 8.96023 7.6115 8.44148 7.80431 7.9411C7.72627 7.91815 7.67118 7.89978 7.6115 7.8906C6.80354 7.74829 6.02772 7.82633 5.27485 8.16604C4.88005 8.34508 4.68725 8.27163 4.55412 7.86306C4.40262 7.40858 4.25572 6.94952 4.14096 6.48127C3.99865 5.91203 3.90683 5.3336 3.9711 4.74141C4.08587 3.69932 4.72397 3.06122 5.60997 2.61134C5.72015 2.55625 5.84409 2.49198 5.92673 2.40476C6.14708 2.16145 6.06445 1.87683 5.75228 1.78043C5.49061 1.69779 5.24731 1.70238 4.99023 1.82633C3.34677 2.62511 2.52045 4.41547 3.00247 6.27928C3.1861 6.98624 3.49367 7.66107 3.76452 8.34508C3.89765 8.68479 3.88847 8.79037 3.59467 9.01991C3.49367 9.09795 3.40186 9.18976 3.30086 9.26321C2.8877 9.56161 2.69031 9.93804 2.7913 10.4568C2.8877 10.9709 2.94279 11.4943 3.05756 12.0038C3.11724 12.2609 3.2366 12.2885 3.42481 12.1048C3.66353 11.8707 3.90683 11.6228 4.08587 11.3428C4.42099 10.8286 4.71479 10.2869 5.01777 9.74982C5.16927 9.48816 5.31158 9.40093 5.58702 9.52029C5.80737 9.61669 6.02313 9.759 6.19298 9.92886C6.776 10.4981 7.4646 10.8378 8.2496 10.9067Z" fill="#EA0124" stroke="#EA0124" stroke-width="0.35"/>
<path d="M17.2151 14.143C16.7009 14.244 16.2052 14.3588 15.7002 14.4368C15.4752 14.4735 15.2365 14.446 15.007 14.4276C14.8188 14.4139 14.6994 14.2945 14.6306 14.1155C14.4469 13.6472 14.2587 13.1836 14.0659 12.7199C13.9741 12.4904 14.0292 12.2884 14.1669 12.1047C14.4974 11.6549 14.9473 11.4575 15.4982 11.5171C16.2832 11.5998 17.0682 11.6686 17.8532 11.485C18.5602 11.3152 19.0743 10.9249 19.3039 10.2134C19.3268 10.1353 19.3452 10.0573 19.3544 10.0068C19.0146 10.1308 18.6841 10.2823 18.3352 10.3649C17.8716 10.4751 17.4079 10.3924 16.9626 10.2226C15.9297 9.83237 14.8739 9.64874 13.7629 9.75432C13.3222 9.79564 12.8677 9.72219 12.4224 9.67169C12.2985 9.65792 12.1608 9.55693 12.069 9.46052C11.8348 9.21722 11.6329 8.94178 11.3895 8.70765C11.1371 8.46435 11.0728 8.19809 11.2059 7.89051C11.3207 7.63344 11.4722 7.39013 11.6145 7.14224C11.6558 7.06878 11.7155 6.99992 11.7889 6.89434C11.3436 6.94484 11.0131 7.12846 10.7469 7.43145C10.499 7.71148 10.3521 7.71148 10.0307 7.51867C9.57623 7.24782 9.1034 6.99992 8.63056 6.76121C8.39643 6.64185 8.30921 6.49495 8.39643 6.21033C8.78205 4.98462 9.53951 4.05731 10.6734 3.45593C11.8624 2.82701 13.1432 2.68929 14.4607 2.79487C15.6084 2.88669 16.7055 3.1759 17.7798 3.58447C17.9496 3.64874 18.0965 3.72219 18.1286 3.92418C18.1608 4.13535 18.0277 4.24093 17.8853 4.36947C17.5456 4.67246 17.2059 4.98003 16.9121 5.32433C16.7652 5.49878 16.6734 5.75126 16.6413 5.9808C16.5495 6.6189 17.1141 7.10092 17.8394 7.03665C18.5143 6.97238 19.0101 6.60972 19.4278 6.10474C19.6206 5.87521 19.7996 5.63191 20.0016 5.41155C20.7224 4.6036 21.6497 4.23634 22.7147 4.17207C22.9856 4.1583 23.2564 4.13535 23.5227 4.1078C23.7293 4.08485 23.8991 4.12617 23.9909 4.32816C24.0873 4.53474 23.9909 4.68623 23.844 4.82395C22.7882 5.7834 22.1133 6.96779 21.8517 8.37253C21.7782 8.76274 21.7553 9.16213 21.7369 9.55693C21.6818 10.6128 21.691 11.6778 21.59 12.7291C21.3192 15.6855 19.2763 16.8423 17.3804 17.2876C17.1554 17.3427 16.9167 17.3473 16.6918 17.3978C16.4255 17.4575 16.2097 17.3886 16.0445 17.1912C15.7966 16.8928 15.5395 16.5944 15.3375 16.2685C15.1493 15.9655 15.3237 15.7497 15.6635 15.6533C15.9619 15.5707 16.2602 15.41 16.5081 15.2218C16.857 14.9601 17.0498 14.5516 17.2151 14.143ZM9.23652 6.13688C9.54869 6.32051 9.85167 6.49036 10.1409 6.67399C10.2602 6.75203 10.3337 6.75203 10.4485 6.65562C11.0498 6.16442 11.7384 5.99916 12.4959 6.18279C12.9687 6.29755 13.0514 6.5684 12.753 6.94943C12.4913 7.28455 12.248 7.63803 11.9955 7.98233C11.9129 8.09709 11.9404 8.17513 12.0368 8.27154C12.2113 8.44598 12.3674 8.64338 12.5418 8.81783C12.6107 8.88669 12.7117 8.96014 12.7989 8.96014C13.1937 8.97391 13.5931 8.98309 13.9879 8.96014C15.0804 8.89128 16.1271 9.08409 17.1417 9.4697C17.7843 9.7176 18.3903 9.69924 18.9458 9.25853C19.1386 9.10704 19.3176 8.9326 19.4967 8.76274C19.6252 8.63879 19.7583 8.56075 19.942 8.62961C20.1302 8.69847 20.199 8.84537 20.199 9.03818C20.1944 9.21263 20.1944 9.38248 20.1899 9.55693C20.121 11.0627 19.1891 12.0726 17.6971 12.2976C16.9443 12.4077 16.2006 12.3572 15.4523 12.2884C15.287 12.2746 15.1034 12.3435 14.9381 12.3985C14.8371 12.4353 14.8096 12.5271 14.8693 12.6373C14.9565 12.8117 15.0299 12.9953 15.1034 13.1744C15.3329 13.739 15.3375 13.762 15.9343 13.6151C16.5219 13.4682 17.1003 13.2754 17.6788 13.0963C17.844 13.0458 17.9909 13.0367 18.1195 13.156C18.248 13.2754 18.2801 13.4177 18.2205 13.5875C18.0781 13.9686 17.9634 14.3542 17.7981 14.726C17.4951 15.4054 17.0269 15.938 16.3429 16.2639C16.3153 16.2777 16.297 16.296 16.274 16.3098C16.4714 16.6403 16.5403 16.6725 16.8892 16.6128C16.9534 16.6036 17.0223 16.5898 17.0866 16.5761C19.2212 16.1996 20.5847 14.8041 20.8188 12.6556C20.9335 11.6135 20.9335 10.5577 20.9611 9.50643C20.9932 8.28072 21.2778 7.12846 21.893 6.06802C22.1088 5.69618 22.3658 5.34728 22.6045 4.98921C21.9848 4.97085 21.287 5.23252 20.7821 5.72831C20.5066 5.99916 20.2679 6.31591 20.0154 6.60972C19.3314 7.41308 18.5051 7.91347 17.4033 7.78493C16.4439 7.67016 15.7828 6.8668 15.8746 5.91653C15.9205 5.4391 16.1409 5.03053 16.4439 4.66328C16.6 4.47506 16.7698 4.30061 16.9488 4.10321C15.8241 3.73596 14.6994 3.50643 13.5288 3.53397C12.6703 3.55692 11.844 3.72219 11.0774 4.11699C10.2052 4.57146 9.59919 5.25088 9.23652 6.13688Z" fill="#EA0124" stroke="#EA0124" stroke-width="0.35"/>
<path d="M8.81885 19.3669C8.70408 19.5092 8.6444 19.6607 8.54341 19.6928C8.41946 19.7342 8.23124 19.725 8.13025 19.6515C7.60691 19.2705 7.08817 18.8895 6.60156 18.4625C5.991 17.93 5.41716 17.3562 4.83415 16.7915C4.7607 16.7227 4.70102 16.6263 4.67348 16.5299C4.62298 16.36 4.68266 16.1902 4.84333 16.1351C4.96728 16.0938 5.12336 16.1305 5.26567 16.1489C5.30699 16.1534 5.34371 16.2131 5.38044 16.2544C6.33989 17.2644 7.38656 18.1779 8.51127 18.9997C8.62604 19.0869 8.70408 19.2246 8.81885 19.3669Z" fill="#EA0124" stroke="#EA0124" stroke-width="0.25"/>
<path d="M10.5357 20.2764C10.5816 20.2901 10.6643 20.3085 10.7377 20.3406C11.5273 20.7263 12.349 21.0292 13.1983 21.2542C13.5564 21.3506 13.6849 21.6949 13.4416 21.906C13.3544 21.9795 13.1891 22.03 13.0789 22.007C12.1333 21.7867 11.2335 21.4424 10.3659 21.0109C10.1822 20.9191 10.0996 20.7676 10.1455 20.5656C10.1868 20.3865 10.3108 20.2901 10.5357 20.2764Z" fill="#EA0124" stroke="#EA0124" stroke-width="0.25"/>
</svg>
