<svg width="25" height="25" viewBox="0 0 25 25" fill="none" xmlns="http://www.w3.org/2000/svg">
<path d="M19.8973 15.558C19.5723 15.8869 19.4223 16.3606 19.4973 16.8343L20.6098 23.308C20.6973 23.8606 20.4848 24.4133 20.0473 24.729C19.6223 25.058 19.0473 25.0975 18.5848 24.8343L13.0473 21.7948C12.8598 21.6896 12.6348 21.6238 12.4223 21.6238H12.0848C11.9723 21.6369 11.8473 21.6764 11.7473 21.7422L6.20981 24.7948C5.93481 24.9396 5.62232 24.9922 5.32232 24.9396C4.58482 24.7948 4.08481 24.0448 4.20981 23.2685L5.32232 16.7948C5.39732 16.3212 5.24731 15.8475 4.92231 15.5054L0.409795 10.9001C0.0347948 10.5185 -0.102691 9.93957 0.0723085 9.41326C0.234809 8.88694 0.672327 8.51852 1.18483 8.42642L7.39733 7.47905C7.87233 7.42641 8.2848 7.12378 8.4973 6.67641L11.2348 0.768511C11.2973 0.636932 11.3848 0.518526 11.4848 0.413263L11.5973 0.321148C11.6598 0.255358 11.7223 0.189582 11.7973 0.150109L11.9348 0.0974659L12.1473 0.00537109H12.6723C13.1473 0.0580027 13.5598 0.347464 13.7723 0.794833L16.5473 6.67641C16.7473 7.11062 17.1348 7.4001 17.5848 7.47905L23.7973 8.42642C24.3223 8.50536 24.7598 8.88694 24.9348 9.41326C25.0973 9.93957 24.9598 10.5185 24.5723 10.9001L19.8973 15.558Z" fill="#FED402"/>
</svg>
