<svg width="440" height="68" viewBox="0 0 440 68" fill="none" xmlns="http://www.w3.org/2000/svg">
<path d="M53.4988 63.2796C52.563 63.3343 51.4973 63.4983 50.7434 63.3616C48.7939 63.0335 47.0524 62.9788 45.1808 63.4163C44.557 63.553 43.6472 63.4983 43.3093 63.0882C43.0754 62.8147 42.6855 62.5686 41.8537 62.6506C40.736 62.76 39.7222 63.2249 39.8262 63.553C39.9042 63.7991 40.1641 63.9085 40.7879 63.7718C41.1778 63.6624 41.5937 63.5804 42.1916 63.4436C42.3735 63.6351 42.5815 63.7718 42.5815 63.9085C42.5815 64.2367 42.9194 64.4555 43.5952 64.5648C44.557 64.7016 45.5447 64.8383 46.5585 64.9203C47.4163 65.0024 48.378 65.0844 49.1838 65.0024C50.0676 64.9203 50.7954 64.6469 51.7832 64.893C52.0431 64.9477 52.485 64.8656 52.8489 64.8383C53.2388 64.811 53.6287 64.7836 54.0186 64.7836C55.1883 64.8109 55.8902 64.5648 55.9161 64.1C55.9161 63.4983 54.9024 63.1975 53.4988 63.2796Z" fill="#F15A24"/>
<path d="M69.5107 63.4163C68.497 63.3069 67.4053 63.2796 66.3395 63.2796C64.7539 63.2796 63.1943 63.3343 61.7647 63.3616C60.673 63.3069 60.1791 63.5804 59.8931 63.8812C59.7372 64.0453 59.7632 64.4008 59.9451 64.4281C60.543 64.5375 61.2188 64.5101 61.8946 64.5375C62.1806 64.5375 62.5445 64.4828 62.7264 64.5375C64.572 65.0844 66.7554 64.9477 68.8089 65.0297C69.9006 65.0844 70.9924 64.7016 71.1743 64.2914C71.3303 63.9085 70.7324 63.5257 69.5107 63.4163Z" fill="#F15A24"/>
<path d="M48.0401 18.4596C48.378 18.4596 48.9499 18.1862 48.9499 18.0494C48.9239 17.858 48.534 17.6393 48.1701 17.5025C47.8322 17.3658 47.2863 17.3385 46.7664 17.2564C46.1686 17.6666 46.0906 17.8307 46.6885 18.1862C46.9224 18.3503 47.5722 18.4596 48.0401 18.4596Z" fill="#F15A24"/>
<path d="M59.3993 61.9123C59.6592 62.131 60.2831 62.2678 60.9329 62.4865C61.5047 62.2404 61.9206 62.0764 62.3365 61.9123C61.8946 61.7482 61.5307 61.5021 61.0109 61.4474C60.335 61.3654 59.1653 61.7482 59.3993 61.9123Z" fill="#F15A24"/>
<path d="M41.8277 51.7669C41.7497 51.5755 41.2818 51.4388 40.9959 51.2747C40.8399 51.2747 40.684 51.2747 40.528 51.2747C40.2681 51.4388 39.8002 51.6029 39.7482 51.7669C39.6702 52.0404 40.1641 52.2045 40.8139 52.1771C41.4638 52.1771 41.9316 52.0404 41.8277 51.7669Z" fill="#F15A24"/>
<path d="M36.525 64.0179C36.447 64.1273 36.9669 64.3187 37.2268 64.4828C37.3828 64.4828 37.5388 64.4828 37.6947 64.4828C37.9546 64.3187 38.4745 64.1546 38.4485 64.0179C38.4225 63.8538 37.9027 63.7171 37.5907 63.553C37.2008 63.7171 36.655 63.8538 36.525 64.0179Z" fill="#F15A24"/>
<path d="M37.6947 59.041C37.3308 59.041 36.9929 59.2324 36.3431 59.4511C37.0449 59.6699 37.4348 59.8613 37.8507 59.8613C38.1626 59.8613 38.7345 59.6426 38.7864 59.5058C38.9164 59.205 38.3186 59.0136 37.6947 59.041Z" fill="#F15A24"/>
<path d="M61.7907 59.9434C62.0506 59.7793 62.5445 59.6152 62.4925 59.4511C62.4405 59.2871 61.9206 59.041 61.5567 59.0136C60.9589 58.9589 60.439 59.1777 60.569 59.4511C60.647 59.6152 61.0629 59.7793 61.3488 59.9434C61.4788 59.9434 61.6347 59.9434 61.7907 59.9434Z" fill="#F15A24"/>
<path d="M31.1184 63.6624C30.9364 63.9085 30.6245 64.1273 30.5985 64.3734C30.5725 64.4828 31.0664 64.5922 31.3263 64.7289C31.5603 64.6195 31.9761 64.4828 31.9502 64.3734C31.9242 64.1273 31.6642 63.9085 31.5083 63.6624C31.3783 63.6898 31.2483 63.6624 31.1184 63.6624Z" fill="#F15A24"/>
<path d="M24.1521 51.4115C23.7882 51.3021 23.4243 51.1106 23.0604 51.1106C22.7225 51.1106 22.3846 51.3021 22.0466 51.4115C22.3586 51.5482 22.6705 51.6849 23.1384 51.8763C23.5803 51.6849 23.8662 51.5482 24.1521 51.4115Z" fill="#F15A24"/>
<path d="M46.7145 51.4388C46.3505 51.6849 45.9606 51.7943 45.9866 51.931C45.9866 52.0404 46.5065 52.2318 46.6885 52.2318C47.0264 52.2045 47.4683 52.0404 47.5203 51.931C47.5462 51.8216 47.1044 51.6849 46.7145 51.4388Z" fill="#F15A24"/>
<path d="M12.611 60.4903C12.8449 60.5997 13.0789 60.7091 13.4168 60.8731C13.8587 60.7364 14.1706 60.627 14.4825 60.545C14.2226 60.4356 13.9627 60.2715 13.7287 60.2715C13.3388 60.2715 12.9749 60.4083 12.611 60.4903Z" fill="#F15A24"/>
<path d="M57.5797 64.2367C57.5537 64.3187 58.0476 64.4828 58.1776 64.4555C58.4895 64.4281 58.8534 64.2914 58.9574 64.182C59.0094 64.1 58.6195 63.9632 58.2816 63.7718C57.9436 64.0179 57.6317 64.1273 57.5797 64.2367Z" fill="#F15A24"/>
<path d="M34.8354 59.916C35.1733 59.7246 35.5373 59.5879 35.5113 59.5058C35.4593 59.3965 35.0954 59.2597 34.8354 59.2324C34.6795 59.205 34.2376 59.3965 34.2376 59.4785C34.2116 59.5879 34.5235 59.6973 34.8354 59.916Z" fill="#F15A24"/>
<path d="M37.7987 51.2474C37.5387 51.4388 37.2268 51.5482 37.2788 51.6302C37.3308 51.7123 37.7207 51.8216 37.9806 51.8216C38.1366 51.8216 38.4745 51.6576 38.4745 51.5755C38.4225 51.5208 38.1366 51.4114 37.7987 51.2474Z" fill="#F15A24"/>
<path d="M17.9917 51.4935C17.5758 51.2474 17.1079 51.2747 16.588 51.3841C16.51 51.4114 16.51 51.6029 16.614 51.6029C17.1339 51.7396 17.6277 51.7396 17.9917 51.4935Z" fill="#F15A24"/>
<path d="M7.04839 58.9316C7.04839 59.0136 7.04839 59.0683 7.07439 59.1503C7.49028 59.1503 7.90618 59.123 8.32207 59.123C8.32207 59.0683 8.32207 59.0136 8.29608 58.9316C7.85419 58.9316 7.46429 58.9316 7.04839 58.9316Z" fill="#F15A24"/>
<path d="M390.998 18.7057C390.998 18.8698 391.57 19.1433 391.908 19.1433C392.35 19.1706 393 19.0066 393.26 18.8425C393.857 18.4596 393.779 18.2409 393.182 17.8033C392.662 17.9127 392.116 17.9401 391.778 18.1041C391.414 18.2682 391.024 18.5143 390.998 18.7057Z" fill="#F15A24"/>
<path d="M398.094 56.3064C397.964 56.5798 398.458 56.7713 399.082 56.7713C399.758 56.7713 400.252 56.6072 400.148 56.3064C400.096 56.1149 399.654 55.9509 399.368 55.7594C399.212 55.7594 399.056 55.7594 398.9 55.7594C398.64 55.9235 398.198 56.0876 398.094 56.3064Z" fill="#F15A24"/>
<path d="M415.77 55.8962C416.056 56.0329 416.342 56.1696 416.784 56.4158C417.252 56.197 417.563 56.0603 417.875 55.8962C417.537 55.7868 417.2 55.568 416.862 55.568C416.498 55.5954 416.134 55.7868 415.77 55.8962Z" fill="#F15A24"/>
<path d="M393.26 56.7986C393.441 56.8259 393.961 56.6072 393.961 56.4704C393.961 56.3337 393.597 56.1696 393.234 55.9235C392.818 56.1696 392.376 56.3337 392.428 56.4431C392.48 56.6072 392.922 56.7712 393.26 56.7986Z" fill="#F15A24"/>
<path d="M425.465 66.0962C425.777 66.2056 426.089 66.315 426.531 66.479C426.869 66.2876 427.103 66.1782 427.337 66.0415C426.973 65.9595 426.609 65.7954 426.245 65.7954C425.985 65.7681 425.725 65.9595 425.465 66.0962Z" fill="#F15A24"/>
<path d="M401.474 56.1149C401.448 56.197 401.811 56.3884 401.967 56.3884C402.227 56.3884 402.591 56.2517 402.669 56.1696C402.721 56.0876 402.409 55.9509 402.149 55.7321C401.811 55.9235 401.5 56.0056 401.474 56.1149Z" fill="#F15A24"/>
<path d="M423.308 56.1423C423.386 56.1149 423.412 55.9235 423.334 55.8962C422.84 55.7594 422.346 55.7595 421.93 56.0056C422.32 56.279 422.814 56.279 423.308 56.1423Z" fill="#F15A24"/>
<path d="M431.626 64.4828C432.042 64.4828 432.458 64.5101 432.874 64.5101C432.874 64.4281 432.874 64.3461 432.9 64.2914C432.484 64.2914 432.068 64.2914 431.652 64.2914C431.652 64.3461 431.652 64.4008 431.626 64.4828Z" fill="#F15A24"/>
<path d="M438.54 57.4276C437.89 57.2635 437.293 57.0174 436.773 56.7713C435.837 56.3064 434.823 56.6072 434.017 56.7713C433.108 56.9627 432.51 56.99 431.73 56.6619C431.002 56.3611 430.04 56.2243 429.027 56.4431C428.689 56.5251 428.195 56.5525 427.857 56.4978C426.557 56.3337 425.855 56.7166 424.972 57.0447C423.958 57.4276 422.762 57.701 421.644 58.0018C421.488 58.0292 421.203 57.9745 420.969 57.9471C420.059 57.783 419.201 57.5096 418.109 57.6463C417.927 57.6737 417.641 57.5369 417.408 57.5096C417.148 57.4549 416.836 57.3455 416.602 57.3729C415.38 57.5096 414.392 57.3182 413.405 57.0174C411.897 56.6072 410.909 57.0994 409.999 57.5096C409.35 57.8104 408.882 57.9471 408.154 57.5916C407.946 57.4822 407.556 57.4549 407.244 57.4002C405.996 57.1814 405.788 57.2088 405.243 57.7831C404.541 58.5214 402.955 58.6034 401.603 58.7675C401.058 58.8222 400.356 58.4667 399.68 58.33C399.16 58.2206 398.562 58.1932 398.016 58.1112C397.6 58.0292 397.185 57.9471 396.847 57.8104C396.379 57.619 396.015 57.2361 395.547 57.2088C394.013 57.1267 392.454 57.1541 390.894 57.1814C390.296 57.1814 389.698 57.2635 389.127 57.3455C388.711 57.4002 388.321 57.5096 387.931 57.5916C388.165 57.7284 388.399 57.8651 388.659 58.0018C388.737 58.0565 388.867 58.0839 389.023 58.2479C388.373 58.33 387.697 58.3847 386.813 58.4667C387.151 57.9471 387.359 57.4276 386.189 57.4276C384.942 57.4276 383.824 57.4276 382.706 57.1541C382.472 57.0994 382.082 57.1814 381.692 57.2088C382.862 56.4158 383.096 56.3611 384.24 56.6892C384.136 56.5251 383.98 56.4431 383.98 56.3337C383.98 56.2243 384.162 56.1423 384.292 56.0056C384.578 56.197 384.76 56.3064 384.942 56.4158C384.942 56.4158 384.994 56.4158 385.124 56.4158C385.202 56.2243 385.228 56.0329 385.358 55.8415C385.566 55.568 385.903 55.3493 386.657 55.2946C387.879 55.1852 389.023 55.3493 390.192 55.404C390.738 55.4313 391.388 55.4586 391.83 55.3493C393.467 54.9391 395.183 55.0485 396.899 55.0211C397.315 55.0211 397.756 54.9938 398.094 54.8844C399.368 54.5562 400.59 54.1734 401.863 53.8452C402.903 53.5718 403.475 53.7632 403.397 54.3101C403.345 54.7477 404.255 55.1305 405.503 55.1578C407.478 55.2125 409.454 55.4586 411.351 54.8844C411.663 54.8023 412.573 55.0758 413.145 55.2672C413.275 55.2946 413.041 55.568 413.041 55.7321C413.041 55.8688 413.041 56.0876 413.223 56.1149C413.534 56.197 414.002 56.2243 414.314 56.1696C414.548 56.1423 414.886 55.8962 414.808 55.7868C414.574 55.4586 414.886 55.3493 415.458 55.2399C415.744 55.1852 416.16 54.9938 416.108 54.8844C416.056 54.7477 415.718 54.5836 415.406 54.5015C415.12 54.4195 414.704 54.4468 414.34 54.3922C412.417 54.2007 410.493 53.982 408.57 53.7632C408.544 53.7085 408.544 53.6538 408.544 53.5718C408.83 53.4897 409.09 53.4077 409.402 53.3804C411.039 53.2436 412.651 53.0796 414.288 52.9702C415.328 52.9155 416.368 52.9155 417.382 53.2163C419.383 53.7905 421.566 53.982 423.932 53.8999C424.868 53.8726 425.855 53.9273 426.765 54.0367C428.117 54.2281 429.469 54.3648 430.768 54.0367C431.236 53.9273 431.782 53.6538 431.808 53.435C431.834 53.2163 431.314 52.9428 430.872 52.8061C429.806 52.5053 428.663 52.2865 427.545 52.0404C426.349 51.7669 425.414 51.4115 425.44 50.7278C425.44 50.5364 425.128 50.3176 424.816 50.1809C423.854 49.8254 422.84 49.4972 421.826 49.1691C421.644 49.1144 421.359 49.0597 421.281 48.9777C420.553 48.2667 419.097 48.0206 417.719 47.6924C417.304 47.583 416.914 47.4736 416.524 47.3643C415.978 47.2002 415.848 47.0635 416.316 46.7626C416.602 46.5986 416.472 46.2978 416.55 46.0243C416.576 46.0243 416.706 46.1063 416.862 46.1337C417.096 46.2157 417.33 46.2704 417.589 46.3251C417.615 46.3251 417.797 46.2157 417.771 46.1884C417.615 46.079 417.408 45.997 417.278 45.9423C417.537 45.6141 417.797 45.286 418.057 44.9305C418.395 44.4382 419.331 44.3562 420.423 44.5203C421.021 44.6297 421.982 44.4656 422.606 44.2742C423.594 43.9734 424.634 43.6179 425.258 43.153C425.673 42.8522 426.219 42.8522 426.687 42.7155C426.817 42.6881 426.999 42.6608 427.103 42.6061C428.143 41.9771 429.183 41.3208 430.196 40.6645C430.534 40.4457 430.846 40.1996 431.028 39.9535C431.106 39.8441 430.794 39.6801 430.612 39.516C430.56 39.516 430.794 39.516 430.976 39.4613C431.158 39.4066 431.366 39.3519 431.418 39.2425C431.47 39.1878 431.366 39.0238 431.288 38.9964C429.702 38.8323 429.962 38.3401 430.352 37.8479C430.378 37.8205 430.352 37.7658 430.326 37.7112C430.3 37.6838 430.248 37.6565 430.092 37.6018C429.65 37.7658 429.183 37.9299 428.793 38.0667C428.065 37.6565 427.311 37.2189 426.479 36.754C426.713 36.7814 426.947 36.7814 427.363 36.8087C427.155 36.6173 427.051 36.4532 426.843 36.3986C426.713 36.3712 426.375 36.5079 426.115 36.5353C425.673 36.6173 425.206 36.672 425.024 36.6994C424.452 36.5626 424.062 36.4532 423.698 36.3712L423.516 36.4806C423.62 36.59 423.724 36.6994 423.854 36.8087C422.918 36.4259 421.281 36.6994 420.475 35.961C420.319 36.2345 420.215 36.4259 420.137 36.59C420.033 36.5353 419.825 36.4532 419.591 36.3712C419.409 36.4806 419.279 36.5626 419.227 36.59C418.473 36.1251 417.693 35.6876 416.862 35.168C417.018 35.0586 418.161 35.0039 417.226 34.6484C416.94 34.7031 416.628 34.7851 416.342 34.8398C416.238 34.6484 416.134 34.4843 416.03 34.2929C416.082 34.2656 416.16 34.2382 416.212 34.2382C416.472 34.3476 416.758 34.457 417.07 34.5937C417.33 34.5117 417.615 34.4023 417.823 34.3476C417.382 34.1288 416.966 33.9374 416.602 33.7187C416.134 33.4725 416.082 32.9256 416.368 32.5975C416.472 32.4881 416.316 32.324 416.264 32.1326C416.68 32.2146 417.07 32.2693 417.511 32.3514C417.563 32.2693 417.745 32.1599 417.693 32.1326C417.018 31.8591 417.563 31.6677 417.797 31.3942C418.083 31.0661 418.005 30.6833 418.031 30.3278C418.031 30.1637 417.771 29.9723 417.901 29.8355C418.421 29.3433 417.641 29.2613 416.992 29.0972C416.81 29.0425 416.576 29.0425 416.082 28.9605C416.914 28.8511 417.485 28.7417 418.057 28.7143C418.759 28.6597 418.967 28.5776 418.551 28.2768C418.343 28.1127 418.239 27.9487 418.057 27.7299C418.239 27.6752 418.525 27.6205 418.629 27.5111C418.915 27.265 418.915 27.0736 418.239 26.9095C417.382 26.6908 416.576 26.4173 415.77 26.1712C415.302 26.0345 415.25 25.843 415.692 25.679C416.472 25.3781 416.186 25.0227 416.03 24.6672C415.9 24.3664 415.51 24.0382 415.562 23.7374C415.64 23.0264 414.522 22.917 413.457 22.7256C412.131 22.4795 410.727 22.3701 409.661 21.7958C408.96 21.4403 407.686 21.3036 406.646 21.1395C405.554 20.9481 404.645 20.4832 403.241 20.702C402.825 20.7567 402.175 20.4559 401.603 20.3738C400.356 20.1824 399.082 20.0457 397.808 19.8816C397.237 19.7996 396.665 19.7449 396.067 19.7175C395.521 19.6902 394.949 19.7722 394.377 19.7722C394.091 19.7722 393.779 19.7996 393.546 19.7722C392.402 19.5261 391.284 19.3621 389.984 19.5261C389.231 19.6082 387.801 19.1433 387.593 18.8425C387.463 18.6784 387.125 18.4049 386.917 18.4323C386.501 18.4596 386.059 18.5964 385.695 18.7331C385.539 18.7878 385.488 18.9245 385.384 19.0066C384.24 18.9519 383.122 18.8698 382.03 18.8151C382.42 18.4323 382.732 18.1041 383.148 17.776C383.616 17.3931 384.448 17.5025 385.02 17.6666C386.917 18.1862 388.893 17.858 390.816 17.8307C391.18 17.8307 391.518 17.5846 391.83 17.4205C392.922 16.9009 396.275 16.8189 397.341 17.3658C397.548 17.4752 397.522 17.7486 397.419 17.9127C396.977 18.7057 397.471 18.9519 399.212 19.0886C400.46 19.1706 401.655 19.1706 402.851 19.0612C403.319 19.0066 403.761 18.9519 403.709 18.6511C403.683 18.569 403.943 18.4596 404.125 18.3776C404.645 18.1315 405.269 17.9127 405.71 17.6119C405.944 17.4478 406.022 17.2017 405.97 17.0103C405.866 16.5181 406.49 16.2173 407.556 16.3267C407.946 16.354 408.336 16.436 408.7 16.4907C409.973 16.6822 410.077 16.7642 409.765 17.4478C410.363 17.3658 410.857 17.3111 411.455 17.2564C411.611 17.3385 411.767 17.5025 412.053 17.5846C412.495 17.7213 413.015 17.8307 413.534 17.8307C413.794 17.8307 414.34 17.5846 414.288 17.5025C414.184 17.2838 413.82 17.0923 413.508 16.9009C413.353 16.8189 413.015 16.7915 412.859 16.7095C412.391 16.4634 412.625 16.1899 413.379 16.1626C414.028 16.1352 414.704 16.2446 415.354 16.2173C416.836 16.1626 418.161 16.3267 419.461 16.6548C419.617 16.6822 420.007 16.5728 420.241 16.4907C420.345 16.4634 420.371 16.354 420.371 16.272C420.449 15.9712 420.241 15.5336 420.605 15.3969C421.411 15.1234 422.502 15.0141 423.412 14.8226C424.53 14.5765 425.725 14.3304 426.713 13.9749C427.961 13.51 427.857 12.7717 426.453 12.4435C425.05 12.088 423.646 11.6232 421.878 11.7052C421.644 11.7052 421.359 11.6779 421.177 11.7325C419.955 12.0333 418.889 11.7872 417.875 11.5411C417.356 11.4044 417.018 11.4044 416.524 11.5685C415.822 11.8146 414.99 11.9787 414.21 12.1974C414.47 11.8966 414.886 11.6232 414.912 11.3224C414.964 10.9669 414.756 10.584 414.574 10.2285C414.522 10.1191 414.158 10.0371 413.898 9.98241C412.053 9.65425 410.207 9.35345 408.336 9.05264C406.75 8.80653 405.139 8.58776 403.553 8.28696C404.593 8.09554 405.632 8.04085 406.724 8.17758C408.986 8.47838 411.247 8.88857 413.56 9.05264C414.886 9.16203 416.394 8.94326 417.771 8.77919C418.135 8.75184 418.629 8.42369 418.629 8.25961C418.603 8.06819 418.083 7.82208 417.693 7.76739C416.81 7.63066 415.874 7.60331 414.938 7.54862C414.184 7.52127 413.638 7.41189 413.327 7.08374C412.885 6.6462 412.391 6.18132 412.105 5.71644C411.871 5.3336 411.403 5.11483 410.649 4.95076C410.467 4.92341 410.285 4.86872 410.077 4.86872C407.946 4.78668 406.88 4.10304 406.022 3.31C405.503 2.81778 404.489 2.59901 403.397 2.46228C401.292 2.18882 399.212 1.86067 397.081 1.75129C395.833 1.66925 394.481 1.91536 393.208 2.05209C391.96 2.21617 390.816 2.24351 389.62 1.97006C389.023 1.83333 388.347 1.75129 387.697 1.72394C384.76 1.6419 381.822 1.58721 378.885 1.50517C378.339 1.47783 377.741 1.42314 377.274 1.31375C374.57 0.684798 371.867 0.219917 368.696 0.466031C366.72 0.60276 364.719 0.383993 362.743 0.247263C360.378 0.055842 357.96 0.0284961 355.569 0.00115019C352.632 -0.0261957 349.928 0.438685 347.225 0.903565C346.679 0.985603 346.003 0.985603 345.406 0.930911C342.416 0.630106 339.453 0.13788 336.334 0.301955C334.904 0.383993 333.423 0.575414 332.149 0.876219C330.797 1.20437 329.472 1.06764 328.562 0.766836C326.508 0.055842 324.481 0.301955 322.323 0.520722C320.972 0.657452 319.49 0.930911 318.216 0.821527C314.837 0.493376 311.614 0.876219 308.339 1.06764C307.715 1.09499 307.065 1.17702 306.493 1.28641C305.818 1.42314 305.194 1.47783 304.596 1.45048H304.492C304.466 1.45048 304.44 1.42314 304.388 1.42314V1.36845H303.218C303.036 1.31375 302.828 1.31375 302.646 1.25906C300.333 0.520722 297.811 0.548068 295.264 0.930911C294.458 1.06764 293.705 1.23172 292.899 1.36845H288.844C288.428 1.3411 288.012 1.36845 287.622 1.3411C286.504 1.20437 285.569 1.25906 284.711 1.36845H204.183C202.675 1.14968 200.96 1.20437 199.192 1.36845H185.39C184.324 1.3411 183.258 1.28641 182.192 1.25906C181.595 1.25906 181.049 1.31375 180.503 1.36845H75.5412V1.75129C74.1376 1.86067 72.7079 1.94271 71.3043 1.83333C68.1591 1.61456 65.4298 2.05209 62.7264 2.59901C62.2326 2.70839 61.6607 2.73574 61.1148 2.76309C58.1776 2.84512 55.2403 2.87247 52.3031 2.95451C51.6532 2.98185 50.9774 3.06389 50.3795 3.17328C49.1838 3.41939 48.0401 3.3647 46.7924 3.22797C45.5188 3.09124 44.1671 2.87247 42.9194 2.95451C40.7879 3.06389 38.7085 3.3647 36.603 3.61081C35.5113 3.72019 34.4975 3.93896 33.9776 4.37649C33.1199 5.11483 32.0541 5.6891 29.9227 5.79848C29.7407 5.79848 29.5328 5.85317 29.3508 5.88052C28.597 6.01725 28.1291 6.20867 27.8952 6.56417C27.6092 6.97436 27.1154 7.38454 26.6735 7.79473C26.3616 8.06819 25.8157 8.17758 25.0619 8.20492C24.1261 8.23227 23.1903 8.28696 22.3066 8.39634C21.8907 8.45103 21.3708 8.69715 21.3708 8.86122C21.3448 9.0253 21.8387 9.29876 22.2286 9.3261C23.6062 9.46283 25.0879 9.65425 26.4395 9.57222C28.753 9.40814 31.0144 9.05264 33.2758 8.77919C34.3675 8.64246 35.4073 8.69715 36.447 8.86122C34.8614 9.10734 33.2498 9.29876 31.6642 9.54487C29.7927 9.81833 27.9472 10.0918 26.1016 10.3652C25.8417 10.4199 25.4778 10.502 25.4258 10.584C25.2438 10.9122 25.0359 11.2403 25.0879 11.5685C25.1399 11.8146 25.5298 12.088 25.7897 12.3615C25.0099 12.1701 24.2041 12.0333 23.4763 11.8146C22.9824 11.6779 22.6445 11.6779 22.1246 11.7872C21.0849 12.006 20.0451 12.2521 18.8234 11.9787C18.6415 11.924 18.3556 11.9787 18.1216 11.9513C16.3541 11.8693 14.9504 12.2795 13.5468 12.6076C12.1431 12.9084 12.0391 13.5647 13.2868 14.0023C14.2486 14.3304 15.4443 14.5492 16.588 14.7679C17.5238 14.9594 18.5895 15.0414 19.3953 15.2875C19.7332 15.3969 19.5513 15.8071 19.6292 16.0805C19.6552 16.1352 19.6552 16.2446 19.7592 16.272C19.9932 16.3267 20.3831 16.436 20.539 16.4087C21.8387 16.1352 23.1644 15.9712 24.646 16.0259C25.2958 16.0532 25.9716 15.9438 26.6215 15.9712C27.3753 15.9985 27.5832 16.2173 27.1414 16.4634C26.9854 16.5454 26.6475 16.5728 26.4915 16.6548C26.1796 16.8189 25.8157 16.983 25.7117 17.2017C25.6597 17.2838 26.2056 17.5025 26.4655 17.5025C26.9594 17.5025 27.4793 17.3931 27.9472 17.2838C28.2331 17.2017 28.415 17.065 28.545 16.983C29.1429 17.0376 29.6367 17.0923 30.2346 17.1744C29.9227 16.5728 30.0526 16.4907 31.3003 16.3267C31.6902 16.272 32.0541 16.2173 32.444 16.1626C33.5098 16.0532 34.1336 16.3267 34.0296 16.7642C33.9776 16.9556 34.0556 17.1744 34.2896 17.3111C34.7315 17.5572 35.3553 17.776 35.8752 17.9948C36.0311 18.0768 36.2911 18.1588 36.2911 18.2409C36.2391 18.5143 36.681 18.569 37.1488 18.5964C38.3705 18.7057 39.5402 18.7057 40.7879 18.6237C42.5295 18.5143 43.0234 18.2682 42.5815 17.5572C42.4775 17.3931 42.4515 17.1744 42.6595 17.065C43.7252 16.5728 47.1044 16.6275 48.1701 17.1197C48.482 17.2564 48.8459 17.4752 49.1838 17.4752C51.1073 17.5025 53.0829 17.8033 54.9804 17.3385C55.5522 17.2017 56.358 17.1197 56.8519 17.4478C57.2678 17.7486 57.5797 18.0494 57.9696 18.3776C56.8779 18.4323 55.7862 18.487 54.6165 18.5417C54.5385 18.4596 54.4865 18.3503 54.3045 18.2956C53.9406 18.1862 53.4987 18.0494 53.0829 18.0221C52.8749 18.0221 52.537 18.2409 52.407 18.4049C52.1731 18.6784 50.7694 19.0886 50.0156 19.0066C48.716 18.8698 47.5982 19.0339 46.4545 19.2253C46.2206 19.28 45.9087 19.2527 45.6227 19.2253C45.0509 19.198 44.479 19.1433 43.9331 19.1706C43.3353 19.198 42.7634 19.2527 42.1916 19.3074C40.9179 19.4441 39.6442 19.5808 38.3965 19.7449C37.8247 19.8269 37.1748 20.1004 36.7589 20.0457C35.3293 19.8543 34.4455 20.2645 33.3538 20.4559C32.2881 20.62 31.0144 20.7293 30.3386 21.0575C29.2468 21.5497 27.8692 21.6865 26.5435 21.8779C25.4518 22.0419 24.3601 22.124 24.438 22.7803C24.464 23.0537 24.1001 23.3272 23.9702 23.628C23.8142 23.9562 23.5543 24.2843 24.3081 24.5304C24.75 24.6945 24.672 24.8586 24.2301 24.968C23.4243 25.1867 22.6185 25.4328 21.7607 25.6243C21.1109 25.761 21.0849 25.9524 21.3708 26.1712C21.4748 26.2532 21.7607 26.3079 21.9427 26.3626C21.7607 26.554 21.6567 26.7181 21.4488 26.8548C21.0329 27.1283 21.2408 27.2103 21.9427 27.2377C22.5145 27.265 23.0864 27.3744 23.9182 27.4838C23.4243 27.5385 23.2163 27.5658 23.0084 27.5932C22.3846 27.7299 21.5788 27.8119 22.0986 28.2495C22.2286 28.3589 21.9687 28.5229 21.9687 28.687C21.9946 29.0152 21.9167 29.3433 22.2026 29.6441C22.4365 29.8902 22.9824 30.0543 22.3066 30.3004C22.2546 30.3278 22.4365 30.4371 22.4885 30.4918C22.9304 30.4371 23.3203 30.3551 23.7362 30.3004C23.6842 30.4645 23.5283 30.6012 23.6322 30.7106C23.9182 31.0114 23.8662 31.4763 23.3983 31.6951C23.0344 31.8865 22.5925 32.0505 22.1766 32.242C22.3846 32.2967 22.6705 32.3787 22.9304 32.4607C23.2423 32.3514 23.5283 32.242 23.7882 32.1599C23.8402 32.1873 23.9182 32.1873 23.9702 32.2146C23.8662 32.3787 23.7622 32.5428 23.6582 32.7069C23.3723 32.6522 23.0604 32.5975 22.7745 32.5428C21.8387 32.8709 22.9824 32.9256 23.1384 33.0077C22.3066 33.4452 21.5528 33.8554 20.773 34.2656C20.721 34.2382 20.591 34.1562 20.409 34.0741C20.1491 34.1562 19.9672 34.2382 19.8632 34.2656C19.7592 34.1015 19.6552 33.9374 19.5253 33.6913C18.7195 34.375 17.0819 34.1015 16.1461 34.457C16.2501 34.3476 16.3541 34.2656 16.484 34.1562L16.3021 34.0468C15.9122 34.1288 15.5483 34.2109 14.9764 34.3476C14.7945 34.3203 14.3266 34.2656 13.8847 34.2109C13.6247 34.1835 13.2868 34.0468 13.1569 34.0741C12.9229 34.1288 12.8449 34.2929 12.637 34.457C13.0529 34.4296 13.2868 34.4023 13.5208 34.4023C12.715 34.8125 11.9352 35.1953 11.2074 35.5782C10.8174 35.4414 10.3496 35.3047 9.90768 35.168C9.75172 35.2227 9.69973 35.25 9.67373 35.2774C9.64774 35.3047 9.62175 35.3594 9.64774 35.3867C10.0376 35.8516 10.2976 36.2618 8.71198 36.4259C8.634 36.4259 8.53002 36.59 8.58201 36.6447C8.65999 36.7267 8.84194 36.7814 9.0239 36.8361C9.20585 36.8634 9.4138 36.8634 9.38781 36.8634C9.20585 37.0275 8.89393 37.1642 8.97191 37.2736C9.15386 37.4924 9.46579 37.7112 9.8037 37.9026C10.8174 38.4768 11.8572 39.0511 12.8969 39.6254C12.9749 39.6801 13.1569 39.6801 13.3128 39.7348C13.8067 39.8441 14.3266 39.8441 14.7425 40.1176C15.3663 40.5278 16.406 40.8559 17.3938 41.1294C17.9916 41.2935 18.9794 41.4302 19.5773 41.3482C20.669 41.1841 21.6047 41.2661 21.9427 41.7037C22.1766 42.0045 22.4625 42.3053 22.7225 42.6061C22.5925 42.6608 22.3846 42.7428 22.2286 42.8248C22.2026 42.8522 22.4105 42.9616 22.4105 42.9616C22.6705 42.9069 22.9044 42.8522 23.1384 42.7975C23.2943 42.7428 23.4243 42.6881 23.4503 42.6881C23.5283 42.9342 23.4243 43.2077 23.6842 43.3444C24.1521 43.5905 24.0221 43.7273 23.4763 43.864C23.0864 43.9734 22.6965 44.0827 22.2806 44.1648C20.9029 44.4382 19.4473 44.6844 18.7195 45.3133C18.6415 45.3954 18.3556 45.4227 18.1736 45.4774C17.1859 45.7782 16.1461 46.0517 15.1844 46.3798C14.8724 46.4892 14.5605 46.708 14.5605 46.872C14.5605 47.501 13.6507 47.8291 12.455 48.0479C11.3373 48.2667 10.1936 48.4581 9.12787 48.7316C8.68598 48.8409 8.16611 49.1144 8.19211 49.3058C8.2181 49.4972 8.76396 49.7434 9.23185 49.8254C10.5315 50.0988 11.8572 49.9895 13.2348 49.8254C14.1186 49.716 15.1324 49.6613 16.0681 49.6887C18.4335 49.7707 20.617 49.5793 22.6185 49.0597C23.6322 48.8136 24.672 48.7862 25.7117 48.8409C27.3493 48.923 28.9869 49.0597 30.5985 49.1964C30.8844 49.2238 31.1703 49.3058 31.4563 49.3879C31.4303 49.4426 31.4303 49.4972 31.4303 49.5519C29.5068 49.7434 27.5832 49.9348 25.6597 50.0988C25.2958 50.1262 24.8799 50.1262 24.594 50.1809C24.2821 50.2629 23.9442 50.3997 23.8922 50.5364C23.8662 50.6184 24.2561 50.7825 24.542 50.8372C25.1139 50.9466 25.4518 51.0286 25.1918 51.3294C25.1139 51.4115 25.4518 51.6302 25.6857 51.6576C25.9976 51.7123 26.4915 51.6576 26.7774 51.6029C26.9594 51.5482 26.9594 51.3841 26.9594 51.2474C26.9594 51.1106 26.7255 50.8645 26.8554 50.8372C27.4273 50.6731 28.3371 50.427 28.649 50.509C30.5465 51.0013 32.522 50.8098 34.4975 50.7552C35.7452 50.7278 36.629 50.3997 36.603 49.9895C36.551 49.4972 37.1229 49.3332 38.1366 49.5793C39.4103 49.8801 40.632 50.2082 41.9057 50.5364C42.2436 50.6184 42.7115 50.6458 43.1014 50.6458C44.8169 50.6731 46.5585 50.5637 48.1701 50.9192C48.612 51.0286 49.2618 51.0013 49.8077 50.9739C50.9774 50.9192 52.1211 50.7825 53.3428 50.8919C54.0966 50.9466 54.4345 51.138 54.6425 51.3841C54.7724 51.5482 54.7984 51.7396 54.8764 51.9037C54.9804 51.9037 55.0324 51.9037 55.0584 51.9037C55.2403 51.7943 55.4223 51.6849 55.7082 51.5208C55.8642 51.6576 56.0201 51.7396 56.0201 51.8216C56.0201 51.9037 55.8902 52.0131 55.7602 52.1498C56.9039 51.8763 57.1378 51.9037 58.3075 52.6147C57.9176 52.5873 57.5017 52.5053 57.2938 52.56C56.1761 52.8061 55.0584 52.8061 53.8107 52.8061C52.667 52.8061 52.8489 53.271 53.1868 53.7359C52.303 53.6538 51.6532 53.5991 50.9774 53.5171C51.1333 53.353 51.2373 53.3257 51.3413 53.2983C51.6012 53.1889 51.8352 53.0522 52.0691 52.9155C51.6792 52.8334 51.2893 52.7514 50.8734 52.6967C50.3016 52.642 49.7037 52.56 49.1059 52.56C47.5462 52.5326 45.9866 52.5053 44.453 52.5873C43.9851 52.6147 43.6212 52.9702 43.1533 53.1342C42.8154 53.2436 42.3995 53.3257 41.9836 53.3804C41.4378 53.4624 40.8399 53.4897 40.3201 53.5718C39.6442 53.6812 38.9164 54.0093 38.3965 53.9546C37.0189 53.8179 35.4593 53.7359 34.7575 53.0796C34.2116 52.5873 34.0036 52.56 32.756 52.7514C32.444 52.8061 32.0541 52.8334 31.8462 52.9155C31.1184 53.2163 30.6505 53.1069 30.0006 52.8334C29.0909 52.4779 28.1031 52.0131 26.5955 52.3959C25.6077 52.642 24.62 52.8334 23.3983 52.6967C23.1644 52.6694 22.8524 52.7787 22.5925 52.8334C22.3586 52.8881 22.0726 52.9975 21.8907 52.9702C20.7989 52.8334 19.9412 53.0796 19.0314 53.2436C18.8234 53.271 18.5115 53.3257 18.3556 53.2983C17.2118 53.0249 16.0421 52.7787 15.0284 52.4232C14.1446 52.1498 13.4688 51.7669 12.1431 51.931C11.7792 51.9857 11.3113 51.931 10.9734 51.8763C9.93367 51.6849 8.97191 51.7943 8.27009 52.0678C7.46429 52.3686 6.89243 52.3412 5.98266 52.1771C5.17686 52.0404 4.16312 51.7669 3.22735 52.1771C2.73347 52.3959 2.10963 52.6147 1.45979 52.7514C-0.0998149 53.1342 -0.515711 54.146 0.731977 54.693C1.22585 54.9117 1.40781 55.0758 0.83595 55.3219C0.731977 55.3766 0.965918 55.6227 1.06989 55.6501C1.45979 55.6774 1.90168 55.6501 2.31758 55.5954C2.94142 55.5407 3.51328 55.4313 4.13712 55.3766C5.09888 55.2946 5.51478 55.4586 5.56676 55.8688C5.64475 56.4978 6.50253 56.7713 7.95817 56.7439C8.34807 56.7439 8.86794 56.8259 9.12787 56.9627C10.0376 57.4002 10.7395 57.5096 11.9352 57.2088C12.533 57.0721 12.741 57.1541 13.1309 57.3182C13.5208 57.4822 14.2486 57.6737 14.6645 57.619C15.6002 57.5096 15.7042 57.701 15.8342 57.9745C15.9902 58.2753 16.432 58.4667 17.2118 58.3573C17.7317 58.3026 18.3816 58.1932 18.6675 58.0292C19.7332 57.4276 21.1889 57.6737 22.5145 57.6737C22.6705 57.6737 22.8784 57.7831 22.9304 57.8651C22.9564 57.9198 22.6705 57.9745 22.5145 58.0292C22.2286 58.1385 21.7867 58.1932 21.6307 58.3026C21.0849 58.6855 22.3846 59.4785 23.5283 59.4238C25.0359 59.3418 26.7255 59.4238 27.5313 58.6308C27.7392 58.4394 28.623 58.2206 29.1429 58.2479C30.1566 58.3026 30.8324 59.123 30.3645 59.6152C29.7667 59.3418 29.1688 59.0957 28.467 58.7948C28.2591 59.123 28.0511 59.3418 27.9991 59.5605C27.9212 59.834 27.8952 60.0801 27.0114 60.1075C26.9334 60.1075 26.7774 60.4083 26.8554 60.4356C27.7652 60.6817 28.701 60.9278 29.6367 61.1466C30.1306 61.2833 30.6505 61.3927 31.0664 61.5568C31.4563 61.6935 31.7422 61.8849 32.1321 62.049C32.626 62.2678 33.1978 62.4045 33.9257 62.2404C34.6535 62.0764 35.2773 61.8576 35.2253 61.4747C35.1993 61.1193 34.7315 60.8731 33.8997 60.7638C32.47 60.5723 32.2101 60.4083 32.8079 59.8613C33.1978 59.5058 33.1978 59.2324 32.704 58.8769C32.392 58.6581 32.0021 58.3847 32.6 58.1112C33.3538 57.783 34.6535 57.6737 35.7192 57.8377C36.3171 57.9198 36.9409 58.0018 37.5647 58.0018C38.2926 58.0292 38.7345 58.1385 38.9164 58.4394C39.0984 58.7402 39.5922 58.8769 40.372 58.9042C40.8919 58.9316 41.4638 59.0136 41.8537 59.123C42.6595 59.3965 43.4133 59.6426 44.531 59.6426C44.8429 59.6426 45.2328 59.7246 45.4668 59.834C46.0386 60.0801 46.6365 60.1075 47.2603 59.916C47.9102 59.7246 48.0661 59.4511 47.5203 59.1503C47.1823 58.9589 47.1563 58.7675 47.8322 58.7128C48.2221 58.6855 48.664 58.7402 49.0799 58.7675C48.9759 58.9042 48.8979 59.041 48.7939 59.1503C48.7679 59.1777 48.716 59.2324 48.664 59.2597C48.352 59.5605 48.586 59.8066 49.2358 59.916C49.5997 59.9707 50.2236 59.916 50.5615 59.8066C51.1073 59.6152 51.0034 59.3691 50.5355 59.1503C50.3275 59.0683 50.1716 58.9316 50.0156 58.8495C50.0676 58.8222 50.1196 58.7675 50.1456 58.7402C50.7434 58.7675 51.3673 58.7948 52.0691 58.7948C51.8612 59.0136 51.7572 59.1503 51.6272 59.2597C51.3413 59.5605 51.6012 59.834 52.3031 59.9434C52.693 59.9981 53.3688 59.8887 53.6547 59.752C54.1746 59.5332 53.9146 59.2597 53.3428 59.0683C53.1088 58.9863 52.9009 58.8769 52.563 58.7402C52.9009 58.7128 53.0309 58.6855 53.1348 58.6855C54.4865 58.6855 55.8642 58.7128 57.2158 58.7128C57.5797 58.7128 58.0476 58.7128 58.2556 58.6308C58.8014 58.412 59.3993 58.4394 60.0231 58.494C60.387 58.5214 60.7509 58.5214 61.1148 58.494C62.8564 58.4394 63.1423 58.5487 63.4023 59.2324C63.5062 59.5332 64.0001 59.7246 64.7279 59.6699C65.4298 59.6152 65.7157 59.4238 65.6117 59.123C65.5857 59.0136 65.5077 58.9316 65.4558 58.8222C65.5337 58.7948 65.6377 58.7675 65.7157 58.7402C66.0016 58.8495 66.2875 58.9589 66.5735 59.0683C66.8594 59.1777 67.1973 59.3965 67.4572 59.3965C67.8212 59.3691 68.1071 59.1777 68.419 59.0683C68.627 58.9863 68.8869 58.8769 69.0688 58.8769C69.3548 58.9042 69.6927 59.0136 69.7967 59.123C70.1606 59.5879 70.3685 59.6426 71.3563 59.4511C71.8761 59.3418 72.1881 59.3418 72.578 59.5332C73.0459 59.752 73.6437 59.7793 74.1896 59.5879C74.7614 59.3691 74.7094 59.123 74.2415 58.8769C74.0336 58.7675 73.8257 58.6581 73.5397 58.5214C74.7874 58.412 74.8394 58.7675 75.1773 59.0136C75.2813 59.0957 75.4373 59.1777 75.5932 59.2324V63.1428C75.3073 63.1702 75.0214 63.1975 74.9174 63.2522C74.3975 63.553 73.8516 63.553 73.0978 63.553C72.6559 63.553 71.9541 63.7445 71.8242 63.9085C71.7202 64.0453 72.1881 64.2914 72.526 64.4555C72.7079 64.5375 73.1238 64.5922 73.4617 64.5922C74.1896 64.5922 74.8914 64.5922 75.6192 64.5648V64.6469H290.533C290.533 64.6469 290.533 64.6469 290.533 64.6742C290.663 64.6742 290.793 64.6742 290.923 64.6742H294.978C295.082 64.7289 295.186 64.8109 295.238 64.8656C295.342 64.8383 295.472 64.8383 295.576 64.8109C295.576 64.7563 295.602 64.7289 295.602 64.6742H304.414V64.264H305.194C305.506 64.4008 305.662 64.6195 305.324 64.975C306.155 64.6742 306.779 64.4555 307.377 64.264H315.851V63.471C316.241 63.471 316.709 63.389 317.125 63.3616C317.463 63.3343 317.956 63.3069 318.112 63.389C318.736 63.7171 319.386 63.6898 320.062 63.471C320.556 63.3069 320.972 63.1702 321.518 63.471C321.673 63.553 322.297 63.5257 322.583 63.4436C323.363 63.2249 324.039 63.1975 324.793 63.471C324.975 63.5257 325.417 63.4983 325.651 63.4163C326.196 63.2796 326.43 63.3069 326.69 63.5804C327.262 64.1546 328.198 64.182 329.186 63.6898C329.446 63.553 329.965 63.553 330.355 63.471C330.381 63.471 330.407 63.471 330.459 63.471C331.707 63.5804 332.253 63.7445 332.955 64.2367C333.475 64.5922 334.306 64.6195 334.878 64.2914C335.164 64.1273 335.372 63.9359 335.554 63.7991C336.204 63.8812 336.802 64.0726 337.27 64.0179C337.815 63.9632 338.231 63.6624 338.777 63.4436C339.141 63.8812 338.335 64.5648 339.869 64.5922C340.337 64.5922 340.831 64.1546 341.403 63.8538C341.637 63.9359 342.078 64.2093 342.598 64.264C343.092 64.3187 343.664 64.1273 344.262 64.0179C345.873 64.6469 345.873 64.6469 347.199 64.1546C348.915 64.9203 349.513 64.8656 350.5 63.7991C350.604 63.9906 350.578 64.2093 350.786 64.3461C351.02 64.5101 351.462 64.7016 351.774 64.7016C352.112 64.7016 352.502 64.4828 352.736 64.3187C352.97 64.1546 353.022 63.9085 353.126 63.7171C353.23 63.7171 353.36 63.7445 353.464 63.7445C353.49 63.8538 353.542 63.9632 353.542 64.0726C353.516 64.4008 353.801 64.7016 354.503 64.7289C354.971 64.7289 355.439 64.4828 355.881 64.3187C355.933 64.2914 355.933 64.264 355.959 64.2367C356.141 64.1 356.349 63.9906 356.531 63.8538C356.661 63.9906 356.765 64.1546 356.921 64.2914C357.103 64.4555 357.311 64.5922 357.519 64.7563C357.804 64.6195 358.09 64.4828 358.35 64.3461C358.532 64.2367 358.688 64.1273 358.896 64.0453C358.974 64.0179 359.338 64.1273 359.416 64.182C359.676 64.4555 359.806 64.8383 360.612 64.7289C361.106 64.6742 361.496 64.4008 362.015 64.182C362.067 64.2093 362.145 64.3187 362.301 64.4008C362.717 64.5648 363.185 64.8656 363.601 64.8656C364.043 64.8656 364.563 64.5648 364.823 64.3461C365.161 64.0453 365.213 63.6624 366.46 63.7991C366.174 63.9632 365.966 64.0726 365.758 64.2093C365.291 64.4828 365.239 64.7563 365.81 65.0024C366.33 65.2211 366.954 65.1938 367.422 64.9477C367.812 64.7563 368.124 64.7563 368.644 64.8656C369.605 65.0844 369.813 65.0024 370.203 64.5101C370.281 64.4008 370.645 64.264 370.931 64.2367C371.113 64.2093 371.373 64.3734 371.581 64.4555C371.919 64.5922 372.205 64.811 372.543 64.8383C372.803 64.8656 373.141 64.6195 373.427 64.4828C373.712 64.3461 373.998 64.2367 374.284 64.1C374.362 64.1273 374.466 64.1546 374.544 64.182C374.492 64.2914 374.44 64.4008 374.388 64.5375C374.284 64.8656 374.57 65.1118 375.272 65.1664C376.026 65.2211 376.494 65.0297 376.598 64.6742C376.858 63.9085 377.144 63.7991 378.885 63.8538C379.249 63.8538 379.639 63.8538 379.977 63.8265C380.627 63.7718 381.199 63.7718 381.744 63.9906C381.978 64.0726 382.446 64.0726 382.784 64.0726C384.136 64.0726 385.513 64.0453 386.865 64.0453C386.995 64.0453 387.125 64.0726 387.437 64.1C387.125 64.264 386.917 64.3734 386.657 64.4828C386.111 64.7016 385.851 64.975 386.345 65.2485C386.631 65.3852 387.307 65.4946 387.697 65.4399C388.399 65.3305 388.659 65.0297 388.373 64.6742C388.269 64.5375 388.139 64.4008 387.931 64.1546C388.633 64.1273 389.231 64.1 389.854 64.0726C389.906 64.1 389.958 64.1546 389.984 64.182C389.802 64.2914 389.646 64.4281 389.465 64.5375C388.997 64.7836 388.867 65.0571 389.439 65.2758C389.75 65.3852 390.4 65.4672 390.764 65.3852C391.414 65.2485 391.622 64.975 391.336 64.6469C391.284 64.5922 391.232 64.5648 391.206 64.5101C391.102 64.3734 391.024 64.2093 390.92 64.0726C391.336 64.0453 391.778 63.9906 392.168 64.0179C392.818 64.0726 392.818 64.2914 392.48 64.5101C391.934 64.8383 392.09 65.1391 392.74 65.3579C393.364 65.5766 393.961 65.5219 394.533 65.2485C394.767 65.1391 395.157 65.0297 395.469 65.0297C396.561 65.0297 397.341 64.7563 398.146 64.4555C398.536 64.3187 399.108 64.2093 399.628 64.2093C400.408 64.182 400.902 64.0179 401.084 63.6898C401.266 63.3343 401.707 63.2249 402.435 63.1975C403.059 63.1702 403.683 63.1155 404.281 63.0061C405.347 62.8147 406.646 62.9241 407.4 63.3069C407.998 63.6077 407.608 63.9085 407.296 64.1546C406.802 64.5375 406.802 64.8383 407.192 65.2485C407.816 65.8501 407.53 66.0415 406.1 66.2603C405.269 66.3697 404.827 66.6431 404.775 67.0533C404.723 67.4908 405.347 67.737 406.074 67.9284C406.776 68.0925 407.374 67.9557 407.868 67.7096C408.232 67.5182 408.518 67.2994 408.934 67.1627C409.376 66.9986 409.869 66.8619 410.363 66.6978C411.299 66.4244 412.235 66.1782 413.145 65.9048C413.249 65.8774 413.067 65.5493 412.989 65.5493C412.105 65.5219 412.079 65.2211 412.001 64.9203C411.949 64.6742 411.741 64.4555 411.533 64.0726C410.831 64.4008 410.233 64.7016 409.635 64.975C409.168 64.4008 409.843 63.4983 410.857 63.4436C411.377 63.4163 412.261 63.6624 412.469 63.8812C413.275 64.7563 414.964 64.6742 416.472 64.7563C417.615 64.8383 418.889 63.9359 418.369 63.5257C418.187 63.389 417.771 63.3069 417.486 63.2249C417.33 63.1702 417.044 63.0882 417.07 63.0335C417.096 62.9514 417.33 62.8147 417.486 62.8147C418.811 62.8147 420.267 62.5412 421.333 63.2249C421.618 63.4163 422.268 63.5257 422.788 63.5804C423.542 63.6898 423.984 63.471 424.166 63.1428C424.322 62.842 424.4 62.6233 425.336 62.76C425.751 62.8147 426.479 62.6233 426.869 62.4319C427.285 62.2404 427.467 62.131 428.065 62.2951C429.261 62.6233 429.988 62.5139 430.872 62.0217C431.106 61.8849 431.652 61.7756 432.042 61.8029C433.523 61.8302 434.355 61.5294 434.433 60.8184C434.485 60.3809 434.901 60.1895 435.863 60.2715C436.487 60.3262 437.059 60.4356 437.682 60.5176C438.098 60.5723 438.514 60.5997 438.93 60.5723C439.06 60.5723 439.268 60.2715 439.164 60.2168C438.592 59.9434 438.774 59.752 439.268 59.5058C440.516 58.9863 440.1 57.8651 438.54 57.4276Z" fill="#F15A24"/>
</svg>
