<svg width="540" height="68" viewBox="0 0 540 68" fill="none" xmlns="http://www.w3.org/2000/svg">
<path d="M65.6576 63.2796C64.5091 63.3343 63.2012 63.4983 62.276 63.3616C59.8835 63.0335 57.7461 62.9788 55.4492 63.4163C54.6836 63.553 53.567 63.4983 53.1523 63.0882C52.8652 62.8147 52.3867 62.5686 51.3659 62.6506C49.9941 62.76 48.75 63.2249 48.8776 63.553C48.9733 63.7991 49.2923 63.9085 50.0579 63.7718C50.5364 63.6624 51.0469 63.5804 51.7806 63.4436C52.0039 63.6351 52.2591 63.7718 52.2591 63.9085C52.2591 64.2367 52.6738 64.4555 53.5032 64.5648C54.6836 64.7016 55.8958 64.8383 57.14 64.9203C58.1927 65.0024 59.373 65.0844 60.362 65.0024C61.4466 64.9203 62.3398 64.6469 63.5521 64.893C63.8711 64.9477 64.4134 64.8656 64.86 64.8383C65.3386 64.811 65.8171 64.7836 66.2956 64.7836C67.7311 64.8109 68.5925 64.5648 68.6244 64.1C68.6244 63.4983 67.3802 63.1975 65.6576 63.2796Z" fill="#F15A24"/>
<path d="M85.3086 63.4163C84.0645 63.3069 82.7246 63.2796 81.4167 63.2796C79.4707 63.2796 77.5567 63.3343 75.8021 63.3616C74.4623 63.3069 73.8561 63.5804 73.5052 63.8812C73.3138 64.0453 73.3457 64.4008 73.569 64.4281C74.3027 64.5375 75.1322 64.5101 75.9616 64.5375C76.3125 64.5375 76.7591 64.4828 76.9824 64.5375C79.2474 65.0844 81.9271 64.9477 84.4473 65.0297C85.7871 65.0844 87.127 64.7016 87.3503 64.2914C87.5417 63.9085 86.808 63.5257 85.3086 63.4163Z" fill="#F15A24"/>
<path d="M58.9583 18.4596C59.373 18.4596 60.0749 18.1862 60.0749 18.0494C60.043 17.858 59.5644 17.6393 59.1178 17.5025C58.7031 17.3658 58.0332 17.3385 57.3952 17.2564C56.6614 17.6666 56.5657 17.8307 57.2995 18.1862C57.5866 18.3503 58.3841 18.4596 58.9583 18.4596Z" fill="#F15A24"/>
<path d="M72.8991 61.9123C73.2181 62.131 73.9837 62.2678 74.7813 62.4865C75.4831 62.2404 75.9935 62.0764 76.5039 61.9123C75.9616 61.7482 75.515 61.5021 74.877 61.4474C74.0475 61.3654 72.612 61.7482 72.8991 61.9123Z" fill="#F15A24"/>
<path d="M51.334 51.7669C51.2383 51.5755 50.664 51.4388 50.3131 51.2747C50.1217 51.2747 49.9303 51.2747 49.7389 51.2747C49.4199 51.4388 48.8457 51.6029 48.7819 51.7669C48.6862 52.0404 49.2923 52.2045 50.0898 52.1771C50.8874 52.1771 51.4616 52.0404 51.334 51.7669Z" fill="#F15A24"/>
<path d="M44.8261 64.0179C44.7304 64.1273 45.3685 64.3187 45.6875 64.4828C45.8789 64.4828 46.0703 64.4828 46.2617 64.4828C46.5807 64.3187 47.2187 64.1546 47.1868 64.0179C47.1549 63.8538 46.5169 63.7171 46.1341 63.553C45.6556 63.7171 44.9856 63.8538 44.8261 64.0179Z" fill="#F15A24"/>
<path d="M46.2617 59.041C45.8151 59.041 45.4004 59.2324 44.6028 59.4511C45.4642 59.6699 45.9427 59.8613 46.4531 59.8613C46.8359 59.8613 47.5377 59.6426 47.6015 59.5058C47.761 59.205 47.0273 59.0136 46.2617 59.041Z" fill="#F15A24"/>
<path d="M75.834 59.9434C76.153 59.7793 76.7591 59.6152 76.6953 59.4511C76.6315 59.2871 75.9935 59.041 75.5469 59.0136C74.8132 58.9589 74.1751 59.1777 74.3347 59.4511C74.4304 59.6152 74.9408 59.7793 75.2917 59.9434C75.4512 59.9434 75.6426 59.9434 75.834 59.9434Z" fill="#F15A24"/>
<path d="M38.1907 63.6624C37.9674 63.9085 37.5846 64.1273 37.5527 64.3734C37.5208 64.4828 38.1269 64.5922 38.4459 64.7289C38.733 64.6195 39.2435 64.4828 39.2115 64.3734C39.1796 64.1273 38.8606 63.9085 38.6692 63.6624C38.5097 63.6898 38.3502 63.6624 38.1907 63.6624Z" fill="#F15A24"/>
<path d="M29.6412 51.4115C29.1946 51.3021 28.748 51.1106 28.3014 51.1106C27.8867 51.1106 27.4719 51.3021 27.0572 51.4115C27.44 51.5482 27.8229 51.6849 28.3971 51.8763C28.9394 51.6849 29.2903 51.5482 29.6412 51.4115Z" fill="#F15A24"/>
<path d="M57.3314 51.4388C56.8848 51.6849 56.4062 51.7943 56.4381 51.931C56.4381 52.0404 57.0762 52.2318 57.2995 52.2318C57.7142 52.2045 58.2565 52.0404 58.3203 51.931C58.3522 51.8216 57.8099 51.6849 57.3314 51.4388Z" fill="#F15A24"/>
<path d="M15.4771 60.4903C15.7642 60.5997 16.0514 60.7091 16.4661 60.8731C17.0084 60.7364 17.3912 60.627 17.774 60.545C17.455 60.4356 17.136 60.2715 16.8489 60.2715C16.3704 60.2715 15.9237 60.4083 15.4771 60.4903Z" fill="#F15A24"/>
<path d="M70.666 64.2367C70.6341 64.3187 71.2402 64.4828 71.3998 64.4555C71.7826 64.4281 72.2292 64.2914 72.3568 64.182C72.4206 64.1 71.9421 63.9632 71.5274 63.7718C71.1126 64.0179 70.7298 64.1273 70.666 64.2367Z" fill="#F15A24"/>
<path d="M42.7526 59.916C43.1673 59.7246 43.6139 59.5879 43.582 59.5058C43.5182 59.3965 43.0716 59.2597 42.7526 59.2324C42.5612 59.205 42.0188 59.3965 42.0188 59.4785C41.9869 59.5879 42.3698 59.6973 42.7526 59.916Z" fill="#F15A24"/>
<path d="M46.3893 51.2474C46.0703 51.4388 45.6875 51.5482 45.7513 51.6302C45.8151 51.7123 46.2936 51.8216 46.6126 51.8216C46.804 51.8216 47.2187 51.6576 47.2187 51.5755C47.1549 51.5208 46.804 51.4114 46.3893 51.2474Z" fill="#F15A24"/>
<path d="M22.0807 51.4935C21.5702 51.2474 20.996 51.2747 20.358 51.3841C20.2623 51.4114 20.2623 51.6029 20.3899 51.6029C21.0279 51.7396 21.634 51.7396 22.0807 51.4935Z" fill="#F15A24"/>
<path d="M8.6503 58.9316C8.6503 59.0136 8.6503 59.0683 8.6822 59.1503C9.19262 59.1503 9.70304 59.123 10.2135 59.123C10.2135 59.0683 10.2135 59.0136 10.1816 58.9316C9.63923 58.9316 9.16072 58.9316 8.6503 58.9316Z" fill="#F15A24"/>
<path d="M479.861 18.7057C479.861 18.8698 480.563 19.1433 480.978 19.1433C481.52 19.1706 482.318 19.0066 482.637 18.8425C483.37 18.4596 483.275 18.2409 482.541 17.8033C481.903 17.9127 481.233 17.9401 480.818 18.1041C480.372 18.2682 479.893 18.5143 479.861 18.7057Z" fill="#F15A24"/>
<path d="M488.57 56.3064C488.411 56.5798 489.017 56.7713 489.783 56.7713C490.612 56.7713 491.218 56.6072 491.091 56.3064C491.027 56.1149 490.484 55.9509 490.133 55.7594C489.942 55.7594 489.751 55.7594 489.559 55.7594C489.24 55.9235 488.698 56.0876 488.57 56.3064Z" fill="#F15A24"/>
<path d="M510.263 55.8962C510.614 56.0329 510.965 56.1696 511.507 56.4158C512.081 56.197 512.464 56.0603 512.847 55.8962C512.432 55.7868 512.018 55.568 511.603 55.568C511.156 55.5954 510.71 55.7868 510.263 55.8962Z" fill="#F15A24"/>
<path d="M482.637 56.7986C482.86 56.8259 483.498 56.6072 483.498 56.4704C483.498 56.3337 483.051 56.1696 482.605 55.9235C482.094 56.1696 481.552 56.3337 481.616 56.4431C481.68 56.6072 482.222 56.7712 482.637 56.7986Z" fill="#F15A24"/>
<path d="M522.162 66.0962C522.545 66.2056 522.928 66.315 523.47 66.479C523.885 66.2876 524.172 66.1782 524.459 66.0415C524.012 65.9595 523.566 65.7954 523.119 65.7954C522.8 65.7681 522.481 65.9595 522.162 66.0962Z" fill="#F15A24"/>
<path d="M492.717 56.1149C492.686 56.197 493.132 56.3884 493.324 56.3884C493.643 56.3884 494.089 56.2517 494.185 56.1696C494.249 56.0876 493.866 55.9509 493.547 55.7321C493.132 55.9235 492.749 56.0056 492.717 56.1149Z" fill="#F15A24"/>
<path d="M519.514 56.1423C519.61 56.1149 519.642 55.9235 519.546 55.8962C518.94 55.7594 518.334 55.7595 517.824 56.0056C518.302 56.279 518.908 56.279 519.514 56.1423Z" fill="#F15A24"/>
<path d="M529.723 64.4828C530.233 64.4828 530.744 64.5101 531.254 64.5101C531.254 64.4281 531.254 64.3461 531.286 64.2914C530.775 64.2914 530.265 64.2914 529.755 64.2914C529.755 64.3461 529.755 64.4008 529.723 64.4828Z" fill="#F15A24"/>
<path d="M538.208 57.4276C537.411 57.2635 536.677 57.0174 536.039 56.7713C534.891 56.3064 533.647 56.6072 532.658 56.7713C531.541 56.9627 530.807 56.99 529.85 56.6619C528.957 56.3611 527.777 56.2243 526.533 56.4431C526.118 56.5251 525.512 56.5525 525.097 56.4978C523.502 56.3337 522.641 56.7166 521.556 57.0447C520.312 57.4276 518.844 57.701 517.473 58.0018C517.281 58.0292 516.93 57.9745 516.643 57.9471C515.527 57.783 514.474 57.5096 513.134 57.6463C512.911 57.6737 512.56 57.5369 512.273 57.5096C511.954 57.4549 511.571 57.3455 511.284 57.3729C509.785 57.5096 508.572 57.3182 507.36 57.0174C505.51 56.6072 504.298 57.0994 503.181 57.5096C502.384 57.8104 501.809 57.9471 500.916 57.5916C500.661 57.4822 500.182 57.4549 499.8 57.4002C498.268 57.1814 498.013 57.2088 497.343 57.7831C496.482 58.5214 494.536 58.6034 492.877 58.7675C492.207 58.8222 491.346 58.4667 490.516 58.33C489.878 58.2206 489.145 58.1932 488.475 58.1112C487.964 58.0292 487.454 57.9471 487.039 57.8104C486.465 57.619 486.018 57.2361 485.444 57.2088C483.562 57.1267 481.648 57.1541 479.734 57.1814C479 57.1814 478.266 57.2635 477.564 57.3455C477.054 57.4002 476.576 57.5096 476.097 57.5916C476.384 57.7284 476.671 57.8651 476.99 58.0018C477.086 58.0565 477.245 58.0839 477.437 58.2479C476.639 58.33 475.81 58.3847 474.725 58.4667C475.14 57.9471 475.395 57.4276 473.96 57.4276C472.428 57.4276 471.057 57.4276 469.685 57.1541C469.398 57.0994 468.919 57.1814 468.441 57.2088C469.876 56.4158 470.163 56.3611 471.567 56.6892C471.439 56.5251 471.248 56.4431 471.248 56.3337C471.248 56.2243 471.471 56.1423 471.631 56.0056C471.982 56.197 472.205 56.3064 472.428 56.4158C472.428 56.4158 472.492 56.4158 472.652 56.4158C472.747 56.2243 472.779 56.0329 472.939 55.8415C473.194 55.568 473.609 55.3493 474.534 55.2946C476.033 55.1852 477.437 55.3493 478.872 55.404C479.542 55.4313 480.34 55.4586 480.882 55.3493C482.892 54.9391 484.997 55.0485 487.103 55.0211C487.613 55.0211 488.156 54.9938 488.57 54.8844C490.134 54.5562 491.633 54.1734 493.196 53.8452C494.472 53.5718 495.174 53.7632 495.078 54.3101C495.014 54.7477 496.131 55.1305 497.662 55.1578C500.087 55.2125 502.511 55.4586 504.84 54.8844C505.223 54.8023 506.339 55.0758 507.041 55.2672C507.201 55.2946 506.913 55.568 506.913 55.7321C506.913 55.8688 506.913 56.0876 507.137 56.1149C507.52 56.197 508.094 56.2243 508.477 56.1696C508.764 56.1423 509.178 55.8962 509.083 55.7868C508.796 55.4586 509.178 55.3493 509.88 55.2399C510.231 55.1852 510.742 54.9938 510.678 54.8844C510.614 54.7477 510.199 54.5836 509.816 54.5015C509.466 54.4195 508.955 54.4468 508.509 54.3922C506.148 54.2007 503.787 53.982 501.426 53.7632C501.395 53.7085 501.395 53.6538 501.395 53.5718C501.745 53.4897 502.065 53.4077 502.447 53.3804C504.457 53.2436 506.435 53.0796 508.445 52.9702C509.721 52.9155 510.997 52.9155 512.241 53.2163C514.697 53.7905 517.377 53.982 520.28 53.8999C521.428 53.8726 522.641 53.9273 523.757 54.0367C525.416 54.2281 527.075 54.3648 528.67 54.0367C529.244 53.9273 529.914 53.6538 529.946 53.435C529.978 53.2163 529.34 52.9428 528.798 52.8061C527.49 52.5053 526.086 52.2865 524.714 52.0404C523.247 51.7669 522.098 51.4115 522.13 50.7278C522.13 50.5364 521.747 50.3176 521.365 50.1809C520.184 49.8254 518.94 49.4972 517.696 49.1691C517.473 49.1144 517.122 49.0597 517.026 48.9777C516.133 48.2667 514.346 48.0206 512.656 47.6924C512.145 47.583 511.667 47.4736 511.188 47.3643C510.518 47.2002 510.359 47.0635 510.933 46.7626C511.284 46.5986 511.124 46.2978 511.22 46.0243C511.252 46.0243 511.412 46.1063 511.603 46.1337C511.89 46.2157 512.177 46.2704 512.496 46.3251C512.528 46.3251 512.751 46.2157 512.719 46.1884C512.528 46.079 512.273 45.997 512.113 45.9423C512.432 45.6141 512.751 45.286 513.07 44.9305C513.485 44.4382 514.634 44.3562 515.973 44.5203C516.707 44.6297 517.887 44.4656 518.653 44.2742C519.865 43.9734 521.141 43.6179 521.907 43.153C522.417 42.8522 523.087 42.8522 523.662 42.7155C523.821 42.6881 524.044 42.6608 524.172 42.6061C525.448 41.9771 526.724 41.3208 527.968 40.6645C528.383 40.4457 528.766 40.1996 528.989 39.9535C529.085 39.8441 528.702 39.6801 528.479 39.516C528.415 39.516 528.702 39.516 528.925 39.4613C529.149 39.4066 529.404 39.3519 529.468 39.2425C529.531 39.1878 529.404 39.0238 529.308 38.9964C527.362 38.8323 527.681 38.3401 528.16 37.8479C528.192 37.8205 528.16 37.7658 528.128 37.7112C528.096 37.6838 528.032 37.6565 527.841 37.6018C527.298 37.7658 526.724 37.9299 526.246 38.0667C525.352 37.6565 524.427 37.2189 523.406 36.754C523.693 36.7814 523.981 36.7814 524.491 36.8087C524.236 36.6173 524.108 36.4532 523.853 36.3986C523.693 36.3712 523.279 36.5079 522.96 36.5353C522.417 36.6173 521.843 36.672 521.62 36.6994C520.918 36.5626 520.44 36.4532 519.993 36.3712L519.77 36.4806C519.897 36.59 520.025 36.6994 520.184 36.8087C519.036 36.4259 517.026 36.6994 516.037 35.961C515.846 36.2345 515.718 36.4259 515.622 36.59C515.495 36.5353 515.24 36.4532 514.953 36.3712C514.729 36.4806 514.57 36.5626 514.506 36.59C513.581 36.1251 512.624 35.6876 511.603 35.168C511.794 35.0586 513.198 35.0039 512.05 34.6484C511.699 34.7031 511.316 34.7851 510.965 34.8398C510.837 34.6484 510.71 34.4843 510.582 34.2929C510.646 34.2656 510.742 34.2382 510.805 34.2382C511.124 34.3476 511.475 34.457 511.858 34.5937C512.177 34.5117 512.528 34.4023 512.783 34.3476C512.241 34.1288 511.731 33.9374 511.284 33.7187C510.71 33.4725 510.646 32.9256 510.997 32.5975C511.124 32.4881 510.933 32.324 510.869 32.1326C511.38 32.2146 511.858 32.2693 512.4 32.3514C512.464 32.2693 512.688 32.1599 512.624 32.1326C511.794 31.8591 512.464 31.6677 512.751 31.3942C513.102 31.0661 513.007 30.6833 513.039 30.3278C513.039 30.1637 512.719 29.9723 512.879 29.8355C513.517 29.3433 512.56 29.2613 511.762 29.0972C511.539 29.0425 511.252 29.0425 510.646 28.9605C511.667 28.8511 512.369 28.7417 513.07 28.7143C513.932 28.6597 514.187 28.5776 513.677 28.2768C513.421 28.1127 513.294 27.9487 513.07 27.7299C513.294 27.6752 513.645 27.6205 513.772 27.5111C514.123 27.265 514.123 27.0736 513.294 26.9095C512.241 26.6908 511.252 26.4173 510.263 26.1712C509.689 26.0345 509.625 25.843 510.167 25.679C511.124 25.3781 510.774 25.0227 510.582 24.6672C510.423 24.3664 509.944 24.0382 510.008 23.7374C510.104 23.0264 508.732 22.917 507.424 22.7256C505.797 22.4795 504.074 22.3701 502.766 21.7958C501.905 21.4403 500.342 21.3036 499.066 21.1395C497.726 20.9481 496.609 20.4832 494.887 20.702C494.376 20.7567 493.579 20.4559 492.877 20.3738C491.346 20.1824 489.783 20.0457 488.219 19.8816C487.518 19.7996 486.816 19.7449 486.082 19.7175C485.412 19.6902 484.71 19.7722 484.008 19.7722C483.658 19.7722 483.275 19.7996 482.988 19.7722C481.584 19.5261 480.212 19.3621 478.617 19.5261C477.692 19.6082 475.938 19.1433 475.682 18.8425C475.523 18.6784 475.108 18.4049 474.853 18.4323C474.342 18.4596 473.8 18.5964 473.354 18.7331C473.162 18.7878 473.098 18.9245 472.971 19.0066C471.567 18.9519 470.195 18.8698 468.855 18.8151C469.334 18.4323 469.717 18.1041 470.227 17.776C470.801 17.3931 471.822 17.5025 472.524 17.6666C474.853 18.1862 477.277 17.858 479.638 17.8307C480.085 17.8307 480.499 17.5846 480.882 17.4205C482.222 16.9009 486.337 16.8189 487.645 17.3658C487.9 17.4752 487.868 17.7486 487.741 17.9127C487.199 18.7057 487.805 18.9519 489.942 19.0886C491.473 19.1706 492.941 19.1706 494.408 19.0612C494.982 19.0066 495.525 18.9519 495.461 18.6511C495.429 18.569 495.748 18.4596 495.971 18.3776C496.609 18.1315 497.375 17.9127 497.917 17.6119C498.204 17.4478 498.3 17.2017 498.236 17.0103C498.109 16.5181 498.874 16.2173 500.182 16.3267C500.661 16.354 501.139 16.436 501.586 16.4907C503.149 16.6822 503.277 16.7642 502.894 17.4478C503.628 17.3658 504.234 17.3111 504.967 17.2564C505.159 17.3385 505.35 17.5025 505.701 17.5846C506.244 17.7213 506.882 17.8307 507.52 17.8307C507.839 17.8307 508.509 17.5846 508.445 17.5025C508.317 17.2838 507.871 17.0923 507.488 16.9009C507.296 16.8189 506.882 16.7915 506.69 16.7095C506.116 16.4634 506.403 16.1899 507.328 16.1626C508.126 16.1352 508.955 16.2446 509.753 16.2173C511.571 16.1626 513.198 16.3267 514.793 16.6548C514.984 16.6822 515.463 16.5728 515.75 16.4907C515.878 16.4634 515.91 16.354 515.91 16.272C516.005 15.9712 515.75 15.5336 516.197 15.3969C517.186 15.1234 518.525 15.0141 519.642 14.8226C521.014 14.5765 522.481 14.3304 523.693 13.9749C525.225 13.51 525.097 12.7717 523.374 12.4435C521.652 12.088 519.929 11.6232 517.76 11.7052C517.473 11.7052 517.122 11.6779 516.898 11.7325C515.399 12.0333 514.091 11.7872 512.847 11.5411C512.209 11.4044 511.794 11.4044 511.188 11.5685C510.327 11.8146 509.306 11.9787 508.349 12.1974C508.668 11.8966 509.178 11.6232 509.21 11.3224C509.274 10.9669 509.019 10.584 508.796 10.2285C508.732 10.1191 508.285 10.0371 507.966 9.98241C505.701 9.65425 503.436 9.35345 501.139 9.05264C499.193 8.80653 497.216 8.58776 495.27 8.28696C496.546 8.09554 497.822 8.04085 499.161 8.17758C501.937 8.47838 504.712 8.88857 507.552 9.05264C509.178 9.16203 511.029 8.94326 512.719 8.77919C513.166 8.75184 513.772 8.42369 513.772 8.25961C513.74 8.06819 513.102 7.82208 512.624 7.76739C511.539 7.63066 510.391 7.60331 509.242 7.54862C508.317 7.52127 507.647 7.41189 507.264 7.08374C506.722 6.6462 506.116 6.18132 505.765 5.71644C505.478 5.3336 504.904 5.11483 503.979 4.95076C503.755 4.92341 503.532 4.86872 503.277 4.86872C500.661 4.78668 499.353 4.10304 498.3 3.31C497.662 2.81778 496.418 2.59901 495.078 2.46228C492.494 2.18882 489.942 1.86067 487.326 1.75129C485.795 1.66925 484.136 1.91536 482.573 2.05209C481.042 2.21617 479.638 2.24351 478.171 1.97006C477.437 1.83333 476.607 1.75129 475.81 1.72394C472.205 1.6419 468.6 1.58721 464.995 1.50517C464.326 1.47783 463.592 1.42314 463.018 1.31375C459.7 0.684798 456.382 0.219917 452.49 0.466031C450.066 0.60276 447.609 0.383993 445.185 0.247263C442.282 0.055842 439.315 0.0284961 436.38 0.00115019C432.775 -0.0261957 429.458 0.438685 426.14 0.903565C425.47 0.985603 424.641 0.985603 423.907 0.930911C420.238 0.630106 416.601 0.13788 412.773 0.301955C411.019 0.383993 409.2 0.575414 407.637 0.876219C405.978 1.20437 404.351 1.06764 403.235 0.766836C400.715 0.055842 398.226 0.301955 395.579 0.520722C393.92 0.657452 392.101 0.930911 390.538 0.821527C386.391 0.493376 382.435 0.876219 378.416 1.06764C377.65 1.09499 376.853 1.17702 376.151 1.28641C375.321 1.42314 374.556 1.47783 373.822 1.45048H373.694C373.663 1.45048 373.631 1.42314 373.567 1.42314V1.36845H372.131C371.908 1.31375 371.653 1.31375 371.43 1.25906C368.59 0.520722 365.496 0.548068 362.37 0.930911C361.381 1.06764 360.456 1.23172 359.467 1.36845H354.49C353.98 1.3411 353.469 1.36845 352.991 1.3411C351.619 1.20437 350.47 1.25906 349.418 1.36845H250.588C248.738 1.14968 246.632 1.20437 244.463 1.36845H227.524C226.216 1.3411 224.908 1.28641 223.6 1.25906C222.866 1.25906 222.196 1.31375 221.526 1.36845H92.7097V1.75129C90.987 1.86067 89.2325 1.94271 87.5098 1.83333C83.6498 1.61456 80.3002 2.05209 76.9824 2.59901C76.3763 2.70839 75.6745 2.73574 75.0046 2.76309C71.3997 2.84512 67.7949 2.87247 64.1901 2.95451C63.3926 2.98185 62.5632 3.06389 61.8294 3.17328C60.362 3.41939 58.9583 3.3647 57.4271 3.22797C55.8639 3.09124 54.2051 2.87247 52.6738 2.95451C50.0579 3.06389 47.5058 3.3647 44.9218 3.61081C43.582 3.72019 42.3379 3.93896 41.6998 4.37649C40.6471 5.11483 39.3392 5.6891 36.7233 5.79848C36.5 5.79848 36.2447 5.85317 36.0214 5.88052C35.0963 6.01725 34.5221 6.20867 34.235 6.56417C33.8841 6.97436 33.2779 7.38454 32.7356 7.79473C32.3528 8.06819 31.6829 8.17758 30.7578 8.20492C29.6093 8.23227 28.4609 8.28696 27.3762 8.39634C26.8658 8.45103 26.2278 8.69715 26.2278 8.86122C26.1959 9.0253 26.802 9.29876 27.2805 9.3261C28.9713 9.46283 30.7897 9.65425 32.4485 9.57222C35.2877 9.40814 38.0631 9.05264 40.8385 8.77919C42.1784 8.64246 43.4544 8.69715 44.7304 8.86122C42.7845 9.10734 40.8066 9.29876 38.8606 9.54487C36.5638 9.81833 34.2988 10.0918 32.0338 10.3652C31.7148 10.4199 31.2682 10.502 31.2044 10.584C30.9811 10.9122 30.7259 11.2403 30.7897 11.5685C30.8535 11.8146 31.332 12.088 31.651 12.3615C30.694 12.1701 29.705 12.0333 28.8118 11.8146C28.2057 11.6779 27.791 11.6779 27.1529 11.7872C25.8769 12.006 24.6008 12.2521 23.1015 11.9787C22.8782 11.924 22.5273 11.9787 22.2402 11.9513C20.0709 11.8693 18.3482 12.2795 16.6256 12.6076C14.9029 12.9084 14.7753 13.5647 16.3066 14.0023C17.4869 14.3304 18.9544 14.5492 20.358 14.7679C21.5064 14.9594 22.8144 15.0414 23.8033 15.2875C24.218 15.3969 23.9947 15.8071 24.0904 16.0805C24.1223 16.1352 24.1223 16.2446 24.2499 16.272C24.537 16.3267 25.0156 16.436 25.207 16.4087C26.802 16.1352 28.429 15.9712 30.2473 16.0259C31.0449 16.0532 31.8743 15.9438 32.6718 15.9712C33.597 15.9985 33.8522 16.2173 33.3098 16.4634C33.1184 16.5454 32.7037 16.5728 32.5123 16.6548C32.1295 16.8189 31.6829 16.983 31.5553 17.2017C31.4915 17.2838 32.1614 17.5025 32.4804 17.5025C33.0865 17.5025 33.7246 17.3931 34.2988 17.2838C34.6497 17.2017 34.873 17.065 35.0325 16.983C35.7662 17.0376 36.3724 17.0923 37.1061 17.1744C36.7233 16.5728 36.8828 16.4907 38.414 16.3267C38.8925 16.272 39.3392 16.2173 39.8177 16.1626C41.1256 16.0532 41.8912 16.3267 41.7636 16.7642C41.6998 16.9556 41.7955 17.1744 42.0826 17.3111C42.625 17.5572 43.3906 17.776 44.0286 17.9948C44.22 18.0768 44.539 18.1588 44.539 18.2409C44.4752 18.5143 45.0175 18.569 45.5918 18.5964C47.0911 18.7057 48.5267 18.7057 50.0579 18.6237C52.1953 18.5143 52.8014 18.2682 52.2591 17.5572C52.1315 17.3931 52.0996 17.1744 52.3548 17.065C53.6627 16.5728 57.8099 16.6275 59.1178 17.1197C59.5006 17.2564 59.9473 17.4752 60.362 17.4752C62.7227 17.5025 65.1471 17.8033 67.4759 17.3385C68.1777 17.2017 69.1667 17.1197 69.7728 17.4478C70.2832 17.7486 70.666 18.0494 71.1445 18.3776C69.8047 18.4323 68.4649 18.487 67.0293 18.5417C66.9336 18.4596 66.8698 18.3503 66.6465 18.2956C66.1999 18.1862 65.6576 18.0494 65.1471 18.0221C64.8919 18.0221 64.4772 18.2409 64.3177 18.4049C64.0306 18.6784 62.3079 19.0886 61.3828 19.0066C59.7878 18.8698 58.416 19.0339 57.0124 19.2253C56.7253 19.28 56.3424 19.2527 55.9915 19.2253C55.2897 19.198 54.5879 19.1433 53.918 19.1706C53.1842 19.198 52.4824 19.2527 51.7806 19.3074C50.2174 19.4441 48.6543 19.5808 47.123 19.7449C46.4212 19.8269 45.6237 20.1004 45.1133 20.0457C43.3587 19.8543 42.2741 20.2645 40.9342 20.4559C39.6263 20.62 38.0631 20.7293 37.2337 21.0575C35.8938 21.5497 34.2031 21.6865 32.5761 21.8779C31.2363 22.0419 29.8964 22.124 29.9921 22.7803C30.024 23.0537 29.5774 23.3272 29.4179 23.628C29.2265 23.9562 28.9075 24.2843 29.8326 24.5304C30.3749 24.6945 30.2792 24.8586 29.7369 24.968C28.748 25.1867 27.7591 25.4328 26.7063 25.6243C25.9088 25.761 25.8769 25.9524 26.2278 26.1712C26.3554 26.2532 26.7063 26.3079 26.9296 26.3626C26.7063 26.554 26.5787 26.7181 26.3235 26.8548C25.8131 27.1283 26.0683 27.2103 26.9296 27.2377C27.6315 27.265 28.3333 27.3744 29.3541 27.4838C28.748 27.5385 28.4928 27.5658 28.2376 27.5932C27.4719 27.7299 26.483 27.8119 27.121 28.2495C27.2805 28.3589 26.9615 28.5229 26.9615 28.687C26.9934 29.0152 26.8977 29.3433 27.2486 29.6441C27.5357 29.8902 28.2057 30.0543 27.3762 30.3004C27.3124 30.3278 27.5358 30.4371 27.5996 30.4918C28.1419 30.4371 28.6204 30.3551 29.1308 30.3004C29.067 30.4645 28.8756 30.6012 29.0032 30.7106C29.3541 31.0114 29.2903 31.4763 28.7161 31.6951C28.2695 31.8865 27.7272 32.0505 27.2167 32.242C27.4719 32.2967 27.8229 32.3787 28.1419 32.4607C28.5247 32.3514 28.8756 32.242 29.1946 32.1599C29.2584 32.1873 29.3541 32.1873 29.4179 32.2146C29.2903 32.3787 29.1627 32.5428 29.0351 32.7069C28.6842 32.6522 28.3014 32.5975 27.9505 32.5428C26.802 32.8709 28.2057 32.9256 28.3971 33.0077C27.3762 33.4452 26.4511 33.8554 25.4941 34.2656C25.4303 34.2382 25.2708 34.1562 25.0475 34.0741C24.7285 34.1562 24.5051 34.2382 24.3775 34.2656C24.2499 34.1015 24.1223 33.9374 23.9628 33.6913C22.9739 34.375 20.9641 34.1015 19.8157 34.457C19.9433 34.3476 20.0709 34.2656 20.2304 34.1562L20.0071 34.0468C19.5286 34.1288 19.082 34.2109 18.3801 34.3476C18.1568 34.3203 17.5826 34.2656 17.0403 34.2109C16.7213 34.1835 16.3066 34.0468 16.1471 34.0741C15.8599 34.1288 15.7642 34.2929 15.509 34.457C16.0195 34.4296 16.3066 34.4023 16.5937 34.4023C15.6047 34.8125 14.6477 35.1953 13.7545 35.5782C13.276 35.4414 12.7017 35.3047 12.1594 35.168C11.968 35.2227 11.9042 35.25 11.8723 35.2774C11.8404 35.3047 11.8085 35.3594 11.8404 35.3867C12.3189 35.8516 12.6379 36.2618 10.692 36.4259C10.5963 36.4259 10.4687 36.59 10.5325 36.6447C10.6282 36.7267 10.8515 36.7814 11.0748 36.8361C11.2981 36.8634 11.5533 36.8634 11.5214 36.8634C11.2981 37.0275 10.9153 37.1642 11.011 37.2736C11.2343 37.4924 11.6171 37.7112 12.0318 37.9026C13.276 38.4768 14.552 39.0511 15.828 39.6254C15.9238 39.6801 16.1471 39.6801 16.3385 39.7348C16.9446 39.8441 17.5826 39.8441 18.093 40.1176C18.8587 40.5278 20.1347 40.8559 21.3469 41.1294C22.0807 41.2935 23.2929 41.4302 24.0266 41.3482C25.3665 41.1841 26.5149 41.2661 26.9296 41.7037C27.2167 42.0045 27.5676 42.3053 27.8867 42.6061C27.7272 42.6608 27.4719 42.7428 27.2805 42.8248C27.2486 42.8522 27.5038 42.9616 27.5038 42.9616C27.8229 42.9069 28.11 42.8522 28.3971 42.7975C28.5885 42.7428 28.748 42.6881 28.7799 42.6881C28.8756 42.9342 28.748 43.2077 29.067 43.3444C29.6412 43.5905 29.4817 43.7273 28.8118 43.864C28.3333 43.9734 27.8548 44.0827 27.3443 44.1648C25.6536 44.4382 23.8671 44.6844 22.9739 45.3133C22.8782 45.3954 22.5273 45.4227 22.304 45.4774C21.0917 45.7782 19.8157 46.0517 18.6353 46.3798C18.2525 46.4892 17.8697 46.708 17.8697 46.872C17.8697 47.501 16.7532 47.8291 15.2857 48.0479C13.914 48.2667 12.5103 48.4581 11.2024 48.7316C10.6601 48.8409 10.022 49.1144 10.0539 49.3058C10.0858 49.4972 10.7558 49.7434 11.33 49.8254C12.925 50.0988 14.552 49.9895 16.2428 49.8254C17.3274 49.716 18.5715 49.6613 19.72 49.6887C22.623 49.7707 25.3027 49.5793 27.7591 49.0597C29.0032 48.8136 30.2792 48.7862 31.5553 48.8409C33.5651 48.923 35.5748 49.0597 37.5527 49.1964C37.9036 49.2238 38.2545 49.3058 38.6054 49.3879C38.5735 49.4426 38.5735 49.4972 38.5735 49.5519C36.2128 49.7434 33.8522 49.9348 31.4915 50.0988C31.0449 50.1262 30.5345 50.1262 30.1835 50.1809C29.8007 50.2629 29.386 50.3997 29.3222 50.5364C29.2903 50.6184 29.7688 50.7825 30.1197 50.8372C30.8216 50.9466 31.2363 51.0286 30.9173 51.3294C30.8216 51.4115 31.2363 51.6302 31.5234 51.6576C31.9062 51.7123 32.5123 51.6576 32.8632 51.6029C33.0865 51.5482 33.0865 51.3841 33.0865 51.2474C33.0865 51.1106 32.7994 50.8645 32.9589 50.8372C33.6608 50.6731 34.7773 50.427 35.1601 50.509C37.4889 51.0013 39.9134 50.8098 42.3379 50.7552C43.8691 50.7278 44.9538 50.3997 44.9218 49.9895C44.858 49.4972 45.5599 49.3332 46.804 49.5793C48.3672 49.8801 49.8665 50.2082 51.4297 50.5364C51.8444 50.6184 52.4186 50.6458 52.8971 50.6458C55.0026 50.6731 57.14 50.5637 59.1178 50.9192C59.6602 51.0286 60.4577 51.0013 61.1276 50.9739C62.5631 50.9192 63.9668 50.7825 65.4661 50.8919C66.3913 50.9466 66.806 51.138 67.0612 51.3841C67.2207 51.5482 67.2526 51.7396 67.3483 51.9037C67.4759 51.9037 67.5397 51.9037 67.5716 51.9037C67.7949 51.7943 68.0182 51.6849 68.3692 51.5208C68.5606 51.6576 68.752 51.7396 68.752 51.8216C68.752 51.9037 68.5925 52.0131 68.433 52.1498C69.8366 51.8763 70.1237 51.9037 71.5593 52.6147C71.0807 52.5873 70.5703 52.5053 70.3151 52.56C68.9434 52.8061 67.5716 52.8061 66.0404 52.8061C64.6367 52.8061 64.86 53.271 65.2747 53.7359C64.1901 53.6538 63.3926 53.5991 62.5631 53.5171C62.7546 53.353 62.8822 53.3257 63.0098 53.2983C63.3288 53.1889 63.6159 53.0522 63.903 52.9155C63.4245 52.8334 62.946 52.7514 62.4355 52.6967C61.7337 52.642 61 52.56 60.2663 52.56C58.3522 52.5326 56.4381 52.5053 54.556 52.5873C53.9818 52.6147 53.5351 52.9702 52.9609 53.1342C52.5462 53.2436 52.0358 53.3257 51.5254 53.3804C50.8554 53.4624 50.1217 53.4897 49.4837 53.5718C48.6543 53.6812 47.761 54.0093 47.123 53.9546C45.4323 53.8179 43.5182 53.7359 42.6569 53.0796C41.9869 52.5873 41.7317 52.56 40.2005 52.7514C39.8177 52.8061 39.3392 52.8334 39.0839 52.9155C38.1907 53.2163 37.6165 53.1069 36.819 52.8334C35.7024 52.4779 34.4902 52.0131 32.6399 52.3959C31.4277 52.642 30.2154 52.8334 28.7161 52.6967C28.429 52.6694 28.0462 52.7787 27.7272 52.8334C27.44 52.8881 27.0891 52.9975 26.8658 52.9702C25.526 52.8334 24.4732 53.0796 23.3567 53.2436C23.1015 53.271 22.7187 53.3257 22.5273 53.2983C21.1236 53.0249 19.6881 52.7787 18.4439 52.4232C17.3593 52.1498 16.5299 51.7669 14.9029 51.931C14.4563 51.9857 13.8821 51.931 13.4674 51.8763C12.1913 51.6849 11.011 51.7943 10.1497 52.0678C9.16072 52.3686 8.45889 52.3412 7.34236 52.1771C6.35342 52.0404 5.10928 51.7669 3.96084 52.1771C3.35472 52.3959 2.58909 52.6147 1.79157 52.7514C-0.1225 53.1342 -0.632918 54.146 0.898335 54.693C1.50446 54.9117 1.72776 55.0758 1.02594 55.3219C0.898335 55.3766 1.18544 55.6227 1.31305 55.6501C1.79157 55.6774 2.33388 55.6501 2.8443 55.5954C3.60993 55.5407 4.31175 55.4313 5.07738 55.3766C6.25772 55.2946 6.76814 55.4586 6.83194 55.8688C6.92764 56.4978 7.98038 56.7713 9.76684 56.7439C10.2454 56.7439 10.8834 56.8259 11.2024 56.9627C12.3189 57.4002 13.1803 57.5096 14.6477 57.2088C15.3814 57.0721 15.6366 57.1541 16.1152 57.3182C16.5937 57.4822 17.4869 57.6737 17.9973 57.619C19.1458 57.5096 19.2734 57.701 19.4329 57.9745C19.6243 58.2753 20.1666 58.4667 21.1236 58.3573C21.7617 58.3026 22.5592 58.1932 22.9101 58.0292C24.218 57.4276 26.0045 57.6737 27.6315 57.6737C27.8229 57.6737 28.0781 57.7831 28.1419 57.8651C28.1738 57.9198 27.8229 57.9745 27.6315 58.0292C27.2805 58.1385 26.7382 58.1932 26.5468 58.3026C25.8769 58.6855 27.4719 59.4785 28.8756 59.4238C30.7259 59.3418 32.7994 59.4238 33.7884 58.6308C34.0436 58.4394 35.1282 58.2206 35.7662 58.2479C37.0104 58.3026 37.8398 59.123 37.2656 59.6152C36.5319 59.3418 35.7981 59.0957 34.9368 58.7948C34.6816 59.123 34.4264 59.3418 34.3626 59.5605C34.2669 59.834 34.235 60.0801 33.1503 60.1075C33.0546 60.1075 32.8632 60.4083 32.9589 60.4356C34.0755 60.6817 35.2239 60.9278 36.3724 61.1466C36.9785 61.2833 37.6165 61.3927 38.1269 61.5568C38.6054 61.6935 38.9563 61.8849 39.4349 62.049C40.041 62.2678 40.7428 62.4045 41.636 62.2404C42.5293 62.0764 43.2949 61.8576 43.2311 61.4747C43.1992 61.1193 42.625 60.8731 41.6041 60.7638C39.8496 60.5723 39.5306 60.4083 40.2643 59.8613C40.7428 59.5058 40.7428 59.2324 40.1367 58.8769C39.7539 58.6581 39.2754 58.3847 40.0091 58.1112C40.9342 57.783 42.5293 57.6737 43.8372 57.8377C44.5709 57.9198 45.3366 58.0018 46.1022 58.0018C46.9954 58.0292 47.5377 58.1385 47.761 58.4394C47.9844 58.7402 48.5905 58.8769 49.5475 58.9042C50.1855 58.9316 50.8874 59.0136 51.3659 59.123C52.3548 59.3965 53.2799 59.6426 54.6517 59.6426C55.0345 59.6426 55.513 59.7246 55.8001 59.834C56.5019 60.0801 57.2357 60.1075 58.0013 59.916C58.7988 59.7246 58.9902 59.4511 58.3203 59.1503C57.9056 58.9589 57.8737 58.7675 58.7031 58.7128C59.1816 58.6855 59.724 58.7402 60.2344 58.7675C60.1068 58.9042 60.0111 59.041 59.8835 59.1503C59.8516 59.1777 59.7878 59.2324 59.724 59.2597C59.3411 59.5605 59.6283 59.8066 60.4258 59.916C60.8724 59.9707 61.638 59.916 62.0527 59.8066C62.7227 59.6152 62.5951 59.3691 62.0208 59.1503C61.7656 59.0683 61.5742 58.9316 61.3828 58.8495C61.4466 58.8222 61.5104 58.7675 61.5423 58.7402C62.276 58.7675 63.0417 58.7948 63.903 58.7948C63.6478 59.0136 63.5202 59.1503 63.3607 59.2597C63.0098 59.5605 63.3288 59.834 64.1901 59.9434C64.6686 59.9981 65.4981 59.8887 65.849 59.752C66.487 59.5332 66.168 59.2597 65.4661 59.0683C65.179 58.9863 64.9238 58.8769 64.5091 58.7402C64.9238 58.7128 65.0833 58.6855 65.2109 58.6855C66.8698 58.6855 68.5606 58.7128 70.2194 58.7128C70.666 58.7128 71.2402 58.7128 71.4955 58.6308C72.1654 58.412 72.8991 58.4394 73.6647 58.494C74.1113 58.5214 74.558 58.5214 75.0046 58.494C77.142 58.4394 77.4929 58.5487 77.8119 59.2324C77.9395 59.5332 78.5456 59.7246 79.4388 59.6699C80.3002 59.6152 80.6511 59.4238 80.5235 59.123C80.4916 59.0136 80.3959 58.9316 80.3321 58.8222C80.4278 58.7948 80.5554 58.7675 80.6511 58.7402C81.002 58.8495 81.3529 58.9589 81.7038 59.0683C82.0547 59.1777 82.4694 59.3965 82.7884 59.3965C83.2351 59.3691 83.586 59.1777 83.9688 59.0683C84.224 58.9863 84.543 58.8769 84.7663 58.8769C85.1172 58.9042 85.5319 59.0136 85.6595 59.123C86.1062 59.5879 86.3614 59.6426 87.5736 59.4511C88.2116 59.3418 88.5944 59.3418 89.073 59.5332C89.6472 59.752 90.3809 59.7793 91.0508 59.5879C91.7527 59.3691 91.6889 59.123 91.1146 58.8769C90.8594 58.7675 90.6042 58.6581 90.2533 58.5214C91.7846 58.412 91.8484 58.7675 92.2631 59.0136C92.3907 59.0957 92.5821 59.1777 92.7735 59.2324V63.1428C92.4226 63.1702 92.0717 63.1975 91.9441 63.2522C91.306 63.553 90.6361 63.553 89.711 63.553C89.1687 63.553 88.3073 63.7445 88.1478 63.9085C88.0202 64.0453 88.5944 64.2914 89.0092 64.4555C89.2325 64.5375 89.7429 64.5922 90.1576 64.5922C91.0508 64.5922 91.9122 64.5922 92.8054 64.5648V64.6469H356.564C356.564 64.6469 356.564 64.6469 356.564 64.6742C356.723 64.6742 356.883 64.6742 357.042 64.6742H362.019C362.146 64.7289 362.274 64.8109 362.338 64.8656C362.465 64.8383 362.625 64.8383 362.752 64.8109C362.752 64.7563 362.784 64.7289 362.784 64.6742H373.599V64.264H374.556C374.939 64.4008 375.13 64.6195 374.715 64.975C375.736 64.6742 376.502 64.4555 377.236 64.264H387.635V63.471C388.114 63.471 388.688 63.389 389.198 63.3616C389.613 63.3343 390.219 63.3069 390.411 63.389C391.176 63.7171 391.974 63.6898 392.803 63.471C393.409 63.3069 393.92 63.1702 394.59 63.471C394.781 63.553 395.547 63.5257 395.898 63.4436C396.855 63.2249 397.684 63.1975 398.609 63.471C398.833 63.5257 399.375 63.4983 399.662 63.4163C400.332 63.2796 400.619 63.3069 400.938 63.5804C401.64 64.1546 402.788 64.182 404.001 63.6898C404.32 63.553 404.958 63.553 405.436 63.471C405.468 63.471 405.5 63.471 405.564 63.471C407.095 63.5804 407.765 63.7445 408.626 64.2367C409.264 64.5922 410.285 64.6195 410.987 64.2914C411.338 64.1273 411.593 63.9359 411.816 63.7991C412.614 63.8812 413.348 64.0726 413.922 64.0179C414.592 63.9632 415.102 63.6624 415.772 63.4436C416.219 63.8812 415.23 64.5648 417.112 64.5922C417.686 64.5922 418.292 64.1546 418.994 63.8538C419.281 63.9359 419.824 64.2093 420.462 64.264C421.068 64.3187 421.769 64.1273 422.503 64.0179C424.481 64.6469 424.481 64.6469 426.108 64.1546C428.213 64.9203 428.947 64.8656 430.159 63.7991C430.287 63.9906 430.255 64.2093 430.51 64.3461C430.797 64.5101 431.34 64.7016 431.723 64.7016C432.137 64.7016 432.616 64.4828 432.903 64.3187C433.19 64.1546 433.254 63.9085 433.381 63.7171C433.509 63.7171 433.669 63.7445 433.796 63.7445C433.828 63.8538 433.892 63.9632 433.892 64.0726C433.86 64.4008 434.211 64.7016 435.072 64.7289C435.646 64.7289 436.221 64.4828 436.763 64.3187C436.827 64.2914 436.827 64.264 436.859 64.2367C437.082 64.1 437.337 63.9906 437.561 63.8538C437.72 63.9906 437.848 64.1546 438.039 64.2914C438.262 64.4555 438.518 64.5922 438.773 64.7563C439.124 64.6195 439.475 64.4828 439.794 64.3461C440.017 64.2367 440.208 64.1273 440.464 64.0453C440.559 64.0179 441.006 64.1273 441.102 64.182C441.421 64.4555 441.58 64.8383 442.569 64.7289C443.175 64.6742 443.654 64.4008 444.292 64.182C444.355 64.2093 444.451 64.3187 444.643 64.4008C445.153 64.5648 445.727 64.8656 446.238 64.8656C446.78 64.8656 447.418 64.5648 447.737 64.3461C448.152 64.0453 448.215 63.6624 449.747 63.7991C449.396 63.9632 449.141 64.0726 448.885 64.2093C448.311 64.4828 448.247 64.7563 448.949 65.0024C449.587 65.2211 450.353 65.1938 450.927 64.9477C451.406 64.7563 451.788 64.7563 452.426 64.8656C453.607 65.0844 453.862 65.0024 454.34 64.5101C454.436 64.4008 454.883 64.264 455.234 64.2367C455.457 64.2093 455.776 64.3734 456.031 64.4555C456.446 64.5922 456.797 64.811 457.212 64.8383C457.531 64.8656 457.945 64.6195 458.296 64.4828C458.647 64.3461 458.998 64.2367 459.349 64.1C459.445 64.1273 459.572 64.1546 459.668 64.182C459.604 64.2914 459.54 64.4008 459.477 64.5375C459.349 64.8656 459.7 65.1118 460.561 65.1664C461.486 65.2211 462.061 65.0297 462.188 64.6742C462.507 63.9085 462.858 63.7991 464.995 63.8538C465.442 63.8538 465.921 63.8538 466.335 63.8265C467.133 63.7718 467.835 63.7718 468.505 63.9906C468.792 64.0726 469.366 64.0726 469.781 64.0726C471.439 64.0726 473.13 64.0453 474.789 64.0453C474.949 64.0453 475.108 64.0726 475.491 64.1C475.108 64.264 474.853 64.3734 474.534 64.4828C473.864 64.7016 473.545 64.975 474.151 65.2485C474.502 65.3852 475.331 65.4946 475.81 65.4399C476.671 65.3305 476.99 65.0297 476.639 64.6742C476.512 64.5375 476.352 64.4008 476.097 64.1546C476.958 64.1273 477.692 64.1 478.458 64.0726C478.521 64.1 478.585 64.1546 478.617 64.182C478.394 64.2914 478.202 64.4281 477.979 64.5375C477.405 64.7836 477.245 65.0571 477.947 65.2758C478.33 65.3852 479.128 65.4672 479.574 65.3852C480.372 65.2485 480.627 64.975 480.276 64.6469C480.212 64.5922 480.148 64.5648 480.117 64.5101C479.989 64.3734 479.893 64.2093 479.766 64.0726C480.276 64.0453 480.818 63.9906 481.297 64.0179C482.094 64.0726 482.094 64.2914 481.68 64.5101C481.01 64.8383 481.201 65.1391 481.999 65.3579C482.764 65.5766 483.498 65.5219 484.2 65.2485C484.487 65.1391 484.966 65.0297 485.348 65.0297C486.688 65.0297 487.645 64.7563 488.634 64.4555C489.113 64.3187 489.814 64.2093 490.452 64.2093C491.41 64.182 492.016 64.0179 492.239 63.6898C492.462 63.3343 493.005 63.2249 493.898 63.1975C494.663 63.1702 495.429 63.1155 496.163 63.0061C497.471 62.8147 499.066 62.9241 499.991 63.3069C500.725 63.6077 500.246 63.9085 499.863 64.1546C499.257 64.5375 499.257 64.8383 499.736 65.2485C500.501 65.8501 500.15 66.0415 498.396 66.2603C497.375 66.3697 496.833 66.6431 496.769 67.0533C496.705 67.4908 497.471 67.737 498.364 67.9284C499.225 68.0925 499.959 67.9557 500.565 67.7096C501.012 67.5182 501.363 67.2994 501.873 67.1627C502.415 66.9986 503.022 66.8619 503.628 66.6978C504.776 66.4244 505.925 66.1782 507.041 65.9048C507.169 65.8774 506.945 65.5493 506.85 65.5493C505.765 65.5219 505.733 65.2211 505.637 64.9203C505.574 64.6742 505.318 64.4555 505.063 64.0726C504.202 64.4008 503.468 64.7016 502.734 64.975C502.16 64.4008 502.99 63.4983 504.234 63.4436C504.872 63.4163 505.956 63.6624 506.212 63.8812C507.201 64.7563 509.274 64.6742 511.124 64.7563C512.528 64.8383 514.091 63.9359 513.453 63.5257C513.23 63.389 512.719 63.3069 512.369 63.2249C512.177 63.1702 511.826 63.0882 511.858 63.0335C511.89 62.9514 512.177 62.8147 512.369 62.8147C513.996 62.8147 515.782 62.5412 517.09 63.2249C517.441 63.4163 518.238 63.5257 518.876 63.5804C519.802 63.6898 520.344 63.471 520.567 63.1428C520.759 62.842 520.854 62.6233 522.003 62.76C522.513 62.8147 523.406 62.6233 523.885 62.4319C524.395 62.2404 524.619 62.131 525.352 62.2951C526.82 62.6233 527.713 62.5139 528.798 62.0217C529.085 61.8849 529.755 61.7756 530.233 61.8029C532.052 61.8302 533.072 61.5294 533.168 60.8184C533.232 60.3809 533.742 60.1895 534.923 60.2715C535.688 60.3262 536.39 60.4356 537.156 60.5176C537.666 60.5723 538.177 60.5997 538.687 60.5723C538.846 60.5723 539.102 60.2715 538.974 60.2168C538.272 59.9434 538.496 59.752 539.102 59.5058C540.633 58.9863 540.122 57.8651 538.208 57.4276Z" fill="#F15A24"/>
</svg>
