<svg width="25" height="25" viewBox="0 0 25 25" fill="none" xmlns="http://www.w3.org/2000/svg">
<path d="M12.3781 24.9998C11.9996 24.8472 11.8043 24.5786 11.7372 24.1636C11.1879 20.6907 10.4371 17.2666 9.31409 13.928C8.36194 11.096 7.18396 8.36771 5.5116 5.87747C4.55945 4.46146 3.48523 3.137 2.11804 2.0872C1.84949 1.87968 1.55652 1.70267 1.26355 1.52567C0.848509 1.26932 0.708128 0.829872 0.933959 0.445351C1.15369 0.0608303 1.60535 -0.0551364 2.03259 0.176797C2.99084 0.683388 3.7904 1.3914 4.53503 2.16654C6.49426 4.20511 7.92248 6.59158 9.10046 9.13675C10.5226 12.2129 11.5114 15.4295 12.2743 18.7254C12.3048 18.8657 12.3414 19.0061 12.4147 19.1465C12.4696 18.8902 12.5245 18.6399 12.5795 18.3836C13.025 16.3694 13.6171 14.398 14.4288 12.4998C14.4838 12.3655 14.4899 12.2678 14.4105 12.1275C13.6232 10.8152 13.1105 9.42361 13.202 7.86722C13.3119 6.1033 14.1481 4.75443 15.6434 3.8328C16.0829 3.56424 16.5712 3.36283 17.0472 3.16752C18.6036 2.53275 20.1417 1.85526 21.5455 0.921425C21.8263 0.732216 22.0948 0.518593 22.3573 0.304971C22.9249 -0.165 23.5658 0.0364162 23.7245 0.75663C24.1456 2.65482 24.347 4.57132 24.109 6.51224C23.993 7.47049 23.7855 8.41043 23.2911 9.24661C22.7723 10.1194 22.0887 10.8579 21.277 11.4744C19.7694 12.6157 18.0665 13.0552 16.1927 12.8233C16.0157 12.7989 15.9608 12.8721 15.8937 13.0125C14.9171 15.3074 14.2457 17.6939 13.8307 20.1475C13.6171 21.4292 13.4767 22.7171 13.3363 24.0049C13.2875 24.4627 13.1654 24.8228 12.7015 24.9937C12.6039 24.9998 12.494 24.9998 12.3781 24.9998ZM16.6993 11.3462C17.8285 11.3889 18.8417 11.1814 19.7633 10.6199C20.7643 10.0157 21.576 9.21609 22.101 8.16629C22.4366 7.4888 22.5404 6.74417 22.6136 5.99954C22.7174 4.91922 22.6564 3.84501 22.516 2.77079C22.4916 2.59989 22.4611 2.42899 22.4305 2.23978C22.0765 2.45341 21.7653 2.64872 21.4418 2.83182C20.0258 3.63749 18.5304 4.24784 17.0289 4.8765C15.3383 5.58451 14.5448 7.04324 14.8195 8.84988C14.911 9.43582 15.088 9.99124 15.3688 10.5467C15.5519 10.2293 15.7106 9.93631 15.8815 9.64944C16.5345 8.55691 17.267 7.53152 18.1337 6.59769C18.3473 6.36575 18.5975 6.23758 18.9149 6.30472C19.5314 6.43289 19.7511 7.12869 19.3177 7.61087C18.5914 8.42264 17.92 9.27713 17.3585 10.211C17.1327 10.5711 16.9313 10.9373 16.6993 11.3462Z" fill="#087503"/>
</svg>
