<svg width="25" height="25" viewBox="0 0 25 25" fill="none" xmlns="http://www.w3.org/2000/svg">
<path d="M9.64217 1.94684C10.4039 1.92731 11.0419 2.19423 11.5432 2.76715C11.5953 2.82574 11.6799 2.85178 11.7515 2.87783C12.357 3.1122 12.7997 3.52236 13.0666 4.11481C13.1252 4.24501 13.1838 4.29059 13.3336 4.2971C15.1239 4.34267 16.2047 6.28277 15.2932 7.82574C15.2151 7.95595 15.2021 8.04059 15.2867 8.17079C15.5666 8.6135 15.6643 9.10178 15.6122 9.61611C15.6057 9.69423 15.6318 9.77236 15.6448 9.83746C15.9703 9.66819 16.2633 9.51194 16.5823 9.34918C16.5302 8.78277 16.4716 8.18382 16.4195 7.58486C16.3479 6.7971 16.7711 6.13303 17.4742 5.91819C18.2034 5.69684 18.9716 5.98981 19.3362 6.62132C19.525 6.95335 19.5575 7.31142 19.512 7.68251C19.4534 8.24892 19.4078 8.81533 19.3622 9.33616C19.6812 9.49241 19.9742 9.63564 20.2997 9.79189C20.3062 9.78538 20.3583 9.75283 20.4104 9.71376C21.0289 9.25152 21.8167 9.23199 22.4286 9.70074C23.8284 10.7815 24.564 12.2073 24.6161 13.9781C24.6422 14.9481 24.6357 15.9247 24.2255 16.8296C23.9911 17.3375 23.6982 17.8127 23.4247 18.327C23.4247 18.327 23.4703 18.3661 23.5159 18.3921C24.3687 18.9065 24.7659 19.7984 24.5771 20.7684C24.3948 21.6734 23.6461 22.357 22.689 22.5002C19.7659 22.9494 16.8427 23.4052 13.913 23.8544C12.3375 24.0953 10.7685 24.3622 9.18644 24.5575C7.48722 24.7658 6.10701 24.1408 5.0979 22.7541C4.9742 22.5849 4.87004 22.5718 4.70076 22.6109C4.14738 22.7411 3.58748 22.8388 3.04061 22.995C2.25936 23.2164 1.42603 22.65 1.60181 21.6148C1.60832 21.5757 1.61483 21.5432 1.62134 21.5041C0.827067 21.3609 0.4104 20.9377 0.4104 20.2997C0.416911 19.6682 0.846598 19.2385 1.58228 19.1213C1.5953 18.8674 1.57576 18.6135 1.63436 18.3791C1.76457 17.8192 2.33097 17.4807 2.89087 17.5979C3.50936 17.7281 4.12785 17.8648 4.74634 18.0145C4.90259 18.0536 4.98071 18.0145 5.08488 17.8843C5.35181 17.5588 5.64478 17.2528 5.94425 16.9599C6.0354 16.8687 6.06144 16.8101 6.01587 16.6929C5.76196 15.9963 5.52108 15.2997 5.26066 14.6096C5.22811 14.525 5.12394 14.4273 5.0328 14.4078C3.77629 14.1343 2.99504 13.0015 3.17733 11.719C3.19035 11.6343 3.14478 11.5106 3.08618 11.4455C2.37655 10.7424 2.17472 9.9221 2.48071 8.9846C2.51978 8.8609 2.49373 8.80231 2.39608 8.72418C0.508057 7.20725 0.846598 4.40126 3.04712 3.37913C3.13175 3.34007 3.21639 3.24892 3.24894 3.16428C3.59399 2.23981 4.25806 1.71897 5.2216 1.56272C5.30623 1.5497 5.4104 1.50413 5.45597 1.43902C6.60832 -0.136496 8.76977 0.0783475 9.58358 1.85569C9.60311 1.88173 9.62264 1.90777 9.64217 1.94684ZM8.84139 23.8283C9.10832 23.7893 9.58358 23.7307 10.0588 23.6591C12.2268 23.327 14.4013 22.9885 16.5693 22.6565C18.594 22.344 20.6187 22.038 22.6435 21.719C23.3466 21.6083 23.8414 20.9963 23.8349 20.2867C23.8284 19.5901 23.3271 19.0041 22.6305 18.8935C20.6252 18.581 18.6135 18.275 16.6018 17.9625C14.3101 17.6109 12.0185 17.2593 9.73332 16.9013C9.11483 16.8036 8.49634 16.719 7.86483 16.8622C6.1005 17.2593 4.88957 18.9065 5.09139 20.6382C5.29972 22.4937 6.7841 23.8283 8.84139 23.8283ZM11.8752 11.6474C12.0445 11.3804 12.1747 11.1135 12.3635 10.8921C13.0081 10.1044 13.62 9.25803 14.8961 9.39475C14.8049 9.11481 14.7594 8.85439 14.6422 8.63303C14.5185 8.40517 14.3232 8.20986 14.1474 7.98199C14.7789 7.4221 15.0784 6.74501 14.6682 5.94423C14.219 5.06533 13.4443 4.93512 12.5458 5.20205C12.5263 5.08486 12.5068 5.00022 12.4937 4.91559C12.4286 4.52496 12.2789 4.18642 11.9794 3.91298C11.1721 3.18382 9.94165 3.47027 9.48592 4.4859C9.42733 4.6096 9.40779 4.72679 9.20597 4.70725C8.288 4.6096 7.61092 5.12392 7.44816 6.03538C7.41561 6.21767 7.33748 6.28929 7.17472 6.33486C6.21769 6.62132 5.56014 7.4221 5.4755 8.38564C5.39087 9.33616 5.89217 10.2281 6.77759 10.6838C6.89477 10.7489 7.01847 10.8075 7.13566 10.8726C6.36092 12.1682 6.43905 12.5979 7.63045 13.6135C7.58488 13.7372 7.53931 13.8674 7.49373 13.9976C7.20727 14.9221 7.8453 15.9052 8.79582 16.0158C9.36222 16.081 9.92212 16.1656 10.4885 16.2437C10.8336 16.2893 11.1851 16.3479 11.5627 16.4C11.2698 15.4039 11.3023 14.4338 11.3674 13.4573C11.3739 13.3791 11.2893 13.2685 11.2177 13.2164C10.7815 12.9169 10.2932 12.7411 9.77889 12.6435C9.38826 12.5718 8.99764 12.5263 8.61353 12.4677C8.61353 12.2203 8.61353 11.9794 8.61353 11.719C9.53149 11.745 10.3974 11.9273 11.2502 12.2789C11.0354 11.6083 10.8075 10.9573 10.5601 10.3192C10.5081 10.189 10.4169 10.0653 10.3062 9.98069C9.87655 9.64866 9.36873 9.49241 8.84139 9.43382C8.39217 9.38173 7.93644 9.36871 7.46769 9.34267C7.44165 9.11481 7.42212 8.87392 7.39608 8.60699C8.26196 8.54189 9.09529 8.62001 9.95467 8.83486C9.538 8.0471 9.12134 7.25934 8.69165 6.45204C8.88696 6.32184 9.0953 6.19163 9.36222 6.02236C9.90259 7.07053 10.4364 8.09918 10.9703 9.14085C11.3544 8.21637 11.8948 7.40908 12.6565 6.73199C12.8258 6.94684 12.982 7.13564 13.1448 7.33746C12.2919 8.14475 11.719 9.08876 11.4716 10.2216C11.4521 10.2997 11.4521 10.3843 11.4716 10.456C11.5888 10.8401 11.732 11.2242 11.8752 11.6474ZM9.03019 2.84527C8.99113 2.64345 8.96509 2.46767 8.913 2.29189C8.73722 1.6734 8.19035 1.21767 7.55233 1.16559C6.88175 1.10699 6.27629 1.47158 5.98332 2.10309C5.92472 2.2333 5.91821 2.38955 5.67733 2.3635C4.7854 2.25934 4.08879 2.78017 3.93254 3.67861C3.89998 3.86741 3.82837 3.94553 3.64608 3.99762C2.70207 4.27757 2.05103 5.06533 1.95988 6.02887C1.86222 6.97288 2.36353 7.87132 3.24243 8.34007C3.35962 8.40517 3.48332 8.46376 3.62655 8.53538C3.288 8.99111 3.0341 9.45335 3.14478 10.0328C3.25545 10.6122 3.63306 10.9703 4.11483 11.2437C4.08879 11.3218 4.07576 11.3869 4.04972 11.4455C3.54842 12.5653 4.42082 13.7242 5.56014 13.6591C5.71639 13.6526 5.76847 13.7177 5.81405 13.8479C6.0354 14.4924 6.26978 15.1369 6.49764 15.775C6.57576 15.9898 6.65389 16.1981 6.73201 16.4195C6.95988 16.3283 7.1617 16.2502 7.38306 16.1656C6.79061 15.5406 6.5367 14.8375 6.67993 13.9976C6.69295 13.9325 6.62785 13.8414 6.57576 13.7763C6.43905 13.5875 6.26326 13.4182 6.15259 13.2164C5.78149 12.5588 5.77498 11.8687 6.04191 11.1721C6.00936 11.1461 5.98983 11.12 5.96379 11.1005C4.00415 9.64866 4.36222 6.6734 6.58879 5.70335C6.6604 5.67079 6.73201 5.59267 6.75806 5.52106C7.10962 4.57705 7.78019 4.04319 8.76977 3.89345C8.8479 3.88043 8.93904 3.82835 8.97811 3.76975C9.25806 3.3596 9.62915 3.06663 10.0849 2.87783C10.1239 2.86481 10.1565 2.83225 10.2021 2.80621C9.79842 2.64345 9.42733 2.78017 9.03019 2.84527ZM19.3101 10.163C19.219 10.5211 19.1734 10.7815 19.538 11.0224C20.0719 11.3739 20.0588 12.0119 19.551 12.4026C19.3232 12.5783 19.0432 12.7086 18.7698 12.7802C18.4182 12.8713 18.0536 12.8778 17.676 12.9234C17.663 13.0211 17.6305 13.1448 17.6305 13.2619C17.6109 14.1799 17.5849 15.0979 17.5979 16.0158C17.6044 16.4 17.6825 16.7906 17.7476 17.1747C17.7607 17.2463 17.8453 17.357 17.9039 17.37C18.8479 17.5263 19.7984 17.676 20.7489 17.8062C20.8206 17.8192 20.9573 17.7411 20.9833 17.676C21.1331 17.2854 21.3349 16.8882 21.3805 16.4781C21.4651 15.6448 21.5042 14.8049 21.4781 13.9716C21.439 12.5002 20.8271 11.2893 19.6747 10.3583C19.5706 10.2867 19.4403 10.2346 19.3101 10.163ZM16.9208 17.2333C16.9273 17.1812 16.9338 17.1617 16.9273 17.1356C16.7125 15.801 16.7581 14.4599 16.8557 13.1252C16.8752 12.8257 16.8427 12.6825 16.5627 12.5328C15.8531 12.1487 15.814 11.4 16.4586 10.9703C16.6799 10.827 16.7255 10.6773 16.6734 10.456C16.6604 10.3778 16.6474 10.2997 16.6344 10.2086C16.5758 10.2281 16.5302 10.2346 16.4846 10.2606C16.4195 10.2932 16.3609 10.3323 16.3023 10.3778C15.6187 10.9052 15.1174 11.5757 14.7854 12.37C14.2971 13.5484 14.4469 14.7854 14.4729 16.0093C14.4794 16.2502 14.538 16.4911 14.6031 16.7255C14.6226 16.7971 14.7268 16.8882 14.8049 16.9078C15.5081 17.0185 16.2047 17.1226 16.9208 17.2333ZM21.719 17.9625C21.9403 18.0015 22.1226 18.0276 22.3049 18.0601C22.4482 18.0862 22.5458 18.0471 22.6435 17.9364C23.1513 17.357 23.5094 16.6994 23.6917 15.9507C23.9 15.0849 23.8935 14.1994 23.7633 13.3336C23.581 12.1031 22.9625 11.1135 21.9729 10.3583C21.5888 10.0653 21.1526 10.0914 20.8466 10.4169C21.4521 11.107 21.8622 11.8948 22.0966 12.7802C22.2919 13.5158 22.2528 14.2645 22.2659 15.0132C22.2919 16.0224 22.1812 17.0054 21.719 17.9625ZM15.1174 10.4169C14.7594 10.0914 14.3557 10.0718 13.9846 10.3388C13.5224 10.6708 13.1578 11.0875 12.8388 11.5627C12.0706 12.7151 12.0315 14.0106 12.1357 15.3192C12.1617 15.6773 12.2854 16.0289 12.3765 16.3869C12.3896 16.452 12.4482 16.5367 12.4937 16.5497C12.9169 16.6278 13.3466 16.6864 13.7177 16.745C13.6982 15.8336 13.6526 14.9481 13.6786 14.0692C13.6917 13.5744 13.7828 13.0666 13.9065 12.5849C14.1148 11.758 14.551 11.0549 15.1174 10.4169ZM16.7776 11.6669C17.1617 12.2724 18.9521 12.1942 19.1409 11.6604C19.0042 11.5888 18.8739 11.4976 18.7242 11.4455C18.3857 11.3153 18.3922 11.3218 18.4247 10.9507C18.5354 9.80491 18.6461 8.65257 18.7437 7.50673C18.8023 6.8622 18.2164 6.44553 17.6305 6.70595C17.2984 6.84918 17.1617 7.16168 17.2073 7.62392C17.318 8.78277 17.4221 9.94163 17.5328 11.094C17.5523 11.2828 17.5002 11.3674 17.318 11.4195C17.1292 11.4716 16.9599 11.5823 16.7776 11.6669ZM4.29061 19.9221C3.39217 19.9221 2.52629 19.9221 1.65389 19.9221C1.3479 19.9221 1.16561 20.0718 1.16561 20.3127C1.16561 20.5536 1.3479 20.7033 1.65389 20.7033C2.4742 20.7033 3.29451 20.7033 4.12134 20.7033C4.17342 20.7033 4.23201 20.6968 4.29061 20.6903C4.29061 20.4299 4.29061 20.189 4.29061 19.9221ZM4.55103 18.7698C3.9716 18.6395 3.39868 18.5028 2.81925 18.3921C2.69556 18.3661 2.48071 18.3987 2.43514 18.4768C2.36353 18.6005 2.34399 18.8088 2.39608 18.9455C2.42863 19.0367 2.62394 19.1148 2.74764 19.1213C3.21639 19.1408 3.69165 19.1083 4.1604 19.1343C4.42733 19.1604 4.538 19.0627 4.55103 18.7698ZM4.58358 21.8427C4.48592 21.6994 4.57056 21.4846 4.32967 21.4846C3.76978 21.4846 3.20988 21.4781 2.64998 21.4911C2.4091 21.4976 2.29842 21.6799 2.33748 21.9664C2.36353 22.1682 2.52629 22.2984 2.73462 22.2593C3.34009 22.1226 3.93905 21.9859 4.58358 21.8427Z" fill="#59AE60" stroke="#59AE60" stroke-width="0.4"/>
<path d="M8.20996 22.2464C8.20996 20.9443 8.20996 19.6618 8.20996 18.3662C8.46387 18.3662 8.70476 18.3662 8.95867 18.3662C8.95867 19.6553 8.95867 20.9378 8.95867 22.2464C8.72429 22.2464 8.47689 22.2464 8.20996 22.2464Z" fill="#59AE60" stroke="#59AE60" stroke-width="0.25"/>
<path d="M11.3416 18.3662C11.5955 18.3662 11.8363 18.3662 12.0903 18.3662C12.0903 19.6618 12.0903 20.9378 12.0903 22.2399C11.8494 22.2399 11.602 22.2399 11.3416 22.2399C11.3416 20.9639 11.3416 19.6748 11.3416 18.3662Z" fill="#59AE60" stroke="#59AE60" stroke-width="0.25"/>
<path d="M15.2153 22.2531C14.9548 22.2531 14.7139 22.2531 14.4666 22.2531C14.4666 20.9575 14.4666 19.6815 14.4666 18.3794C14.7074 18.3794 14.9548 18.3794 15.2153 18.3794C15.2153 19.6619 15.2153 20.9445 15.2153 22.2531Z" fill="#59AE60" stroke="#59AE60" stroke-width="0.25"/>
<path d="M18.3403 21.4718C18.0798 21.4718 17.8389 21.4718 17.5916 21.4718C17.5916 20.6971 17.5916 19.9419 17.5916 19.1606C17.8324 19.1606 18.0798 19.1606 18.3403 19.1606C18.3403 19.9224 18.3403 20.6841 18.3403 21.4718Z" fill="#59AE60" stroke="#59AE60" stroke-width="0.25"/>
<path d="M20.7166 19.5381C20.9705 19.5381 21.2048 19.5381 21.4653 19.5381C21.4653 20.0459 21.4653 20.5537 21.4653 21.0745C21.2309 21.0745 20.9835 21.0745 20.7166 21.0745C20.7166 20.5732 20.7166 20.0654 20.7166 19.5381Z" fill="#59AE60" stroke="#59AE60" stroke-width="0.25"/>
</svg>
